<?xml version="1.0" encoding="UTF-8"?>
<svg version="1.1" xmlns="http://www.w3.org/2000/svg" width="466" height="444">
<path d="M0 0 C0.0501123 0.56920166 0.10022461 1.13840332 0.15185547 1.72485352 C0.38592338 4.33808107 0.6303858 6.95023939 0.875 9.5625 C0.95363281 10.45775391 1.03226563 11.35300781 1.11328125 12.27539062 C1.60212963 17.40829866 2.41990692 22.06659827 4 27 C4.33 28.17820312 4.66 29.35640625 5 30.5703125 C5.33 31.74335937 5.66 32.91640625 6 34.125 C6.33 35.30320313 6.66 36.48140625 7 37.6953125 C7.91753794 40.93303187 7.91753794 40.93303187 9.125 43.6796875 C10 46 10 46 10 50 C10.66 50 11.32 50 12 50 C13.75734451 54.97361654 15.32584613 59.7415998 16 65 C16.66 65 17.32 65 18 65 C18.33 67.31 18.66 69.62 19 72 C19.66 72 20.32 72 21 72 C21.33 73.98 21.66 75.96 22 78 C22.66 78 23.32 78 24 78 C25.96189209 81.6678852 27.39301257 84.87248551 28 89 C28.99 89.33 29.98 89.66 31 90 C32.88579937 93.21284338 34 95.24633583 34 99 C34.66 99 35.32 99 36 99 C36.33 100.65 36.66 102.3 37 104 C37.66 104 38.32 104 39 104 C39.33 104.99 39.66 105.98 40 107 C40.66 107.33 41.32 107.66 42 108 C45 113.30769231 45 113.30769231 45 117 C45.99 117 46.98 117 48 117 C48.33 118.65 48.66 120.3 49 122 C49.66 122 50.32 122 51 122 C51.33 122.99 51.66 123.98 52 125 C52.66 125.33 53.32 125.66 54 126 C54.625 128.5625 54.625 128.5625 55 131 C55.66 131 56.32 131 57 131 C59.34869747 132.97290587 60.00102287 134.00306862 61 137 C61.7734375 137.7425 61.7734375 137.7425 62.5625 138.5 C64 140 64 140 64 143 C64.99 143 65.98 143 67 143 C67 143.99 67 144.98 67 146 C67.99 146.33 68.98 146.66 70 147 C70 147.66 70 148.32 70 149 C70.66 149 71.32 149 72 149 C74.34869747 150.97290587 75.00102287 152.00306862 76 155 C77.65788785 156.34423339 79.32576317 157.67618483 81 159 C82.34736973 160.65533995 83.68334336 162.32012773 85 164 C85.66 164.33 86.32 164.66 87 165 C87 165.66 87 166.32 87 167 C87.99 167.33 88.98 167.66 90 168 C90 168.66 90 169.32 90 170 C90.99 170 91.98 170 93 170 C95.1875 171.875 95.1875 171.875 97 174 C97 174.66 97 175.32 97 176 C97.99 176 98.98 176 100 176 C101.5625 177.4375 101.5625 177.4375 103 179 C103.66 179.33 104.32 179.66 105 180 C105 180.66 105 181.32 105 182 C106.32 182.33 107.64 182.66 109 183 C109 183.66 109 184.32 109 185 C110.98 185.33 112.96 185.66 115 186 C115 186.66 115 187.32 115 188 C116.65 188.33 118.3 188.66 120 189 C120 190.32 120 191.64 120 193 C116.37 193.33 112.74 193.66 109 194 C109 194.66 109 195.32 109 196 C108.41992188 196.12117187 107.83984375 196.24234375 107.2421875 196.3671875 C103.67619091 197.13217027 100.25719193 197.90922638 96.8125 199.125 C93.73931081 200.0811033 91.19937309 200.1523511 88 200 C88 200.66 88 201.32 88 202 C84.7 202.33 81.4 202.66 78 203 C78 203.66 78 204.32 78 205 C74.37 205.33 70.74 205.66 67 206 C67 206.66 67 207.32 67 208 C66.21753906 208.13277344 65.43507813 208.26554688 64.62890625 208.40234375 C63.61699219 208.57894531 62.60507812 208.75554687 61.5625 208.9375 C60.55316406 209.11152344 59.54382813 209.28554688 58.50390625 209.46484375 C56.0712562 209.74751097 56.0712562 209.74751097 55 211 C53.31816052 211.23287008 51.6287584 211.41264166 49.9375 211.5625 C49.01839844 211.64628906 48.09929687 211.73007812 47.15234375 211.81640625 C46.44207031 211.87699219 45.73179687 211.93757812 45 212 C45 212.66 45 213.32 45 214 C41.37 214.33 37.74 214.66 34 215 C34 215.66 34 216.32 34 217 C33.28714844 217.12117187 32.57429687 217.24234375 31.83984375 217.3671875 C25.39067402 218.48256732 25.39067402 218.48256732 19.0625 220.125 C16 221 16 221 12 221 C12 221.66 12 222.32 12 223 C11.28714844 223.12117187 10.57429687 223.24234375 9.83984375 223.3671875 C5.57762825 224.1129318 1.45643709 224.86074801 -2.6875 226.125 C-6.64800726 227.17117173 -9.91756729 227.14324325 -14 227 C-14 227.66 -14 228.32 -14 229 C-17.47325181 230.1577506 -20.36067448 230.06866652 -24 230 C-24 230.66 -24 231.32 -24 232 C-26.75078884 232.91692961 -28.35948913 233.10886083 -31.1875 233.0625 C-32.445625 233.041875 -33.70375 233.02125 -35 233 C-35 233.66 -35 234.32 -35 235 C-38.47325181 236.1577506 -41.36067448 236.06866652 -45 236 C-45 236.66 -45 237.32 -45 238 C-45.75925781 238.12117187 -46.51851562 238.24234375 -47.30078125 238.3671875 C-48.29464844 238.53476562 -49.28851563 238.70234375 -50.3125 238.875 C-51.29863281 239.03742188 -52.28476563 239.19984375 -53.30078125 239.3671875 C-56.20059827 239.88085454 -56.20059827 239.88085454 -59 242 C-61.33157492 242.34541851 -63.66508361 242.67794257 -66 243 C-66.825 243.350625 -67.65 243.70125 -68.5 244.0625 C-71.73974034 245.27740263 -74.57080601 245.1344782 -78 245 C-78 245.66 -78 246.32 -78 247 C-78.66386719 247.12117187 -79.32773438 247.24234375 -80.01171875 247.3671875 C-80.89472656 247.53476562 -81.77773437 247.70234375 -82.6875 247.875 C-83.55761719 248.03742188 -84.42773438 248.19984375 -85.32421875 248.3671875 C-88.03455706 249.00817262 -90.42742863 249.94212018 -93 251 C-98.64334763 252.7907566 -104.01734699 254.48507997 -110 254 C-110 254.66 -110 255.32 -110 256 C-113.3 256.33 -116.6 256.66 -120 257 C-120 257.66 -120 258.32 -120 259 C-123.63 259.33 -127.26 259.66 -131 260 C-131 260.66 -131 261.32 -131 262 C-134.3 262.33 -137.6 262.66 -141 263 C-141 263.66 -141 264.32 -141 265 C-144.67387495 265.85298376 -148.0447393 266.10789471 -151.8125 266.0625 C-153.27623047 266.04896484 -153.27623047 266.04896484 -154.76953125 266.03515625 C-155.87361328 266.01775391 -155.87361328 266.01775391 -157 266 C-157.33 265.01 -157.66 264.02 -158 263 C-158.7734375 262.2575 -158.7734375 262.2575 -159.5625 261.5 C-161 260 -161 260 -161 257 C-161.66 257 -162.32 257 -163 257 C-163.495 255.02 -163.495 255.02 -164 253 C-164.66 253 -165.32 253 -166 253 C-166.33 251.35 -166.66 249.7 -167 248 C-167.66 248 -168.32 248 -169 248 C-169 247.01 -169 246.02 -169 245 C-169.99 244.67 -170.98 244.34 -172 244 C-172.33 242.35 -172.66 240.7 -173 239 C-173.66 239 -174.32 239 -175 239 C-175 238.01 -175 237.02 -175 236 C-175.99 236 -176.98 236 -178 236 C-178.33 234.02 -178.66 232.04 -179 230 C-179.66 230 -180.32 230 -181 230 C-181 229.01 -181 228.02 -181 227 C-181.99 227 -182.98 227 -184 227 C-184 224.03 -184 221.06 -184 218 C-183.34 218 -182.68 218 -182 218 C-181.938125 217.2575 -181.87625 216.515 -181.8125 215.75 C-180.74432799 212.1346486 -178.95720459 211.2694826 -176 209 C-174.65783025 207.00591923 -173.3227887 205.00698975 -172 203 C-171.34 203 -170.68 203 -170 203 C-169.71125 202.4225 -169.4225 201.845 -169.125 201.25 C-168.75375 200.5075 -168.3825 199.765 -168 199 C-167.731875 198.34 -167.46375 197.68 -167.1875 197 C-165.60889106 194.34129021 -163.40453899 192.91130022 -161 191 C-160.67 190.01 -160.34 189.02 -160 188 C-159.34 188 -158.68 188 -158 188 C-157.67 187.01 -157.34 186.02 -157 185 C-156.34 185 -155.68 185 -155 185 C-154.67 184.01 -154.34 183.02 -154 182 C-153.34 182 -152.68 182 -152 182 C-152 181.01 -152 180.02 -152 179 C-150.6875 177.5 -150.6875 177.5 -149 176 C-146.70106836 173.87790925 -146.02791832 173.08375495 -145 170 C-143.5625 168.3125 -143.5625 168.3125 -142 167 C-141.34 167 -140.68 167 -140 167 C-139.71125 166.4225 -139.4225 165.845 -139.125 165.25 C-138.568125 164.13625 -138.568125 164.13625 -138 163 C-137.566875 162.01 -137.566875 162.01 -137.125 161 C-135.74180937 158.54099444 -134.11791344 156.85317426 -132 155 C-131.34 155 -130.68 155 -130 155 C-130 154.01 -130 153.02 -130 152 C-128.625 150.3125 -128.625 150.3125 -127 149 C-126.34 149 -125.68 149 -125 149 C-124.67 148.01 -124.34 147.02 -124 146 C-123.34 146 -122.68 146 -122 146 C-121.896875 145.236875 -121.79375 144.47375 -121.6875 143.6875 C-120.95288806 140.81583516 -120.3283935 139.76957906 -118 138 C-117.34 138 -116.68 138 -116 138 C-115.67 136.68 -115.34 135.36 -115 134 C-114.34 134 -113.68 134 -113 134 C-112.67 133.01 -112.34 132.02 -112 131 C-111.34 131 -110.68 131 -110 131 C-110 130.01 -110 129.02 -110 128 C-109.01 128 -108.02 128 -107 128 C-106.896875 127.236875 -106.79375 126.47375 -106.6875 125.6875 C-105.95288806 122.81583516 -105.3283935 121.76957906 -103 120 C-102.34 120 -101.68 120 -101 120 C-101 119.01 -101 118.02 -101 117 C-99.125 114.8125 -99.125 114.8125 -97 113 C-96.34 113 -95.68 113 -95 113 C-94.71125 112.4225 -94.4225 111.845 -94.125 111.25 C-93.75375 110.5075 -93.3825 109.765 -93 109 C-92.731875 108.34 -92.46375 107.68 -92.1875 107 C-90.60316809 104.33165152 -88.44156924 102.87813018 -86 101 C-85.67 100.34 -85.34 99.68 -85 99 C-84.34 99 -83.68 99 -83 99 C-82.505 97.02 -82.505 97.02 -82 95 C-81.34 95 -80.68 95 -80 95 C-79.505 93.515 -79.505 93.515 -79 92 C-78.34 92 -77.68 92 -77 92 C-76.896875 91.236875 -76.79375 90.47375 -76.6875 89.6875 C-75.95288806 86.81583516 -75.3283935 85.76957906 -73 84 C-72.34 84 -71.68 84 -71 84 C-71 83.01 -71 82.02 -71 81 C-70.01 81 -69.02 81 -68 81 C-68 80.01 -68 79.02 -68 78 C-67.01 78 -66.02 78 -65 78 C-64.896875 77.443125 -64.79375 76.88625 -64.6875 76.3125 C-63.85988599 73.52870742 -62.62262248 71.40148127 -61 69 C-60.34 68.67 -59.68 68.34 -59 68 C-58.505 66.515 -58.505 66.515 -58 65 C-56.5625 63.3125 -56.5625 63.3125 -55 62 C-54.34 62 -53.68 62 -53 62 C-52.67 61.01 -52.34 60.02 -52 59 C-51.34 59 -50.68 59 -50 59 C-49.71125 58.4225 -49.4225 57.845 -49.125 57.25 C-48.568125 56.13625 -48.568125 56.13625 -48 55 C-47.67 54.278125 -47.34 53.55625 -47 52.8125 C-46 51 -46 51 -44 50 C-43.67 49.01 -43.34 48.02 -43 47 C-42.01 47 -41.02 47 -40 47 C-40 46.01 -40 45.02 -40 44 C-39.34 44 -38.68 44 -38 44 C-37.67 43.01 -37.34 42.02 -37 41 C-36.34 41 -35.68 41 -35 41 C-34.938125 40.2575 -34.87625 39.515 -34.8125 38.75 C-33.74432799 35.1346486 -31.95720459 34.2694826 -29 32 C-27.65783025 30.00591923 -26.3227887 28.00698975 -25 26 C-24.34 26 -23.68 26 -23 26 C-22.67 25.01 -22.34 24.02 -22 23 C-21.34 23 -20.68 23 -20 23 C-19.9175 22.2575 -19.835 21.515 -19.75 20.75 C-18.85190201 17.45697405 -17.61583926 16.14023212 -15 14 C-14.34 14 -13.68 14 -13 14 C-13 13.01 -13 12.02 -13 11 C-12.01 11 -11.02 11 -10 11 C-10 10.01 -10 9.02 -10 8 C-9.34 8 -8.68 8 -8 8 C-7.8453125 6.8553125 -7.8453125 6.8553125 -7.6875 5.6875 C-6.43889391 0.8065853 -5.02712572 0 0 0 Z " fill="#202020" transform="translate(222,87)"/>
<path d="M0 0 C3.63 0 7.26 0 11 0 C11.33 0.66 11.66 1.32 12 2 C12.78375 2.144375 13.5675 2.28875 14.375 2.4375 C17.26386705 3.05654294 18.23647793 3.67957622 20 6 C20 6.66 20 7.32 20 8 C21.32 8.33 22.64 8.66 24 9 C24 9.66 24 10.32 24 11 C24.7425 11.061875 25.485 11.12375 26.25 11.1875 C29.87017367 12.25709677 30.77383898 14.00859613 33 17 C33.825 17.66 34.65 18.32 35.5 19 C38.12899543 21.10319635 39.90319635 23.37899543 42 26 C42.825 26.639375 43.65 27.27875 44.5 27.9375 C47.38885237 30.32080321 49.11068841 32.78117285 51 36 C51 36.66 51 37.32 51 38 C51.99 38.33 52.98 38.66 54 39 C54 39.66 54 40.32 54 41 C54.66 41 55.32 41 56 41 C56 41.99 56 42.98 56 44 C56.99 44.33 57.98 44.66 59 45 C61.9791794 47.29167646 62.5047783 49.33535945 63 53 C63.66 53 64.32 53 65 53 C65 53.99 65 54.98 65 56 C65.99 56 66.98 56 68 56 C69.52448631 58.9826906 70.93940067 61.818202 72 65 C72.66 65 73.32 65 74 65 C75.72264494 68.29549466 77.29445932 71.33118845 78 75 C78.66 75 79.32 75 80 75 C80.33 76.65 80.66 78.3 81 80 C82.485 80.495 82.485 80.495 84 81 C85.4158649 83.91038896 86.29922267 86.846502 87 90 C87.66 90 88.32 90 89 90 C89.67408308 91.26691507 90.33900497 92.53870749 91 93.8125 C91.37125 94.52019531 91.7425 95.22789062 92.125 95.95703125 C93 98 93 98 93 101 C93.66 101 94.32 101 95 101 C95.33 102.98 95.66 104.96 96 107 C96.66 107 97.32 107 98 107 C98.67305018 108.60149886 99.33822227 110.20631029 100 111.8125 C100.37125 112.70582031 100.7425 113.59914063 101.125 114.51953125 C102 117 102 117 102 120 C102.66 120 103.32 120 104 120 C104.67467562 121.74692795 105.33944156 123.49768525 106 125.25 C106.37125 126.22453125 106.7425 127.1990625 107.125 128.203125 C108 131 108 131 108 135 C108.66 135 109.32 135 110 135 C110.495 139.455 110.495 139.455 111 144 C111.66 144 112.32 144 113 144 C113.98248524 148.0527516 114.08159574 151.83861737 114 156 C114.66 156 115.32 156 116 156 C116.05807043 159.10408807 116.09361914 162.2080364 116.125 165.3125 C116.14175781 166.19357422 116.15851563 167.07464844 116.17578125 167.98242188 C116.18222656 168.82998047 116.18867188 169.67753906 116.1953125 170.55078125 C116.20578613 171.33106689 116.21625977 172.11135254 116.22705078 172.9152832 C116 175 116 175 114 178 C109.70251973 178.9730144 106.25592068 179.16070564 102 178 C102 177.34 102 176.68 102 176 C101.195625 175.87625 100.39125 175.7525 99.5625 175.625 C98.716875 175.41875 97.87125 175.2125 97 175 C96.67 174.34 96.34 173.68 96 173 C95.01 172.67 94.02 172.34 93 172 C93 171.34 93 170.68 93 170 C92.2575 169.938125 91.515 169.87625 90.75 169.8125 C87.12982633 168.74290323 86.22616102 166.99140387 84 164 C83.175 163.34 82.35 162.68 81.5 162 C78.87100457 159.89680365 77.09680365 157.62100457 75 155 C74.175 154.34 73.35 153.68 72.5 153 C69.86021978 150.88817582 68.02361241 148.69814988 66 146 C65.4225 145.278125 64.845 144.55625 64.25 143.8125 C63 142 63 142 63 140 C62.01 139.67 61.02 139.34 60 139 C60 138.34 60 137.68 60 137 C59.34 137 58.68 137 58 137 C57.67 136.01 57.34 135.02 57 134 C56.34 133.67 55.68 133.34 55 133 C55 132.01 55 131.02 55 130 C54.01 129.67 53.02 129.34 52 129 C51.3125 126.9375 51.3125 126.9375 51 125 C50.34 125 49.68 125 49 125 C48.67 124.01 48.34 123.02 48 122 C47.484375 121.505 46.96875 121.01 46.4375 120.5 C45 119 45 119 45 116 C44.34 116 43.68 116 43 116 C43 115.01 43 114.02 43 113 C42.01 112.67 41.02 112.34 40 112 C39.67 110.35 39.34 108.7 39 107 C38.34 107 37.68 107 37 107 C35.27735506 103.70450534 33.70554068 100.66881155 33 97 C32.34 97 31.68 97 31 97 C30.71125 96.195625 30.4225 95.39125 30.125 94.5625 C29.26737432 91.8673532 29.26737432 91.8673532 27 91 C27 89.35 27 87.7 27 86 C25.515 85.505 25.515 85.505 24 85 C22.11420063 81.78715662 21 79.75366417 21 76 C20.34 76 19.68 76 19 76 C18.67 74.02 18.34 72.04 18 70 C17.34 70 16.68 70 16 70 C15.67 68.02 15.34 66.04 15 64 C14.34 64 13.68 64 13 64 C12.32532438 62.25307205 11.66055844 60.50231475 11 58.75 C10.62875 57.77546875 10.2575 56.8009375 9.875 55.796875 C9 53 9 53 9 49 C8.34 49 7.68 49 7 49 C6.67 46.36 6.34 43.72 6 41 C5.34 41 4.68 41 4 41 C3.67 37.7 3.34 34.4 3 31 C2.34 31 1.68 31 1 31 C0.80083984 29.60974609 0.80083984 29.60974609 0.59765625 28.19140625 C0.42105469 26.99386719 0.24445313 25.79632813 0.0625 24.5625 C-0.11152344 23.36753906 -0.28554687 22.17257813 -0.46484375 20.94140625 C-0.68985213 18.12044324 -0.68985213 18.12044324 -2 17 C-2.07271741 14.64686445 -2.08370868 12.29166332 -2.0625 9.9375 C-2.05347656 8.64714844 -2.04445312 7.35679688 -2.03515625 6.02734375 C-2.02355469 5.02832031 -2.01195312 4.02929688 -2 3 C-1.34 3 -0.68 3 0 3 C0 2.01 0 1.02 0 0 Z " fill="#222223" transform="translate(247,81)"/>
<path d="M0 0 C0 0.66 0 1.32 0 2 C0.886875 2.28875 1.77375 2.5775 2.6875 2.875 C10.81818182 5.63636364 10.81818182 5.63636364 12 8 C12.99 8.33 13.98 8.66 15 9 C15 9.66 15 10.32 15 11 C17.475 11.495 17.475 11.495 20 12 C20 12.99 20 13.98 20 15 C20.99 15 21.98 15 23 15 C24.6875 16.375 24.6875 16.375 26 18 C26 18.66 26 19.32 26 20 C27.32 20.33 28.64 20.66 30 21 C30 21.66 30 22.32 30 23 C30.99 23.33 31.98 23.66 33 24 C33 24.66 33 25.32 33 26 C33.99 26.33 34.98 26.66 36 27 C36 27.66 36 28.32 36 29 C37.485 29.495 37.485 29.495 39 30 C39 30.66 39 31.32 39 32 C40.485 32.495 40.485 32.495 42 33 C42 33.66 42 34.32 42 35 C43.485 35.495 43.485 35.495 45 36 C45 36.66 45 37.32 45 38 C45.66 38 46.32 38 47 38 C47 38.99 47 39.98 47 41 C47.99 41 48.98 41 50 41 C50 41.99 50 42.98 50 44 C51.485 44.495 51.485 44.495 53 45 C55 47.3125 55 47.3125 57 50 C57.5775 50.721875 58.155 51.44375 58.75 52.1875 C60 54 60 54 60 56 C60.66 56 61.32 56 62 56 C62.33 56.99 62.66 57.98 63 59 C63.515625 59.495 64.03125 59.99 64.5625 60.5 C66 62 66 62 66 65 C66.99 65 67.98 65 69 65 C72 70.625 72 70.625 72 74 C72.99 74 73.98 74 75 74 C78 79.625 78 79.625 78 83 C79.485 83.495 79.485 83.495 81 84 C81 84.99 81 85.98 81 87 C81.66 87 82.32 87 83 87 C83.33 88.65 83.66 90.3 84 92 C84.66 92 85.32 92 86 92 C87.72264494 95.29549466 89.29445932 98.33118845 90 102 C90.66 102 91.32 102 92 102 C92.33 103.98 92.66 105.96 93 108 C93.66 108 94.32 108 95 108 C95.33 109.98 95.66 111.96 96 114 C96.66 114 97.32 114 98 114 C102.59225513 123.41002278 102.59225513 123.41002278 102 128 C102.66 128 103.32 128 104 128 C104.33 130.31 104.66 132.62 105 135 C105.66 135 106.32 135 107 135 C107.71550042 137.14650127 108.43015269 139.29323289 109.140625 141.44140625 C109.67687171 143.03795895 110.22669945 144.63009112 110.796875 146.21484375 C112.57666467 151.23639317 113.6641569 156.15507925 114.47265625 161.421875 C114.90577611 164.00889757 114.90577611 164.00889757 116.01855469 166.29321289 C117.12116038 169.3341555 117.24361824 171.6594223 117.23046875 174.88671875 C117.22853516 175.98951172 117.22660156 177.09230469 117.22460938 178.22851562 C117.21236328 179.36998047 117.20011719 180.51144531 117.1875 181.6875 C117.1865332 183.41709961 117.1865332 183.41709961 117.18554688 185.18164062 C117.14048144 193.71903712 117.14048144 193.71903712 116 196 C115.34 196 114.68 196 114 196 C113.938125 196.9075 113.87625 197.815 113.8125 198.75 C112.79721307 202.81114773 111.45255728 203.75182316 108 206 C104.78859969 207.92274923 102.4770812 208.22308108 98.75 208.125 C97.85796875 208.10695313 96.9659375 208.08890625 96.046875 208.0703125 C95.37140625 208.04710937 94.6959375 208.02390625 94 208 C94 207.34 94 206.68 94 206 C91.03 205.67 88.06 205.34 85 205 C85 204.34 85 203.68 85 203 C82.69 202.67 80.38 202.34 78 202 C78 201.34 78 200.68 78 200 C77.195625 199.87625 76.39125 199.7525 75.5625 199.625 C74.716875 199.41875 73.87125 199.2125 73 199 C72.67 198.34 72.34 197.68 72 197 C71.01 196.67 70.02 196.34 69 196 C69 195.34 69 194.68 69 194 C67.35 193.34 65.7 192.68 64 192 C64 191.34 64 190.68 64 190 C63.01 190 62.02 190 61 190 C59.62517293 188.36739286 58.29352333 186.69774938 57 185 C55.515 184.01 55.515 184.01 54 183 C54 182.34 54 181.68 54 181 C53.360625 180.731875 52.72125 180.46375 52.0625 180.1875 C50 179 50 179 49 176 C48.01 176 47.02 176 46 176 C46 175.01 46 174.02 46 173 C45.01 172.67 44.02 172.34 43 172 C43 171.34 43 170.68 43 170 C42.01 169.67 41.02 169.34 40 169 C38.64172029 167.35360035 37.30745749 165.68704193 36 164 C35.34 163.67 34.68 163.34 34 163 C33.375 160.4375 33.375 160.4375 33 158 C32.01 157.67 31.02 157.34 30 157 C30 156.34 30 155.68 30 155 C29.34 155 28.68 155 28 155 C27.67 154.01 27.34 153.02 27 152 C26.2265625 151.2575 26.2265625 151.2575 25.4375 150.5 C24 149 24 149 24 146 C23.01 145.67 22.02 145.34 21 145 C21 144.01 21 143.02 21 142 C20.34 142 19.68 142 19 142 C18.505 139.525 18.505 139.525 18 137 C17.01 137 16.02 137 15 137 C15 136.01 15 135.02 15 134 C14.34 134 13.68 134 13 134 C12.67 132.02 12.34 130.04 12 128 C11.01 128 10.02 128 9 128 C9 127.01 9 126.02 9 125 C8.34 125 7.68 125 7 125 C6.67 123.02 6.34 121.04 6 119 C5.01 118.67 4.02 118.34 3 118 C3 117.01 3 116.02 3 115 C2.34 115 1.68 115 1 115 C0.67 113.02 0.34 111.04 0 109 C-0.66 109 -1.32 109 -2 109 C-2.33 107.35 -2.66 105.7 -3 104 C-3.66 104 -4.32 104 -5 104 C-5.33 102.02 -5.66 100.04 -6 98 C-6.66 98 -7.32 98 -8 98 C-8.33 96.02 -8.66 94.04 -9 92 C-9.66 92 -10.32 92 -11 92 C-11.33 90.02 -11.66 88.04 -12 86 C-12.66 86 -13.32 86 -14 86 C-14.33 83.69 -14.66 81.38 -15 79 C-15.66 79 -16.32 79 -17 79 C-17.33 76.36 -17.66 73.72 -18 71 C-18.66 71 -19.32 71 -20 71 C-20.33 68.69 -20.66 66.38 -21 64 C-21.66 64 -22.32 64 -23 64 C-23.33 61.03 -23.66 58.06 -24 55 C-24.66 55 -25.32 55 -26 55 C-27.28317892 51.15046324 -27.06643637 48.05261865 -27 44 C-27.66 44 -28.32 44 -29 44 C-30.29598556 40.03153118 -30.17986643 36.00290078 -30.203125 31.875 C-30.20882507 31.09108887 -30.21452515 30.30717773 -30.22039795 29.49951172 C-30.22982443 27.84539125 -30.23637256 26.1912522 -30.24023438 24.53710938 C-30.24996619 22.00878321 -30.28102126 19.48126148 -30.3125 16.953125 C-30.31902815 15.34375481 -30.32427936 13.73437883 -30.328125 12.125 C-30.3404718 11.3707373 -30.3528186 10.61647461 -30.36553955 9.83935547 C-30.35199889 6.64703133 -30.23009648 4.40221848 -28.62792969 1.6015625 C-20.99286016 -5.90984363 -8.95480045 -4.21402374 0 0 Z M-13 8 C-13 8.66 -13 9.32 -13 10 C-13.66 10 -14.32 10 -15 10 C-18.19865751 14.05060019 -18.3292702 17.25602939 -18.1875 22.3125 C-18.16042969 23.56675781 -18.13335937 24.82101563 -18.10546875 26.11328125 C-18.07066406 27.06589844 -18.03585938 28.01851562 -18 29 C-17.34 29 -16.68 29 -16 29 C-15.67 33.29 -15.34 37.58 -15 42 C-14.34 42 -13.68 42 -13 42 C-12.95101562 42.69867188 -12.90203125 43.39734375 -12.8515625 44.1171875 C-12.77679688 45.02726562 -12.70203125 45.93734375 -12.625 46.875 C-12.55539063 47.77992187 -12.48578125 48.68484375 -12.4140625 49.6171875 C-12.20431868 52.17941903 -12.20431868 52.17941903 -10 54 C-9.60235737 55.98821313 -9.26224651 57.98944339 -9 60 C-8.34 60 -7.68 60 -7 60 C-6.67 62.64 -6.34 65.28 -6 68 C-5.34 68 -4.68 68 -4 68 C-3.67 69.98 -3.34 71.96 -3 74 C-2.34 74 -1.68 74 -1 74 C-0.67 76.31 -0.34 78.62 0 81 C0.66 81 1.32 81 2 81 C2.33 82.98 2.66 84.96 3 87 C3.66 87 4.32 87 5 87 C5.103125 87.70125 5.20625 88.4025 5.3125 89.125 C6.09359003 92.39137647 7.42058743 95.0471852 9 98 C9.66 98 10.32 98 11 98 C11.33 99.98 11.66 101.96 12 104 C12.66 104 13.32 104 14 104 C14.33 105.32 14.66 106.64 15 108 C15.66 108 16.32 108 17 108 C17.1546875 109.051875 17.1546875 109.051875 17.3125 110.125 C18.09359003 113.39137647 19.42058743 116.0471852 21 119 C21.66 119 22.32 119 23 119 C23.33 120.32 23.66 121.64 24 123 C24.66 123 25.32 123 26 123 C26.33 124.65 26.66 126.3 27 128 C27.66 128 28.32 128 29 128 C29.33 129.32 29.66 130.64 30 132 C30.66 132 31.32 132 32 132 C32.12375 132.804375 32.2475 133.60875 32.375 134.4375 C32.58125 135.283125 32.7875 136.12875 33 137 C33.66 137.33 34.32 137.66 35 138 C35.33 138.99 35.66 139.98 36 141 C36.66 141 37.32 141 38 141 C38.33 141.99 38.66 142.98 39 144 C39.66 144 40.32 144 41 144 C41.1546875 145.1446875 41.1546875 145.1446875 41.3125 146.3125 C42.04711194 149.18416484 42.6716065 150.23042094 45 152 C45.66 152 46.32 152 47 152 C47 152.99 47 153.98 47 155 C47.99 155 48.98 155 50 155 C50.33 156.32 50.66 157.64 51 159 C51.66 159 52.32 159 53 159 C53.33 159.99 53.66 160.98 54 162 C54.66 162 55.32 162 56 162 C56.33 162.99 56.66 163.98 57 165 C57.66 165 58.32 165 59 165 C59.28875 165.763125 59.5775 166.52625 59.875 167.3125 C60.96269013 170.15029308 60.96269013 170.15029308 63 173 C63.99 173 64.98 173 66 173 C66 173.99 66 174.98 66 176 C66.99 176 67.98 176 69 176 C69 176.99 69 177.98 69 179 C70.65 179.33 72.3 179.66 74 180 C74.33 180.99 74.66 181.98 75 183 C76.64821244 184.03013277 78.31503702 185.03114628 80 186 C80.33 186.66 80.66 187.32 81 188 C83.52733235 188.65555119 83.52733235 188.65555119 86 189 C86 189.66 86 190.32 86 191 C87.98 191.33 89.96 191.66 92 192 C92 192.66 92 193.32 92 194 C95.63 194 99.26 194 103 194 C103 193.34 103 192.68 103 192 C103.66 192 104.32 192 105 192 C108.99920834 184.168217 108.59951116 177.680747 106.51171875 169.28515625 C105.67618099 165.55393801 105.36222726 161.8033862 105 158 C104.34 158 103.68 158 103 158 C102.505 153.545 102.505 153.545 102 149 C101.34 149 100.68 149 100 149 C99.505 145.535 99.505 145.535 99 142 C98.34 142 97.68 142 97 142 C96.67 139.36 96.34 136.72 96 134 C95.34 134 94.68 134 94 134 C93.896875 133.154375 93.79375 132.30875 93.6875 131.4375 C92.9171146 127.58557299 91.63725486 124.55924969 90 121 C89.34 121 88.68 121 88 121 C87.67 119.02 87.34 117.04 87 115 C86.34 115 85.68 115 85 115 C84.67 113.02 84.34 111.04 84 109 C83.34 109 82.68 109 82 109 C81.67 107.35 81.34 105.7 81 104 C80.34 104 79.68 104 79 104 C78.896875 103.278125 78.79375 102.55625 78.6875 101.8125 C77.93206053 98.72206579 76.84468685 96.58256159 75 94 C74.34 94 73.68 94 73 94 C72.67 92.35 72.34 90.7 72 89 C71.34 89 70.68 89 70 89 C69.896875 88.278125 69.79375 87.55625 69.6875 86.8125 C68.93206053 83.72206579 67.84468685 81.58256159 66 79 C65.34 79 64.68 79 64 79 C63.87625 78.195625 63.7525 77.39125 63.625 76.5625 C63.315625 75.2940625 63.315625 75.2940625 63 74 C62.34 73.67 61.68 73.34 61 73 C60.67 72.01 60.34 71.02 60 70 C59.34 70 58.68 70 58 70 C57.7215625 69.42765625 57.443125 68.8553125 57.15625 68.265625 C56.01726208 66.03382434 54.80063617 63.89129126 53.5 61.75 C53.0771875 61.04359375 52.654375 60.3371875 52.21875 59.609375 C51.61546875 58.81273438 51.61546875 58.81273438 51 58 C50.34 58 49.68 58 49 58 C48.67 57.01 48.34 56.02 48 55 C47.34 55 46.68 55 46 55 C45.896875 54.236875 45.79375 53.47375 45.6875 52.6875 C44.95288806 49.81583516 44.3283935 48.76957906 42 47 C41.34 47 40.68 47 40 47 C40 46.01 40 45.02 40 44 C39.01 44 38.02 44 37 44 C37 43.01 37 42.02 37 41 C35.18739868 38.77068176 35.18739868 38.77068176 33 37 C32.34 37 31.68 37 31 37 C30.505 35.515 30.505 35.515 30 34 C29.34 34 28.68 34 28 34 C27.505 32.515 27.505 32.515 27 31 C26.34 31 25.68 31 25 31 C24.505 29.515 24.505 29.515 24 28 C23.34 28 22.68 28 22 28 C21.505 26.515 21.505 26.515 21 25 C19.68732044 23.27056525 19.68732044 23.27056525 18 22 C17.01 22 16.02 22 15 22 C15 21.34 15 20.68 15 20 C13.23042094 17.6716065 12.18416484 17.04711194 9.3125 16.3125 C8.549375 16.209375 7.78625 16.10625 7 16 C7 15.34 7 14.68 7 14 C6.01 13.67 5.02 13.34 4 13 C3.67 12.34 3.34 11.68 3 11 C-0.02934491 10.34227572 -0.02934491 10.34227572 -3 10 C-3 9.34 -3 8.68 -3 8 C-6.3 8 -9.6 8 -13 8 Z " fill="#2E2E2F" transform="translate(259,69)"/>
<path d="M0 0 C2.64 0 5.28 0 8 0 C8.495 3.96 8.495 3.96 9 8 C9.66 8 10.32 8 11 8 C11.08172936 10.5215021 11.14083373 13.04029917 11.1875 15.5625 C11.21263672 16.26697266 11.23777344 16.97144531 11.26367188 17.69726562 C11.3499268 23.93637198 10.06391971 28.56082216 5.9375 33.4375 C4 35 4 35 2 35 C2 35.66 2 36.32 2 37 C0.35 37.33 -1.3 37.66 -3 38 C-3 38.66 -3 39.32 -3 40 C-5.95664519 41.4783226 -8.74229737 41.06032783 -12 41 C-12 41.66 -12 42.32 -12 43 C-15.47325181 44.1577506 -18.36067448 44.06866652 -22 44 C-22 44.66 -22 45.32 -22 46 C-26.455 46.495 -26.455 46.495 -31 47 C-31 47.66 -31 48.32 -31 49 C-31.71285156 49.12117188 -32.42570312 49.24234375 -33.16015625 49.3671875 C-39.63829691 50.490363 -39.63829691 50.490363 -46 52.125 C-49 53 -49 53 -52 53 C-52 53.66 -52 54.32 -52 55 C-59.26 55 -66.52 55 -74 55 C-74.33 54.34 -74.66 53.68 -75 53 C-75.99 52.67 -76.98 52.34 -78 52 C-78 51.34 -78 50.68 -78 50 C-79.65 49.67 -81.3 49.34 -83 49 C-83.33 47.35 -83.66 45.7 -84 44 C-84.99 43.67 -85.98 43.34 -87 43 C-87 41.02 -87 39.04 -87 37 C-87.66 37 -88.32 37 -89 37 C-89.33 33.7 -89.66 30.4 -90 27 C-83.72912263 23.28392452 -79.24539726 22.46550348 -72 23 C-72 25.31 -72 27.62 -72 30 C-71.34 30 -70.68 30 -70 30 C-69.67 31.65 -69.34 33.3 -69 35 C-63.72 35 -58.44 35 -53 35 C-53 34.34 -53 33.68 -53 33 C-52.25234375 32.87882812 -51.5046875 32.75765625 -50.734375 32.6328125 C-49.74953125 32.46523438 -48.7646875 32.29765625 -47.75 32.125 C-46.77546875 31.96257812 -45.8009375 31.80015625 -44.796875 31.6328125 C-42.04452095 31.12992091 -42.04452095 31.12992091 -39.90625 29.9375 C-37.68372771 28.84445625 -36.207786 28.7930738 -33.75 28.875 C-32.5125 28.91625 -31.275 28.9575 -30 29 C-30 28.34 -30 27.68 -30 27 C-26.52674819 25.8422494 -23.63932552 25.93133348 -20 26 C-20 25.34 -20 24.68 -20 24 C-19.43410156 23.87882812 -18.86820312 23.75765625 -18.28515625 23.6328125 C-17.55167969 23.46523438 -16.81820312 23.29765625 -16.0625 23.125 C-14.96615234 22.88136719 -14.96615234 22.88136719 -13.84765625 22.6328125 C-11.79299706 22.17038477 -11.79299706 22.17038477 -11 20 C-10.34 20 -9.68 20 -9 20 C-9 15.71 -9 11.42 -9 7 C-9.66 7 -10.32 7 -11 7 C-10.2890625 5.046875 -10.2890625 5.046875 -9 3 C-6.8359375 2.390625 -6.8359375 2.390625 -4.375 2.25 C-3.55773437 2.19328125 -2.74046875 2.1365625 -1.8984375 2.078125 C-0.95871094 2.03945313 -0.95871094 2.03945313 0 2 C0 1.34 0 0.68 0 0 Z " fill="#292929" transform="translate(187,324)"/>
<path d="M0 0 C0.99 0.33 1.98 0.66 3 1 C3 2.32 3 3.64 3 5 C2.34 5 1.68 5 1 5 C0.566875 6.11375 0.566875 6.11375 0.125 7.25 C-0.82302644 9.56739797 -1.84845911 11.77917115 -3 14 C-3.99 14 -4.98 14 -6 14 C-6 14.99 -6 15.98 -6 17 C-6.66 17 -7.32 17 -8 17 C-8.185625 18.2065625 -8.185625 18.2065625 -8.375 19.4375 C-8.58125 20.283125 -8.7875 21.12875 -9 22 C-9.99 22.495 -9.99 22.495 -11 23 C-11.495 24.485 -11.495 24.485 -12 26 C-12.66 26 -13.32 26 -14 26 C-14.185625 27.175625 -14.185625 27.175625 -14.375 28.375 C-15 31 -15 31 -17 33 C-17 33.66 -17 34.32 -17 35 C-15.01432292 34.96744792 -13.02864583 34.93489583 -11.04296875 34.90234375 C-9 35 -9 35 -6 36 C-5.505 38.475 -5.505 38.475 -5 41 C-5.99 41 -6.98 41 -8 41 C-8.33 41.99 -8.66 42.98 -9 44 C-9.99 44 -10.98 44 -12 44 C-12 44.99 -12 45.98 -12 47 C-12.99 47 -13.98 47 -15 47 C-15 47.66 -15 48.32 -15 49 C-17.475 49.495 -17.475 49.495 -20 50 C-20.33 50.99 -20.66 51.98 -21 53 C-21.66 53 -22.32 53 -23 53 C-23 53.66 -23 54.32 -23 55 C-24.98 55.495 -24.98 55.495 -27 56 C-27 56.66 -27 57.32 -27 58 C-29.475 58.495 -29.475 58.495 -32 59 C-32 59.66 -32 60.32 -32 61 C-32.99 61 -33.98 61 -35 61 C-35 61.99 -35 62.98 -35 64 C-36.485 64.495 -36.485 64.495 -38 65 C-38.804375 65.825 -39.60875 66.65 -40.4375 67.5 C-42.83695476 69.84093148 -43.77134114 70.64126013 -47 71 C-47 71.66 -47 72.32 -47 73 C-48.65 73 -50.3 73 -52 73 C-52 72.34 -52 71.68 -52 71 C-51.34 71 -50.68 71 -50 71 C-49.896875 70.2575 -49.79375 69.515 -49.6875 68.75 C-48.95066203 65.8026481 -48.05200858 64.21616926 -46 62 C-45.34 62 -44.68 62 -44 62 C-43.67 60.35 -43.34 58.7 -43 57 C-42.34 57 -41.68 57 -41 57 C-40.67 55.68 -40.34 54.36 -40 53 C-39.34 53 -38.68 53 -38 53 C-37.67 51.35 -37.34 49.7 -37 48 C-36.34 48 -35.68 48 -35 48 C-34.67 46.68 -34.34 45.36 -34 44 C-33.34 44 -32.68 44 -32 44 C-32 43.34 -32 42.68 -32 42 C-34.97 41.34 -37.94 40.68 -41 40 C-41 39.34 -41 38.68 -41 38 C-41.99 38 -42.98 38 -44 38 C-43.67 36.35 -43.34 34.7 -43 33 C-40.525 32.505 -40.525 32.505 -38 32 C-38 31.01 -38 30.02 -38 29 C-37.01 29 -36.02 29 -35 29 C-34.67 28.01 -34.34 27.02 -34 26 C-33.01 26 -32.02 26 -31 26 C-31 25.34 -31 24.68 -31 24 C-26.64705882 20 -26.64705882 20 -23 20 C-23 19.34 -23 18.68 -23 18 C-22.01 18 -21.02 18 -20 18 C-20 17.01 -20 16.02 -20 15 C-19.01 14.67 -18.02 14.34 -17 14 C-16.505 13.484375 -16.01 12.96875 -15.5 12.4375 C-14 11 -14 11 -11 11 C-10.67 10.01 -10.34 9.02 -10 8 C-9.34 8 -8.68 8 -8 8 C-8 7.34 -8 6.68 -8 6 C-7.01 6 -6.02 6 -5 6 C-4.67 5.01 -4.34 4.02 -4 3 C-2.125 1.25 -2.125 1.25 0 0 Z " fill="#282829" transform="translate(405,66)"/>
<path d="M0 0 C6.40659341 0.6043956 6.40659341 0.6043956 8.875 2.25 C10.29035995 4.45167104 10.65198447 6.42468508 11 9 C11.99 9.33 12.98 9.66 14 10 C14 10.99 14 11.98 14 13 C14.66 13 15.32 13 16 13 C16.33 14.65 16.66 16.3 17 18 C17.99 18.33 18.98 18.66 20 19 C20 19.99 20 20.98 20 22 C20.66 22 21.32 22 22 22 C22.33 23.65 22.66 25.3 23 27 C23.66 27 24.32 27 25 27 C25 27.99 25 28.98 25 30 C25.99 30.33 26.98 30.66 28 31 C30.48776943 34.45703024 32.10622633 37.72528401 31.75 42 C31.5025 42.66 31.255 43.32 31 44 C28.03 44.495 28.03 44.495 25 45 C25 45.66 25 46.32 25 47 C20.71 47 16.42 47 12 47 C12 46.34 12 45.68 12 45 C8.535 44.505 8.535 44.505 5 44 C5 43.34 5 42.68 5 42 C4.01 42 3.02 42 2 42 C2 41.01 2 40.02 2 39 C1.01 39 0.02 39 -1 39 C-1 38.01 -1 37.02 -1 36 C-1.99 35.67 -2.98 35.34 -4 35 C-4 34.01 -4 33.02 -4 32 C-4.66 32 -5.32 32 -6 32 C-6.94137255 29.17588235 -7.11725382 27.47081968 -7.09765625 24.55078125 C-7.09443359 23.70322266 -7.09121094 22.85566406 -7.08789062 21.98242188 C-7.07951172 21.10134766 -7.07113281 20.22027344 -7.0625 19.3125 C-7.05798828 18.41982422 -7.05347656 17.52714844 -7.04882812 16.60742188 C-7.03704983 14.40488013 -7.02060164 12.20247401 -7 10 C-6.01 9.67 -5.02 9.34 -4 9 C-4 7.35 -4 5.7 -4 4 C-3.01 4 -2.02 4 -1 4 C-0.67 2.68 -0.34 1.36 0 0 Z " fill="#282728" transform="translate(29,314)"/>
<path d="M0 0 C0.98484375 0.00902344 1.9696875 0.01804688 2.984375 0.02734375 C4.10585938 0.04474609 4.10585938 0.04474609 5.25 0.0625 C5.25 1.0525 5.25 2.0425 5.25 3.0625 C4.280625 3.51625 3.31125 3.97 2.3125 4.4375 C-0.82079582 5.72036221 -0.82079582 5.72036221 -1.75 8.0625 C-4.3125 8.6875 -4.3125 8.6875 -6.75 9.0625 C-6.75 9.7225 -6.75 10.3825 -6.75 11.0625 C-8.73 11.3925 -10.71 11.7225 -12.75 12.0625 C-12.75 12.7225 -12.75 13.3825 -12.75 14.0625 C-14.07 14.3925 -15.39 14.7225 -16.75 15.0625 C-16.75 15.7225 -16.75 16.3825 -16.75 17.0625 C-17.74 17.0625 -18.73 17.0625 -19.75 17.0625 C-19.48323796 19.04741642 -19.48323796 19.04741642 -18.75 21.0625 C-17.76 21.3925 -16.77 21.7225 -15.75 22.0625 C-15.75 22.7225 -15.75 23.3825 -15.75 24.0625 C-15.110625 24.31 -14.47125 24.5575 -13.8125 24.8125 C-11.75 26.0625 -11.75 26.0625 -11 28.1875 C-10.9175 28.80625 -10.835 29.425 -10.75 30.0625 C-12.4 30.0625 -14.05 30.0625 -15.75 30.0625 C-15.75 30.7225 -15.75 31.3825 -15.75 32.0625 C-20.7 32.3925 -25.65 32.7225 -30.75 33.0625 C-30.75 33.7225 -30.75 34.3825 -30.75 35.0625 C-35.7 35.3925 -40.65 35.7225 -45.75 36.0625 C-45.75 36.7225 -45.75 37.3825 -45.75 38.0625 C-47.24853516 38.26166016 -47.24853516 38.26166016 -48.77734375 38.46484375 C-50.06769531 38.64144531 -51.35804688 38.81804687 -52.6875 39 C-53.97527344 39.17402344 -55.26304687 39.34804687 -56.58984375 39.52734375 C-59.60466313 39.72412423 -59.60466313 39.72412423 -60.75 41.0625 C-62.74958364 41.10330783 -64.75045254 41.10504356 -66.75 41.0625 C-66.75 39.7425 -66.75 38.4225 -66.75 37.0625 C-64.77 36.5675 -64.77 36.5675 -62.75 36.0625 C-62.75 35.4025 -62.75 34.7425 -62.75 34.0625 C-60.275 33.5675 -60.275 33.5675 -57.75 33.0625 C-57.75 32.4025 -57.75 31.7425 -57.75 31.0625 C-55.77 30.7325 -53.79 30.4025 -51.75 30.0625 C-51.75 29.4025 -51.75 28.7425 -51.75 28.0625 C-51.11191406 27.79695313 -50.47382813 27.53140625 -49.81640625 27.2578125 C-48.99011719 26.90460938 -48.16382813 26.55140625 -47.3125 26.1875 C-46.48878906 25.83945313 -45.66507812 25.49140625 -44.81640625 25.1328125 C-42.59253285 24.2380063 -42.59253285 24.2380063 -41.75 22.0625 C-39.6875 21.4375 -39.6875 21.4375 -37.75 21.0625 C-38.41 20.7325 -39.07 20.4025 -39.75 20.0625 C-39.75 19.0725 -39.75 18.0825 -39.75 17.0625 C-40.74 17.0625 -41.73 17.0625 -42.75 17.0625 C-47.75 11.71366279 -47.75 11.71366279 -47.75 9.0625 C-46.6775 8.93875 -45.605 8.815 -44.5 8.6875 C-40.95661078 8.30127821 -40.95661078 8.30127821 -38.85546875 7.0546875 C-36.27180763 5.83715517 -34.15650575 5.72028118 -31.3125 5.5625 C-28.31586022 5.39578847 -26.04988771 5.18603865 -23.265625 4.0390625 C-20.3247024 2.8974 -18.07887018 2.86180433 -14.9375 2.9375 C-13.47376953 2.96457031 -13.47376953 2.96457031 -11.98046875 2.9921875 C-11.24441406 3.01539063 -10.50835937 3.03859375 -9.75 3.0625 C-9.75 2.4025 -9.75 1.7425 -9.75 1.0625 C-6.43929162 0.06140485 -3.44915231 -0.04106134 0 0 Z " fill="#2B2B2C" transform="translate(439.75,133.9375)"/>
<path d="M0 0 C1.134375 0.020625 2.26875 0.04125 3.4375 0.0625 C3.4375 0.7225 3.4375 1.3825 3.4375 2.0625 C4.736875 2.18625 6.03625 2.31 7.375 2.4375 C9.58984375 2.6484375 9.58984375 2.6484375 11.4375 3.0625 C11.9325 4.0525 11.9325 4.0525 12.4375 5.0625 C14.96483235 5.71805119 14.96483235 5.71805119 17.4375 6.0625 C17.4375 6.7225 17.4375 7.3825 17.4375 8.0625 C19.7475 8.3925 22.0575 8.7225 24.4375 9.0625 C24.4375 9.7225 24.4375 10.3825 24.4375 11.0625 C25.2625 11.165625 26.0875 11.26875 26.9375 11.375 C29.63423354 11.90471552 32.14098388 12.4804354 34.75 13.3125 C35.42675781 13.52390625 36.10351562 13.7353125 36.80078125 13.953125 C38.4375 15.0625 38.4375 15.0625 39.4375 20.0625 C33.4975 19.7325 27.5575 19.4025 21.4375 19.0625 C21.4375 18.4025 21.4375 17.7425 21.4375 17.0625 C19.1275 17.0625 16.8175 17.0625 14.4375 17.0625 C14.9325 20.5275 14.9325 20.5275 15.4375 24.0625 C16.0975 24.0625 16.7575 24.0625 17.4375 24.0625 C17.4375 25.3825 17.4375 26.7025 17.4375 28.0625 C14.30400268 29.10699911 13.44781744 28.99673645 10.4375 28.0625 C10.4375 27.4025 10.4375 26.7425 10.4375 26.0625 C8.1275 25.7325 5.8175 25.4025 3.4375 25.0625 C3.4375 24.4025 3.4375 23.7425 3.4375 23.0625 C2.261875 22.959375 1.08625 22.85625 -0.125 22.75 C-4.38735903 22.23335042 -7.70337534 20.9116639 -11.5625 19.0625 C-11.5625 18.4025 -11.5625 17.7425 -11.5625 17.0625 C-14.5325 16.7325 -17.5025 16.4025 -20.5625 16.0625 C-20.5625 15.4025 -20.5625 14.7425 -20.5625 14.0625 C-22.2125 13.7325 -23.8625 13.4025 -25.5625 13.0625 C-25.5625 12.4025 -25.5625 11.7425 -25.5625 11.0625 C-17.6425 11.0625 -9.7225 11.0625 -1.5625 11.0625 C-3.0475 6.1125 -3.0475 6.1125 -4.5625 1.0625 C-3.5625 0.0625 -3.5625 0.0625 0 0 Z " fill="#242324" transform="translate(411.5625,197.9375)"/>
<path d="M0 0 C1.98 0.66 3.96 1.32 6 2 C6 2.66 6 3.32 6 4 C7.65 4.33 9.3 4.66 11 5 C10.67 6.65 10.34 8.3 10 10 C10.99 10.33 11.98 10.66 13 11 C12.34 12.32 11.68 13.64 11 15 C9.35 15 7.7 15 6 15 C6 14.34 6 13.68 6 13 C5.01 12.67 4.02 12.34 3 12 C3 11.34 3 10.68 3 10 C1.35 9.67 -0.3 9.34 -2 9 C-2 8.34 -2 7.68 -2 7 C-0.02 6.67 1.96 6.34 4 6 C4.2284549 3.75637427 4.2284549 3.75637427 2 1.875 C1.34 1.25625 0.68 0.6375 0 0 Z " fill="#403F40" transform="translate(268,76)"/>
<path d="M0 0 C1.134375 0.020625 2.26875 0.04125 3.4375 0.0625 C3.4375 0.7225 3.4375 1.3825 3.4375 2.0625 C1.7875 2.0625 0.1375 2.0625 -1.5625 2.0625 C-1.3459375 2.68898437 -1.129375 3.31546875 -0.90625 3.9609375 C-0.6278125 4.77820313 -0.349375 5.59546875 -0.0625 6.4375 C0.2159375 7.24960938 0.494375 8.06171875 0.78125 8.8984375 C1.4375 11.0625 1.4375 11.0625 1.4375 13.0625 C-2.68713416 13.25872046 -6.81221573 13.44300216 -10.9375 13.625 C-12.113125 13.68107422 -13.28875 13.73714844 -14.5 13.79492188 C-15.62148438 13.84326172 -16.74296875 13.89160156 -17.8984375 13.94140625 C-18.93532715 13.9885376 -19.9722168 14.03566895 -21.04052734 14.08422852 C-23.5625 14.0625 -23.5625 14.0625 -25.5625 13.0625 C-25.5625 12.4025 -25.5625 11.7425 -25.5625 11.0625 C-17.6425 11.0625 -9.7225 11.0625 -1.5625 11.0625 C-3.0475 6.1125 -3.0475 6.1125 -4.5625 1.0625 C-3.5625 0.0625 -3.5625 0.0625 0 0 Z " fill="#888788" transform="translate(411.5625,197.9375)"/>
<path d="M0 0 C0.98484375 0.00902344 1.9696875 0.01804688 2.984375 0.02734375 C4.10585938 0.04474609 4.10585938 0.04474609 5.25 0.0625 C5.25 1.0525 5.25 2.0425 5.25 3.0625 C1.29 5.0425 1.29 5.0425 -2.75 7.0625 C-3.41 6.4025 -4.07 5.7425 -4.75 5.0625 C-7.17130331 3.85184835 -8.23293659 4.11647467 -10.875 4.5 C-12.793125 4.7784375 -12.793125 4.7784375 -14.75 5.0625 C-14.42 4.4025 -14.09 3.7425 -13.75 3.0625 C-12.43 3.0625 -11.11 3.0625 -9.75 3.0625 C-9.75 2.4025 -9.75 1.7425 -9.75 1.0625 C-6.43929162 0.06140485 -3.44915231 -0.04106134 0 0 Z " fill="#3A393A" transform="translate(439.75,133.9375)"/>
<path d="M0 0 C3.465 1.485 3.465 1.485 7 3 C7 3.99 7 4.98 7 6 C7.99 6.66 8.98 7.32 10 8 C9.67 8.99 9.34 9.98 9 11 C6.05610218 12.17755913 5.10046087 12.03348696 2 11 C1.4375 9.0625 1.4375 9.0625 1 7 C0.34 6.34 -0.32 5.68 -1 5 C-0.625 2.375 -0.625 2.375 0 0 Z " fill="#302F31" transform="translate(263,72)"/>
<path d="M0 0 C2.64 0.66 5.28 1.32 8 2 C8.33 3.65 8.66 5.3 9 7 C3.06 6.67 -2.88 6.34 -9 6 C-9 5.34 -9 4.68 -9 4 C-5.7 3.67 -2.4 3.34 1 3 C0.67 2.01 0.34 1.02 0 0 Z " fill="#636061" transform="translate(442,211)"/>
<path d="M0 0 C-1.46519774 2.54140493 -2.95224699 4.88875077 -5 7 C-8.3125 7.4375 -8.3125 7.4375 -11 7 C-11 5.68 -11 4.36 -11 3 C-9.68 2.67 -8.36 2.34 -7 2 C-7 1.34 -7 0.68 -7 0 C-3.86650268 -1.04449911 -3.01031744 -0.93423645 0 0 Z " fill="#282522" transform="translate(384,168)"/>
<path d="M0 0 C0.99 0 1.98 0 3 0 C3.02691685 2.45840605 3.04679802 4.91651882 3.0625 7.375 C3.07087891 8.07367188 3.07925781 8.77234375 3.08789062 9.4921875 C3.11328125 14.7734375 3.11328125 14.7734375 2 17 C1.34 17 0.68 17 0 17 C0 11.39 0 5.78 0 0 Z " fill="#131313" transform="translate(22,326)"/>
<path d="M0 0 C0.99 0.33 1.98 0.66 3 1 C3 6.61 3 12.22 3 18 C0 15 0 15 -0.29296875 11.42578125 C-0.27309338 10.05438087 -0.23741111 8.68313595 -0.1875 7.3125 C-0.17396484 6.61060547 -0.16042969 5.90871094 -0.14648438 5.18554688 C-0.11120182 3.45670171 -0.05739583 1.72825235 0 0 Z " fill="#1D1C1D" transform="translate(360,236)"/>
<path d="M0 0 C0.33 0.66 0.66 1.32 1 2 C1.66 2 2.32 2 3 2 C3 6.29 3 10.58 3 15 C2.01 15 1.02 15 0 15 C0 10.05 0 5.1 0 0 Z " fill="#1E1E1E" transform="translate(373,243)"/>
<path d="M0 0 C0.66 0.33 1.32 0.66 2 1 C-0.63332789 6.59582176 -5.54357305 10.27178652 -11 13 C-9.5 10 -9.5 10 -8 7 C-7.34 7 -6.68 7 -6 7 C-5.7525 6.401875 -5.505 5.80375 -5.25 5.1875 C-3.83629988 2.71352479 -2.34944617 1.56629745 0 0 Z " fill="#42403E" transform="translate(58,283)"/>
<path d="M0 0 C4.29 0 8.58 0 13 0 C12.01 0.33 11.02 0.66 10 1 C10 1.66 10 2.32 10 3 C10.66 3.33 11.32 3.66 12 4 C3.73913043 4.15886288 3.73913043 4.15886288 1 3 C0.67 2.01 0.34 1.02 0 0 Z " fill="#302F30" transform="translate(390,211)"/>
<path d="M0 0 C1.32 0 2.64 0 4 0 C4.28571429 7.42857143 4.28571429 7.42857143 2 11 C1.34 11 0.68 11 0 11 C-0.19406478 9.35492782 -0.38007935 7.70890406 -0.5625 6.0625 C-0.66691406 5.14597656 -0.77132812 4.22945313 -0.87890625 3.28515625 C-0.91886719 2.53105469 -0.95882812 1.77695312 -1 1 C-0.67 0.67 -0.34 0.34 0 0 Z " fill="#434243" transform="translate(98,350)"/>
<path d="M0 0 C0.66 0.33 1.32 0.66 2 1 C-0.30718811 5.28477792 -2.32966073 8.72291137 -6 12 C-6.99 11.67 -7.98 11.34 -9 11 C-8.525625 10.566875 -8.05125 10.13375 -7.5625 9.6875 C-5.76313043 7.97690387 -5.76313043 7.97690387 -5 5 C-4.34 5 -3.68 5 -3 5 C-2.67 4.01 -2.34 3.02 -2 2 C-1.34 2 -0.68 2 0 2 C0 1.34 0 0.68 0 0 Z " fill="#373435" transform="translate(67,270)"/>
<path d="M0 0 C5.61 0 11.22 0 17 0 C17 0.66 17 1.32 17 2 C14.54203147 2.19436491 12.08390706 2.3807742 9.625 2.5625 C8.92632812 2.61857422 8.22765625 2.67464844 7.5078125 2.73242188 C2.2265625 3.11328125 2.2265625 3.11328125 0 2 C0 1.34 0 0.68 0 0 Z " fill="#5C5A59" transform="translate(386,209)"/>
<path d="M0 0 C0.33 1.32 0.66 2.64 1 4 C2.98 3.01 4.96 2.02 7 1 C6.25 2.9375 6.25 2.9375 5 5 C2.875 5.75 2.875 5.75 1 6 C1 6.66 1 7.32 1 8 C-0.65 8 -2.3 8 -4 8 C-4 7.34 -4 6.68 -4 6 C-3.34 6 -2.68 6 -2 6 C-1.855625 5.195625 -1.71125 4.39125 -1.5625 3.5625 C-1 1 -1 1 0 0 Z " fill="#686765" transform="translate(357,131)"/>
<path d="M0 0 C0.99 0.33 1.98 0.66 3 1 C3 2.32 3 3.64 3 5 C2.34 5 1.68 5 1 5 C0.34 6.65 -0.32 8.3 -1 10 C-1.99 10 -2.98 10 -4 10 C-3.01 8.35 -2.02 6.7 -1 5 C-2.32 4.67 -3.64 4.34 -5 4 C-2.6875 1.9375 -2.6875 1.9375 0 0 Z " fill="#949291" transform="translate(405,66)"/>
<path d="M0 0 C0.25 2.3125 0.25 2.3125 0 5 C-1.6875 6.625 -1.6875 6.625 -4 8 C-4.9075 8.556875 -5.815 9.11375 -6.75 9.6875 C-7.4925 10.120625 -8.235 10.55375 -9 11 C-8.4409112 7.75728494 -7.5867822 6.06942576 -5 4 C-4.34 4 -3.68 4 -3 4 C-3 3.01 -3 2.02 -3 1 C-1 0 -1 0 0 0 Z " fill="#555453" transform="translate(124,203)"/>
<path d="M0 0 C0.66 1.32 1.32 2.64 2 4 C-1.63 4 -5.26 4 -9 4 C-9 3.01 -9 2.02 -9 1 C-5.8035914 -0.06546953 -3.34252724 -0.07427838 0 0 Z " fill="#111111" transform="translate(248,66)"/>
<path d="M0 0 C5.03681497 3.07122864 8.94510767 6.72916666 13 11 C8.68381834 11 7.07210341 8.86729652 4 6 C4 5.34 4 4.68 4 4 C2.68 3.34 1.36 2.68 0 2 C0 1.34 0 0.68 0 0 Z " fill="#807C7A" transform="translate(309,246)"/>
<path d="M0 0 C3.39859703 1.46966358 5.64963709 3.38037514 8.25 6 C8.95640625 6.70125 9.6628125 7.4025 10.390625 8.125 C12 10 12 10 12 12 C8.24980832 10.74993611 7.42481772 9.06668123 5 6 C4.0925 5.278125 3.185 4.55625 2.25 3.8125 C1.5075 3.214375 0.765 2.61625 0 2 C0 1.34 0 0.68 0 0 Z " fill="#857F7F" transform="translate(284,98)"/>
<path d="M0 0 C0.33 0.99 0.66 1.98 1 3 C1.66 3 2.32 3 3 3 C3 4.32 3 5.64 3 7 C-0.13349732 8.04449911 -0.98968256 7.93423645 -4 7 C-4 6.34 -4 5.68 -4 5 C-3.01 5 -2.02 5 -1 5 C-0.67 3.35 -0.34 1.7 0 0 Z " fill="#696769" transform="translate(426,219)"/>
<path d="M0 0 C1.134375 0.020625 2.26875 0.04125 3.4375 0.0625 C3.4375 0.7225 3.4375 1.3825 3.4375 2.0625 C1.7875 2.0625 0.1375 2.0625 -1.5625 2.0625 C-0.9025 4.0425 -0.2425 6.0225 0.4375 8.0625 C-0.5525 7.7325 -1.5425 7.4025 -2.5625 7.0625 C-3.75 4 -3.75 4 -4.5625 1.0625 C-3.5625 0.0625 -3.5625 0.0625 0 0 Z " fill="#5C595A" transform="translate(411.5625,197.9375)"/>
<path d="M0 0 C-0.33 0.99 -0.66 1.98 -1 3 C-3.97 3 -6.94 3 -10 3 C-10 2.34 -10 1.68 -10 1 C-6.52674819 -0.1577506 -3.63932552 -0.06866652 0 0 Z " fill="#252425" transform="translate(425,163)"/>
<path d="M0 0 C0.33 0.66 0.66 1.32 1 2 C1.66 2 2.32 2 3 2 C3 2.66 3 3.32 3 4 C4.32 4.66 5.64 5.32 7 6 C7 6.66 7 7.32 7 8 C5.35 7.67 3.7 7.34 2 7 C2 6.01 2 5.02 2 4 C1.01 3.67 0.02 3.34 -1 3 C-0.67 2.01 -0.34 1.02 0 0 Z " fill="#161415" transform="translate(26,346)"/>
<path d="M0 0 C2.475 0.495 2.475 0.495 5 1 C5.33 2.65 5.66 4.3 6 6 C4.35 6 2.7 6 1 6 C1.33 4.68 1.66 3.36 2 2 C1.34 2 0.68 2 0 2 C0 1.34 0 0.68 0 0 Z " fill="#413E3D" transform="translate(394,101)"/>
<path d="M0 0 C2.64 0.33 5.28 0.66 8 1 C8.33 2.65 8.66 4.3 9 6 C8.01 5.67 7.02 5.34 6 5 C6 4.34 6 3.68 6 3 C3.03 2.505 3.03 2.505 0 2 C0 1.34 0 0.68 0 0 Z " fill="#6D6D6A" transform="translate(256,77)"/>
<path d="M0 0 C1.32 0 2.64 0 4 0 C4.66 2.64 5.32 5.28 6 8 C5.34 8 4.68 8 4 8 C4 7.34 4 6.68 4 6 C3.34 6 2.68 6 2 6 C1.34 4.02 0.68 2.04 0 0 Z " fill="#121012" transform="translate(39,311)"/>
<path d="M0 0 C2.97 0.495 2.97 0.495 6 1 C6.33 2.32 6.66 3.64 7 5 C5.68 5.33 4.36 5.66 3 6 C3 5.01 3 4.02 3 3 C1.68 2.67 0.36 2.34 -1 2 C-0.67 1.34 -0.34 0.68 0 0 Z " fill="#131215" transform="translate(423,203)"/>
<path d="M0 0 C3.625 -0.1875 3.625 -0.1875 7 0 C6.67 0.99 6.34 1.98 6 3 C3.36 3 0.72 3 -2 3 C-1.34 2.01 -0.68 1.02 0 0 Z " fill="#19181A" transform="translate(407,140)"/>
<path d="M0 0 C-0.33 0.99 -0.66 1.98 -1 3 C-3.94389782 4.17755913 -4.89953913 4.03348696 -8 3 C-6.14481495 -0.71037009 -3.79223618 -1.26407873 0 0 Z " fill="#1E1C1E" transform="translate(273,80)"/>
<path d="M0 0 C1.32 0.33 2.64 0.66 4 1 C4.625 2.875 4.625 2.875 5 5 C4.34 5.66 3.68 6.32 3 7 C2.01 6.67 1.02 6.34 0 6 C0 4 0 2 0 0 Z " fill="#151416" transform="translate(259,71)"/>
<path d="M0 0 C0.66 0 1.32 0 2 0 C2 0.99 2 1.98 2 3 C1.34 3 0.68 3 0 3 C-0.33 4.65 -0.66 6.3 -1 8 C-1.66 8 -2.32 8 -3 8 C-3 6.35 -3 4.7 -3 3 C-2.34 3 -1.68 3 -1 3 C-0.67 2.01 -0.34 1.02 0 0 Z " fill="#111012" transform="translate(41,302)"/>
<path d="M0 0 C0 1.65 0 3.3 0 5 C-0.66 5 -1.32 5 -2 5 C-2.33 4.34 -2.66 3.68 -3 3 C-3.99 3.99 -4.98 4.98 -6 6 C-5.625 3.5625 -5.625 3.5625 -5 1 C-3 0 -3 0 0 0 Z " fill="#494445" transform="translate(367,98)"/>
<path d="M0 0 C0.33 0.66 0.66 1.32 1 2 C1.66 2 2.32 2 3 2 C2.67 3.98 2.34 5.96 2 8 C0.68 8.33 -0.64 8.66 -2 9 C-1.34 6.03 -0.68 3.06 0 0 Z " fill="#666261" transform="translate(193,347)"/>
<path d="M0 0 C0.99 0 1.98 0 3 0 C3.33 0.99 3.66 1.98 4 3 C4.99 3.66 5.98 4.32 7 5 C4.69 5 2.38 5 0 5 C0 3.35 0 1.7 0 0 Z " fill="#0D0A0D" transform="translate(439,210)"/>
<path d="M0 0 C0.66 0.33 1.32 0.66 2 1 C1.67 1.33 1.34 1.66 1 2 C2.32 2.66 3.64 3.32 5 4 C4 5 4 5 0.9375 5.0625 C-0.5165625 5.0315625 -0.5165625 5.0315625 -2 5 C-2 3.68 -2 2.36 -2 1 C-1.34 0.67 -0.68 0.34 0 0 Z " fill="#A3A1A0" transform="translate(375,170)"/>
<path d="M0 0 C0.66 0.33 1.32 0.66 2 1 C1.34 2.32 0.68 3.64 0 5 C-1.98 4.34 -3.96 3.68 -6 3 C-3 1 -3 1 0 0 Z " fill="#100F10" transform="translate(403,70)"/>
<path d="M0 0 C2.97 0 5.94 0 9 0 C8.67 0.66 8.34 1.32 8 2 C5.35139573 2.59355614 2.70802678 2.74209269 0 3 C0 2.01 0 1.02 0 0 Z " fill="#787674" transform="translate(236,305)"/>
<path d="M0 0 C0.66 0 1.32 0 2 0 C4.04169485 2.90548882 5 4.40142046 5 8 C4.34 8 3.68 8 3 8 C3 7.34 3 6.68 3 6 C2.34 6 1.68 6 1 6 C0.67 4.02 0.34 2.04 0 0 Z " fill="#403B3B" transform="translate(298,110)"/>
<path d="M0 0 C0.66 0 1.32 0 2 0 C0.52307692 5.66153846 0.52307692 5.66153846 -2.125 7.375 C-3.053125 7.684375 -3.053125 7.684375 -4 8 C-4 5 -4 5 -2.5625 3.4375 C-2.046875 2.963125 -1.53125 2.48875 -1 2 C-0.67 1.34 -0.34 0.68 0 0 Z " fill="#5E5958" transform="translate(74,261)"/>
<path d="M0 0 C1.65 0 3.3 0 5 0 C5 1.98 5 3.96 5 6 C4.01 5.67 3.02 5.34 2 5 C0.8125 2.4375 0.8125 2.4375 0 0 Z " fill="#7F7D7C" transform="translate(392,143)"/>
<path d="M0 0 C0.66 0.33 1.32 0.66 2 1 C-1.465 3.97 -1.465 3.97 -5 7 C-5 6.01 -5 5.02 -5 4 C-4.34 4 -3.68 4 -3 4 C-3 3.01 -3 2.02 -3 1 C-2.01 0.67 -1.02 0.34 0 0 Z " fill="#363437" transform="translate(212,97)"/>
<path d="M0 0 C0.99 0.33 1.98 0.66 3 1 C2.34 2.65 1.68 4.3 1 6 C0.34 6 -0.32 6 -1 6 C-1.042721 4.33388095 -1.04063832 2.66617115 -1 1 C-0.67 0.67 -0.34 0.34 0 0 Z " fill="#3E3D3A" transform="translate(360,253)"/>
<path d="M0 0 C0.66 0.33 1.32 0.66 2 1 C1.3125 2.9375 1.3125 2.9375 0 5 C-2.625 5.75 -2.625 5.75 -5 6 C-4.01 5.67 -3.02 5.34 -2 5 C-1.33820153 3.01954441 -1.33820153 3.01954441 -1 1 C-0.67 0.67 -0.34 0.34 0 0 Z " fill="#292729" transform="translate(159,160)"/>
<path d="M0 0 C2.64 0 5.28 0 8 0 C8 0.66 8 1.32 8 2 C8.66 2.33 9.32 2.66 10 3 C3.375 2.25 3.375 2.25 0 0 Z " fill="#0B0C0C" transform="translate(386,101)"/>
<path d="M0 0 C-0.57344937 2.86724686 -0.8614515 3.8614515 -3 6 C-3.66 5.67 -4.32 5.34 -5 5 C-4.625 3.0625 -4.625 3.0625 -4 1 C-2 0 -2 0 0 0 Z " fill="#5B5858" transform="translate(381,86)"/>
</svg>
