<svg xmlns="http://www.w3.org/2000/svg" viewBox="0 0 500 500"><g id="freepik--background-complete--inject-146"><path d="M440.76,415c-.78-.32-1.12.94-.35,1.26a4.24,4.24,0,0,1,2.47,5.13.65.65,0,0,0,1.26.34A5.57,5.57,0,0,0,440.76,415Z" style="fill:#ebebeb"></path><path d="M446.48,413.79a10,10,0,0,0-.76,5.78c.13.82,1.39.47,1.26-.35a8.39,8.39,0,0,1,.63-4.77C447.94,413.69,446.82,413,446.48,413.79Z" style="fill:#ebebeb"></path><path d="M278.26,300.19c-.78-.32-1.11.94-.35,1.26a4.24,4.24,0,0,1,2.47,5.13.65.65,0,0,0,1.26.35A5.58,5.58,0,0,0,278.26,300.19Z" style="fill:#ebebeb"></path><path d="M284,299a10.07,10.07,0,0,0-.76,5.78c.13.82,1.39.47,1.26-.35a8.49,8.49,0,0,1,.63-4.77C285.44,298.87,284.32,298.2,284,299Z" style="fill:#ebebeb"></path><path d="M273.56,344.81c-.75-.39-1.41.73-.66,1.13a4,4,0,0,1,2.16,3.95c-.07.84,1.24.84,1.3,0A5.3,5.3,0,0,0,273.56,344.81Z" style="fill:#ebebeb"></path><path d="M111.17,324.07c-.74-.39-1.4.74-.66,1.13a4,4,0,0,1,2.16,3.95c-.06.84,1.24.84,1.31,0A5.29,5.29,0,0,0,111.17,324.07Z" style="fill:#ebebeb"></path><path d="M117.9,405.49c-.75-.39-1.41.74-.66,1.13a4,4,0,0,1,2.16,3.95c-.07.84,1.24.84,1.31,0A5.32,5.32,0,0,0,117.9,405.49Z" style="fill:#ebebeb"></path><path d="M121.79,403.45c-.4-.74-1.53-.08-1.13.66a10.33,10.33,0,0,1,1.23,5.58c0,.85,1.27.84,1.31,0A11.79,11.79,0,0,0,121.79,403.45Z" style="fill:#ebebeb"></path><path d="M124.82,404.32a6.81,6.81,0,0,0-.83,4.17c.1.82,1.41.83,1.3,0A5.63,5.63,0,0,1,126,405C126.35,404.24,125.22,403.58,124.82,404.32Z" style="fill:#ebebeb"></path><path d="M402.17,317.12c-.74-.39-1.4.73-.65,1.13a4,4,0,0,1,2.16,3.95c-.07.84,1.23.84,1.3,0A5.29,5.29,0,0,0,402.17,317.12Z" style="fill:#ebebeb"></path><path d="M406.06,315.08c-.39-.74-1.52-.09-1.12.66a10.51,10.51,0,0,1,1.23,5.58c0,.84,1.26.84,1.31,0A11.8,11.8,0,0,0,406.06,315.08Z" style="fill:#ebebeb"></path><path d="M409.09,315.94a6.92,6.92,0,0,0-.83,4.18c.1.82,1.41.83,1.31,0a5.73,5.73,0,0,1,.65-3.52C410.63,315.87,409.5,315.21,409.09,315.94Z" style="fill:#ebebeb"></path><path d="M166.77,467.3a.65.65,0,0,0-.65,1.13,5.33,5.33,0,0,1,2.62,4.93c0,.84,1.27.83,1.31,0A6.61,6.61,0,0,0,166.77,467.3Z" style="fill:#ebebeb"></path><path d="M171.56,470.43l-.45,2.63c-.14.82,1.12,1.18,1.26.35l.45-2.63C173,470,171.7,469.6,171.56,470.43Z" style="fill:#ebebeb"></path><path d="M145.55,292.16a.65.65,0,0,0-.66,1.12,5.31,5.31,0,0,1,2.62,4.93c0,.84,1.27.84,1.31,0A6.61,6.61,0,0,0,145.55,292.16Z" style="fill:#ebebeb"></path><path d="M150.33,295.28l-.45,2.63c-.14.83,1.12,1.18,1.26.35l.45-2.63C151.73,294.81,150.47,294.46,150.33,295.28Z" style="fill:#ebebeb"></path><path d="M49.68,436.78c-.64-.53-1.57.39-.92.93A6.09,6.09,0,0,1,51,442.82c-.05.84,1.26.84,1.3,0A7.32,7.32,0,0,0,49.68,436.78Z" style="fill:#ebebeb"></path><path d="M400.77,382.65c.64-.53,1.57.39.92.93a6.11,6.11,0,0,0-2.26,5.12c.05.84-1.26.83-1.3,0A7.32,7.32,0,0,1,400.77,382.65Z" style="fill:#ebebeb"></path><path d="M375.68,331.89c.64-.53,1.57.39.92.93a6.08,6.08,0,0,0-2.26,5.11c.05.85-1.26.84-1.31,0A7.33,7.33,0,0,1,375.68,331.89Z" style="fill:#ebebeb"></path><path d="M53.55,309.59c.64-.53,1.57.39.92.93a6.07,6.07,0,0,0-2.26,5.11c0,.84-1.26.84-1.31,0A7.31,7.31,0,0,1,53.55,309.59Z" style="fill:#ebebeb"></path><path d="M450.32,367.9c.64-.54,1.57.38.92.92a6.11,6.11,0,0,0-2.26,5.12c0,.84-1.26.83-1.3,0A7.29,7.29,0,0,1,450.32,367.9Z" style="fill:#ebebeb"></path><path d="M350.37,460.74a7.77,7.77,0,0,0-2.08,6.91c.15.83,1.41.48,1.26-.35a6.37,6.37,0,0,1,1.74-5.64C351.88,461.06,351,460.14,350.37,460.74Z" style="fill:#ebebeb"></path><path d="M345.61,461.46v4.38a.65.65,0,0,0,1.3,0v-4.38A.65.65,0,0,0,345.61,461.46Z" style="fill:#ebebeb"></path><path d="M352.6,462.84a4,4,0,0,0-1.85,3.55c0,.84,1.35.84,1.31,0a2.68,2.68,0,0,1,1.2-2.43C354,463.5,353.3,462.37,352.6,462.84Z" style="fill:#ebebeb"></path><path d="M44.43,284.33s12.45-9.11,34.61-20.6c14.4-7.47,36-13.61,60-14.51,21.3-.8,56,1.56,96.6,10,60.24,12.44,126.45,25.15,126.45,25.15Z" style="fill:#dbdbdb"></path><path d="M456,284.33s-39.66-32.1-85.79-35c-28.05-1.75-59.74,4.89-87.22,13.13-45.79,13.75-81.73,21.85-81.73,21.85Z" style="fill:#ebebeb"></path><g style="opacity:0.5"><path d="M374.92,284.33h19.86c10.15-2.08,20.28-4.37,30.32-6a142.75,142.75,0,0,1,20.26-1.6c-12.92-5.43-28.18-4.12-41.62-1.28A167.28,167.28,0,0,0,374.92,284.33Z" style="fill:#dbdbdb"></path><path d="M339.28,284.33h9.08c9.59-3.54,19.26-6.77,29.28-9.4a289.7,289.7,0,0,1,30.88-6.6,136.52,136.52,0,0,1,19.11-1.88h0l-.09,0c-15.32-4.83-36.69-2.16-52,2A124.42,124.42,0,0,0,339.28,284.33Z" style="fill:#dbdbdb"></path><path d="M302.18,284.33h6.93c3.89-1.71,7.77-3.39,11.67-5,27.28-11.14,57.21-22.82,87.57-21.41h.18l-1.13-.35c-32.7-10-76,7.41-102.47,24.91Z" style="fill:#dbdbdb"></path><path d="M277,284.33h2.71c6.57-3.52,13.17-6.82,19.88-10,23.55-10.75,55.42-24.51,82-23.72-3.74-.61-7.53-1.06-11.37-1.3a165,165,0,0,0-22.09.19h0c-23.61,4.26-48.3,16.72-63.53,28.39C282,280,279.43,282.08,277,284.33Z" style="fill:#dbdbdb"></path><path d="M246.48,284.33h4.14c5.11-3,10.24-5.86,15.45-8.62,13.69-7.08,30.28-15.38,47.09-21-10.34,2.21-20.49,4.9-30.13,7.79q-6,1.81-11.86,3.5a146.39,146.39,0,0,0-19.91,14C249.62,281.4,248,282.84,246.48,284.33Z" style="fill:#dbdbdb"></path><path d="M221.31,284.33h6.05q5.14-2.91,10.37-5.69c4.51-2.34,9.35-4.81,14.41-7.27-8.07,2.22-15.47,4.18-22,5.86-2.61,1.91-5,3.82-7.25,5.7Z" style="fill:#dbdbdb"></path></g><path d="M400.35,170.71c-4.78,0-123.93-.83-157.59-.83-2.35,0,.62-4.08,1.92-4.36,4.14-.91,8.45-1,12.66-1.39a41.56,41.56,0,0,0,12.06-3c3.31-1.4,6.61-3,10.2-3.58,6.93-1.08,13,2.67,19.52,4.33a14.74,14.74,0,0,0,11.82-1.61c3-1.81,5.74-4,8.88-5.56a48.75,48.75,0,0,1,38.94-1.79,45.94,45.94,0,0,1,8.52,4.36c3.17,2.09,5.91,4.75,9.1,6.81,7.06,4.57,15.78,3.08,23.48,5.7C400.28,169.91,400.76,170.71,400.35,170.71Z" style="fill:#ebebeb"></path><path d="M265.85,99.63c-6.31,0-112.54.7-119.22.49-.48,0-.74-.72-.26-1,4.21-2.08,9-1.66,13.36-3.14,2.57-.87,4.15-2.55,5.93-4.48a12.38,12.38,0,0,1,5.53-3.61,11.82,11.82,0,0,1,6-.19c2.16.52,4,1.75,6.08,2.53,5.11,1.93,10.07.1,13.71-3.68,3-3.11,6-6,10.05-7.73a13.35,13.35,0,0,1,10.64-.14c3.89,1.76,6.57,5.31,10.23,7.45,4.34,2.53,9.52,1.93,14.32,2.7s8.47,4.8,12.67,7.12a9,9,0,0,0,4.58,1.42,26.36,26.36,0,0,0,2.79-.39c1.45-.18,2.82-.14,3.8,1.07C266.31,98.38,266.26,99.63,265.85,99.63Z" style="fill:#ebebeb"></path><path d="M439.11,233.07c-6.31,0-112.54.7-119.22.49-.48,0-.73-.72-.26-1,4.21-2.08,9-1.66,13.36-3.14,2.57-.87,4.15-2.55,5.94-4.48a12.3,12.3,0,0,1,5.52-3.61,11.82,11.82,0,0,1,6-.19c2.16.52,4,1.75,6.09,2.53,5.1,1.93,10.06.1,13.7-3.68,3-3.11,6-6.05,10.05-7.73a13.35,13.35,0,0,1,10.64-.14c3.9,1.76,6.57,5.31,10.23,7.45,4.34,2.53,9.53,1.93,14.32,2.7s8.47,4.8,12.67,7.12a9,9,0,0,0,4.58,1.42,26,26,0,0,0,2.79-.39c1.45-.18,2.82-.14,3.8,1.07C439.57,231.82,439.53,233.07,439.11,233.07Z" style="fill:#ebebeb"></path><path d="M455.81,121.25c-4.61,0-82.17.51-87.05.36-.35,0-.53-.53-.19-.7,3.08-1.52,6.56-1.22,9.76-2.29a10.42,10.42,0,0,0,4.33-3.27,9.05,9.05,0,0,1,4-2.64,8.6,8.6,0,0,1,4.39-.14,37.45,37.45,0,0,1,4.44,1.85c3.73,1.4,7.35.07,10-2.69,2.19-2.27,4.35-4.42,7.33-5.64a9.77,9.77,0,0,1,7.77-.11c2.85,1.29,4.8,3.88,7.47,5.44,3.17,1.86,7,1.42,10.46,2s6.18,3.5,9.25,5.2a6.56,6.56,0,0,0,3.35,1,20.2,20.2,0,0,0,2-.28,2.79,2.79,0,0,1,2.77.78C456.14,120.34,456.11,121.25,455.81,121.25Z" style="fill:#ebebeb"></path><path d="M274.78,198.17c-4.61,0-82.17.51-87,.35-.35,0-.53-.52-.19-.69,3.08-1.53,6.56-1.22,9.76-2.3a10.34,10.34,0,0,0,4.33-3.27,9,9,0,0,1,4-2.63,8.49,8.49,0,0,1,4.39-.14,37.45,37.45,0,0,1,4.44,1.85c3.73,1.4,7.35.07,10-2.69,2.19-2.27,4.35-4.42,7.33-5.64a9.72,9.72,0,0,1,7.77-.11c2.85,1.29,4.8,3.88,7.47,5.44,3.17,1.85,7,1.41,10.46,2s6.18,3.51,9.25,5.2a6.56,6.56,0,0,0,3.34,1,20,20,0,0,0,2-.29,2.79,2.79,0,0,1,2.77.78C275.11,197.26,275.08,198.17,274.78,198.17Z" style="fill:#ebebeb"></path><path d="M153.78,63.58c-4.61,0-82.16.51-87,.35a.38.38,0,0,1-.19-.7c3.07-1.52,6.56-1.21,9.75-2.29a10.37,10.37,0,0,0,4.34-3.27,8.92,8.92,0,0,1,4-2.63,8.53,8.53,0,0,1,4.4-.14,38.09,38.09,0,0,1,4.44,1.84c3.73,1.41,7.35.07,10-2.68,2.19-2.28,4.35-4.42,7.33-5.64a9.72,9.72,0,0,1,7.77-.11c2.84,1.29,4.8,3.88,7.47,5.44,3.17,1.85,6.95,1.41,10.45,2s6.19,3.51,9.26,5.2a6.53,6.53,0,0,0,3.34,1c.69,0,1.36-.21,2-.29a2.79,2.79,0,0,1,2.77.78C154.12,62.67,154.09,63.58,153.78,63.58Z" style="fill:#ebebeb"></path><path d="M131.34,182.31c-4.61,0-82.17.51-87,.35-.35,0-.54-.52-.19-.69,3.07-1.52,6.56-1.22,9.75-2.3a10.37,10.37,0,0,0,4.34-3.27,9,9,0,0,1,4-2.63,8.53,8.53,0,0,1,4.4-.14,38.16,38.16,0,0,1,4.44,1.85c3.72,1.4,7.34.07,10-2.69,2.2-2.27,4.36-4.42,7.34-5.64a9.72,9.72,0,0,1,7.77-.11c2.84,1.29,4.79,3.88,7.47,5.44,3.16,1.85,6.95,1.41,10.45,2s6.19,3.51,9.25,5.2a6.6,6.6,0,0,0,3.35,1,20,20,0,0,0,2-.29,2.79,2.79,0,0,1,2.77.78C131.68,181.4,131.64,182.31,131.34,182.31Z" style="fill:#ebebeb"></path></g><g id="freepik--Floor--inject-146"><path d="M38.64,284.3c135.41-.61,287.31-.62,422.72,0-135.41.62-287.31.61-422.72,0Z" style="fill:#263238"></path></g><g id="freepik--trees-2--inject-146"><path d="M42.39,275.21c.61.61,7.79.89,10.4.89s9.79-.28,10.41-.89-8.08-48.33-10.41-48.33S41.77,274.59,42.39,275.21Z" style="fill:#455a64"></path><path d="M42.24,263.05c1.78.68,8.35,3.35,9.77,4.13v-.9l-4.76-2.78a54.91,54.91,0,0,1-5.13-3c-.08-.06,0-.22.07-.18a43.18,43.18,0,0,1,5,2.78c1.61.94,3.21,1.92,4.8,2.9,0-2.28,0-4.57,0-6.86a53.73,53.73,0,0,1-7.49-3.8c-.08-.05,0-.2.07-.16A54.35,54.35,0,0,1,52,258.8l0-3.57c.06-6.12.08-12.25.23-18.37-1.56-.79-3.16-1.48-4.72-2.27-.1-.05,0-.23.08-.19,1.58.62,3.1,1.35,4.65,2,.09-3.16.21-6.32.4-9.47,0-.1.16-.1.16,0,.22,5.86.2,11.73.13,17.6,1.61-1.28,3.33-2.42,5-3.67.06,0,.12.06.06.1-1.72,1.31-3.32,2.76-5,4.06,0,.33,0,.66,0,1,1.75-.8,3.53-1.55,5.29-2.31.14-.06.27.14.13.21-1.81.86-3.6,1.74-5.43,2.56,0,2.91-.09,5.81-.12,8.72-.07,5.08-.18,10.15-.29,15.23q4.95-2.5,10-4.88c.13-.06.24.12.11.19a104.76,104.76,0,0,1-10.1,5.08c-.09,4.21-.18,8.43-.23,12.65a.2.2,0,0,1-.4,0c.06-5.38.07-10.76.09-16.14a98.36,98.36,0,0,1-9.89-4C42,263.26,42.07,263,42.24,263.05Z" style="fill:#37474f"></path><path d="M216.88,274.57c.67.66,8.39.95,11.19.95s10.53-.29,11.19-.95-8.68-52-11.19-52S216.22,273.9,216.88,274.57Z" style="fill:#455a64"></path><path d="M216.73,261.49c1.91.73,9,3.61,10.5,4.45v-1l-5.12-3a59.77,59.77,0,0,1-5.52-3.27c-.08-.07,0-.24.08-.19a46.51,46.51,0,0,1,5.4,3c1.73,1,3.45,2.07,5.16,3.13l0-7.38a58.51,58.51,0,0,1-8-4.09c-.09,0,0-.22.07-.17a59.16,59.16,0,0,1,8,3.93c0-1.28,0-2.56,0-3.84.07-6.58.09-13.17.25-19.75-1.67-.85-3.4-1.59-5.07-2.44-.11-.06,0-.25.08-.2,1.7.66,3.34,1.45,5,2.18.09-3.4.22-6.79.42-10.18a.09.09,0,0,1,.18,0c.23,6.3.21,12.61.14,18.93,1.73-1.39,3.58-2.62,5.35-4,.07,0,.13.06.06.12-1.84,1.4-3.57,3-5.42,4.36,0,.35,0,.71,0,1.07,1.88-.86,3.79-1.66,5.69-2.48.15-.06.28.15.13.23-1.94.92-3.87,1.87-5.83,2.75-.05,3.12-.1,6.25-.14,9.37-.07,5.46-.19,10.92-.31,16.38,3.55-1.8,7.14-3.55,10.74-5.24.13-.07.25.13.12.2a113.78,113.78,0,0,1-10.87,5.46c-.09,4.53-.19,9.07-.24,13.6,0,.28-.44.28-.43,0,.06-5.78.07-11.56.09-17.35a105.05,105.05,0,0,1-10.63-4.32C216.42,261.72,216.55,261.42,216.73,261.49Z" style="fill:#37474f"></path><path d="M230.62,277.41c.46.46,5.77.66,7.7.66s7.25-.2,7.7-.66-6-35.77-7.7-35.77S230.16,277,230.62,277.41Z" style="fill:#37474f"></path><path d="M230.51,268.41c1.32.5,6.18,2.48,7.23,3.06v-.66l-3.52-2.06a41.34,41.34,0,0,1-3.8-2.26c-.06,0,0-.16.05-.12a31.3,31.3,0,0,1,3.72,2.05c1.19.7,2.37,1.42,3.55,2.15,0-1.69,0-3.39,0-5.08a40.07,40.07,0,0,1-5.54-2.82c-.06,0,0-.14.05-.11a41.19,41.19,0,0,1,5.5,2.7c0-.88,0-1.76,0-2.64.05-4.53.06-9.06.18-13.6-1.16-.58-2.34-1.09-3.5-1.68-.07,0,0-.17.06-.13,1.17.45,2.3,1,3.45,1.5.06-2.34.15-4.68.29-7a.06.06,0,1,1,.12,0c.16,4.34.15,8.68.1,13,1.19-1,2.46-1.8,3.68-2.72.05,0,.09,0,0,.08-1.27,1-2.46,2-3.73,3,0,.24,0,.49,0,.73,1.3-.59,2.61-1.14,3.92-1.7.1,0,.19.1.09.15-1.33.64-2.66,1.3-4,1.9,0,2.15-.07,4.3-.1,6.45-.05,3.76-.13,7.52-.21,11.27,2.44-1.23,4.91-2.44,7.39-3.6a.08.08,0,0,1,.08.14,76.8,76.8,0,0,1-7.48,3.75c-.06,3.13-.13,6.25-.17,9.37a.15.15,0,0,1-.29,0c0-4,0-8,.06-11.95a71.83,71.83,0,0,1-7.32-3C230.3,268.57,230.39,268.36,230.51,268.41Z" style="fill:#455a64"></path><path d="M382.62,273.88c.71.71,9,1,12,1s11.32-.32,12-1-9.34-55.88-12-55.88S381.9,273.17,382.62,273.88Z" style="fill:#37474f"></path><path d="M382.45,259.82c2.05.78,9.65,3.88,11.29,4.78v-1c-1.83-1.08-3.67-2.14-5.51-3.21a66.65,66.65,0,0,1-5.93-3.53c-.09-.06,0-.25.09-.2a49.66,49.66,0,0,1,5.8,3.21c1.87,1.09,3.71,2.22,5.55,3.36,0-2.64,0-5.29,0-7.93a64,64,0,0,1-8.66-4.4c-.09-.06,0-.23.08-.19a63.23,63.23,0,0,1,8.58,4.23l0-4.12c.08-7.08.09-14.17.27-21.25-1.8-.91-3.66-1.71-5.46-2.62-.11-.06,0-.27.09-.22,1.83.71,3.59,1.56,5.38,2.35.1-3.66.24-7.31.46-10.95a.1.1,0,0,1,.19,0c.26,6.78.23,13.57.15,20.35,1.86-1.49,3.85-2.8,5.75-4.25.08-.05.15.07.08.12-2,1.52-3.85,3.19-5.84,4.7,0,.38,0,.76,0,1.15,2-.93,4.07-1.79,6.12-2.67.16-.06.3.17.14.24-2.08,1-4.16,2-6.27,3-.05,3.37-.11,6.73-.15,10.09-.08,5.87-.2,11.74-.33,17.61q5.73-2.91,11.54-5.64c.15-.07.28.14.13.22a121.39,121.39,0,0,1-11.68,5.87c-.1,4.87-.2,9.75-.27,14.63a.23.23,0,0,1-.46,0c.07-6.22.08-12.44.1-18.66a114.36,114.36,0,0,1-11.43-4.65C382.12,260.07,382.25,259.74,382.45,259.82Z" style="fill:#455a64"></path><path d="M291.51,273.88c.71.71,9,1,12,1s11.32-.32,12-1-9.34-55.88-12-55.88S290.8,273.17,291.51,273.88Z" style="fill:#37474f"></path><path d="M291.34,259.82c2.05.78,9.65,3.88,11.29,4.78,0-.35,0-.69,0-1l-5.51-3.21a65.25,65.25,0,0,1-5.93-3.53c-.09-.06,0-.25.08-.2a49.66,49.66,0,0,1,5.8,3.21c1.87,1.09,3.72,2.22,5.56,3.36,0-2.64,0-5.29,0-7.93a64.6,64.6,0,0,1-8.66-4.4c-.09-.06,0-.23.08-.19a63.23,63.23,0,0,1,8.58,4.23l0-4.12c.08-7.08.09-14.17.27-21.25-1.8-.91-3.65-1.71-5.45-2.62-.12-.06,0-.27.09-.22,1.82.71,3.58,1.56,5.38,2.35.09-3.66.23-7.31.46-10.95a.09.09,0,1,1,.18,0c.26,6.78.24,13.57.15,20.35,1.87-1.49,3.86-2.8,5.76-4.25.07-.05.14.07.07.12-2,1.52-3.85,3.19-5.84,4.7,0,.38,0,.76,0,1.15,2-.93,4.08-1.79,6.12-2.67.16-.06.3.17.14.24-2.08,1-4.16,2-6.27,3l-.15,10.09c-.07,5.87-.2,11.74-.33,17.61q5.73-2.91,11.54-5.64c.15-.07.28.14.13.22a120.24,120.24,0,0,1-11.68,5.87c-.1,4.87-.2,9.75-.26,14.63,0,.29-.47.3-.46,0,.06-6.22.07-12.44.09-18.66a116.33,116.33,0,0,1-11.43-4.65C291,260.07,291.14,259.74,291.34,259.82Z" style="fill:#455a64"></path><path d="M386.33,276.83c-.5.5-6.3.72-8.41.72s-7.91-.22-8.41-.72,6.53-39,8.41-39S386.83,276.34,386.33,276.83Z" style="fill:#455a64"></path><path d="M386.45,267c-1.44.55-6.74,2.71-7.89,3.34v-.73q1.92-1.12,3.85-2.24a48.08,48.08,0,0,0,4.14-2.47c.06,0,0-.17-.06-.14a34.71,34.71,0,0,0-4.05,2.24c-1.31.77-2.6,1.56-3.89,2.35,0-1.85,0-3.69,0-5.54a43.54,43.54,0,0,0,6.05-3.08c.07,0,0-.16-.05-.13a45.14,45.14,0,0,0-6,3c0-1,0-1.92,0-2.88-.05-4.95-.06-9.9-.19-14.85,1.26-.64,2.56-1.2,3.81-1.83.09,0,0-.19-.06-.16-1.28.5-2.51,1.09-3.76,1.64-.07-2.55-.17-5.1-.32-7.65,0-.08-.13-.08-.13,0-.18,4.74-.16,9.48-.11,14.23-1.3-1-2.69-2-4-3-.05,0-.1,0-.05.08,1.39,1.06,2.69,2.23,4.08,3.28,0,.27,0,.54,0,.8-1.41-.64-2.85-1.24-4.28-1.86-.11,0-.21.12-.1.17,1.46.7,2.91,1.41,4.39,2.07,0,2.35.07,4.7.1,7.05.05,4.1.14,8.2.23,12.3q-4-2-8.07-3.94c-.1,0-.19.1-.09.16a85.38,85.38,0,0,0,8.17,4.1c.07,3.41.14,6.82.18,10.23,0,.2.33.2.33,0-.05-4.35-.06-8.7-.07-13.05a79.46,79.46,0,0,0,8-3.24C386.68,267.18,386.59,267,386.45,267Z" style="fill:#37474f"></path><path d="M457.68,276.83c-.5.5-6.3.72-8.41.72s-7.91-.22-8.41-.72,6.53-39,8.41-39S458.18,276.34,457.68,276.83Z" style="fill:#455a64"></path><path d="M457.79,267c-1.43.55-6.74,2.71-7.89,3.34v-.73l3.85-2.24a46.77,46.77,0,0,0,4.15-2.47c.06,0,0-.17-.06-.14a34.85,34.85,0,0,0-4.06,2.24c-1.3.77-2.59,1.56-3.88,2.35,0-1.85,0-3.69,0-5.54a43.54,43.54,0,0,0,6.05-3.08c.06,0,0-.16-.06-.13a45,45,0,0,0-6,3l0-2.88c-.05-4.95-.06-9.9-.18-14.85,1.26-.64,2.55-1.2,3.81-1.83.08,0,0-.19-.06-.16-1.28.5-2.51,1.09-3.76,1.64-.07-2.55-.17-5.1-.32-7.65a.07.07,0,0,0-.14,0c-.17,4.74-.16,9.48-.1,14.23-1.3-1-2.69-2-4-3-.05,0-.1,0-.05.08,1.39,1.06,2.68,2.23,4.08,3.28,0,.27,0,.54,0,.8-1.42-.64-2.85-1.24-4.28-1.86-.11,0-.21.12-.1.17,1.46.7,2.91,1.41,4.38,2.07,0,2.35.07,4.7.11,7.05,0,4.1.14,8.2.23,12.3q-4-2-8.07-3.94c-.1,0-.19.1-.09.16a85.21,85.21,0,0,0,8.16,4.1c.08,3.41.15,6.82.19,10.23a.16.16,0,0,0,.32,0c-.05-4.35-.05-8.7-.06-13.05a79.28,79.28,0,0,0,8-3.24C458,267.18,457.93,267,457.79,267Z" style="fill:#37474f"></path><path d="M134.1,276.83c-.5.5-6.3.72-8.41.72s-7.91-.22-8.41-.72,6.53-39,8.41-39S134.6,276.34,134.1,276.83Z" style="fill:#455a64"></path><path d="M134.22,267c-1.44.55-6.75,2.71-7.89,3.34,0-.24,0-.49,0-.73l3.86-2.24a48.08,48.08,0,0,0,4.14-2.47c.06,0,0-.17-.06-.14a34.71,34.71,0,0,0-4,2.24c-1.31.77-2.6,1.56-3.89,2.35,0-1.85,0-3.69,0-5.54a43.54,43.54,0,0,0,6-3.08c.07,0,0-.16,0-.13a45.14,45.14,0,0,0-6,3c0-1,0-1.92,0-2.88-.06-4.95-.06-9.9-.19-14.85,1.26-.64,2.55-1.2,3.81-1.83.09,0,0-.19-.06-.16-1.28.5-2.51,1.09-3.76,1.64-.07-2.55-.17-5.1-.32-7.65,0-.08-.13-.08-.13,0-.18,4.74-.17,9.48-.11,14.23-1.3-1-2.69-2-4-3,0,0-.1,0,0,.08,1.39,1.06,2.69,2.23,4.08,3.28,0,.27,0,.54,0,.8-1.42-.64-2.85-1.24-4.28-1.86-.11,0-.21.12-.1.17,1.46.7,2.91,1.41,4.38,2.07q.06,3.53.11,7.05c0,4.1.14,8.2.23,12.3q-4-2-8.07-3.94c-.1,0-.19.1-.09.16a85.38,85.38,0,0,0,8.17,4.1c.07,3.41.14,6.82.18,10.23,0,.2.33.2.32,0,0-4.35,0-8.7-.06-13.05a79.46,79.46,0,0,0,8-3.24C134.45,267.18,134.36,267,134.22,267Z" style="fill:#37474f"></path></g><g id="freepik--trees-1--inject-146"><path d="M422.24,327.37c-2.88-1-11.31-2.1-16.16-1.85s-15.77,2.36-19.09,3-7.75-.09-7.48,1.33,15.92,6.18,22.71,5.2S422.24,327.37,422.24,327.37Z" style="fill:#37474f"></path><path d="M400,317.91c0-1.48.06-3,.09-4.44.05-4.93.12-9.85.27-14.77.13-3.91.55-13.9.56-15,0,0,.06,0,.11,0s.11,0,.11,0c0,1.07.73,17.16.81,24.12,0,1.41,0,2.83,0,4.24.08,4.53.12,9.07.09,13.6l0,2.17c0,4.15-.08,24.91-.08,29.05,0,.23-.43.34-.88.35s-1.07-.11-1.07-.36c0-4.58-.06-25.76-.06-30.34C400,323.68,400,320.8,400,317.91Z" style="fill:#263238"></path><path d="M405.75,294.57s5.15-12.85,17.06-13.64,24.58,16.61,24.58,16.61-12,10-25.23,7.23C409.46,302.08,405.75,294.57,405.75,294.57Z" style="fill:#4A61C0"></path><path d="M405.75,294.57s5.15-12.85,17.06-13.64,24.58,16.61,24.58,16.61-12,10-25.23,7.23C409.46,302.08,405.75,294.57,405.75,294.57Z" style="opacity:0.1"></path><path d="M403.43,296.6a13.31,13.31,0,0,1,5.05-4.1,10.81,10.81,0,0,1,1.09-.83c.43-.3.85-.61,1.27-.92l2.65-1.9c1.78-1.29,3.58-2.56,5.33-3.89.06,0,.15.06.09.11-1.7,1.37-3.38,2.77-5.11,4.09-.9.69-1.79,1.37-2.7,2-.22.15-.43.32-.65.49.32-.11.64-.22,1-.31a26.81,26.81,0,0,1,5.36-.9c.83-.32,1.7-.57,2.54-.85,1.34-.45,2.69-.86,4.05-1.27,2.67-.82,5.36-1.54,8.05-2.28.09,0,.12.1,0,.13-2.63.85-5.24,1.75-7.86,2.61-1.27.42-2.54.85-3.82,1.25l-1,.34a32.54,32.54,0,0,1,10.34,1.71,43,43,0,0,1,9.22,4.49c.07,0,0,.18-.06.13a42.08,42.08,0,0,0-10.24-3.94l.35.3,1.56,1.35c1,.9,2.08,1.79,3.1,2.71.07.06,0,.15-.09.1-1.07-.84-2.12-1.69-3.17-2.54l-1.55-1.26-.79-.65-.25-.2a39.14,39.14,0,0,0-5.12-.79,29.85,29.85,0,0,0-6.81.21c.14.14.27.29.4.43.36.37.72.74,1.07,1.12.74.78,1.47,1.57,2.2,2.37,1.48,1.61,2.85,3.33,4.32,4.95.06.07,0,.17-.1.1-1.56-1.58-3.22-3.06-4.77-4.65-.78-.8-1.55-1.59-2.32-2.4L415,292.8c-.2-.21-.4-.42-.58-.64l-.64.1c-3.05.61-6.21,1.64-8.55,3.78a13.37,13.37,0,0,0-3.82,8.93c0,.26-.46-.51-.47-.76A11.82,11.82,0,0,1,403.43,296.6Z" style="fill:#263238"></path><path d="M422.74,295.47l3,3.11a31.69,31.69,0,0,1,2.82,3.09c0,.05,0,.09-.07.06a31.56,31.56,0,0,1-3-3l-2.89-3.13C422.58,295.51,422.68,295.41,422.74,295.47Z" style="fill:#263238"></path><path d="M433.78,292.88c1.58-.13,3.18-.16,4.75-.43a.07.07,0,1,1,0,.14,44.81,44.81,0,0,1-4.77.35A0,0,0,0,1,433.78,292.88Z" style="fill:#263238"></path><path d="M394.92,294.16s-2.2,15.24-13.66,20.58-25.45,0-25.45,0S361.31,281.75,394.92,294.16Z" style="fill:#4A61C0"></path><path d="M363.71,304.82c1.06-.12,2.11-.3,3.16-.49l1.54-.29.8-.17c.31-.28.62-.58.93-.85a46.17,46.17,0,0,1,7-5.09,40.56,40.56,0,0,1,4.2-2.16h-.22l-3.77.17c-2.52.11-5,.17-7.55.33-.09,0-.09-.13,0-.14,2.53-.17,5-.45,7.56-.66l3.67-.33,1.89-.17.48-.05c.65-.24,1.31-.47,2-.68a17.83,17.83,0,0,1,9.71-.53c2.88.73,5.76,2.62,6.51,5.66,0,.11-.14.18-.18.08-1.08-2.54-3.9-3.82-6.45-4.35a15.08,15.08,0,0,0-5.19-.1,11.74,11.74,0,0,1-.58,2.3c-.31,1.07-.63,2.15-1,3.22-.65,2.14-1.37,4.26-2,6.41a.07.07,0,0,1-.14,0c.54-2.14,1-4.3,1.5-6.45.25-1.05.52-2.1.78-3.15a18.94,18.94,0,0,1,.58-2.17,29.35,29.35,0,0,0-3,.7,42.52,42.52,0,0,0-5.19,1.91c-.17,1.08-.41,2.16-.66,3.23-.32,1.35-.67,2.68-1.09,4a.07.07,0,0,1-.13,0c0-.08,0-.17.05-.25h0c.26-1.25.53-2.49.8-3.74.21-1,.4-2,.62-3-1.42.64-2.82,1.34-4.18,2.11,0,.31-.1.63-.14.91-.09.53-.18,1.05-.28,1.57-.21,1.17-.45,2.35-.73,3.51a54.29,54.29,0,0,1-2,6.63.08.08,0,0,1,0,.09l-.07.07c-.05.06-.13,0-.11-.07.53-2.26,1.13-4.5,1.63-6.76.25-1.14.5-2.27.72-3.41.12-.56.22-1.13.33-1.7,0-.16.05-.34.08-.51a45.09,45.09,0,0,0-4.47,3,48,48,0,0,0-6.83,6.23c-.08.1-.24,0-.17-.13.88-1.15,1.75-2.28,2.73-3.34.58-.61,1.18-1.21,1.79-1.8l-.19,0-1.62.24c-1.06.14-2.12.25-3.18.37C363.66,305,363.62,304.83,363.71,304.82Z" style="fill:#263238"></path><path d="M371.77,310h0c0-.13,0-.27.07-.4s.11-.33.14-.5h0c.24-1,.43-2,.62-3.08,0-.07.13-.05.12,0a12.35,12.35,0,0,1-.87,4s-.09,0-.08,0Z" style="fill:#263238"></path><path d="M381.37,309.74s0-.06.07-.06c.32-1.35.63-2.7.9-4.06.15-.72.3-1.43.44-2.15l.21-1.15a3.42,3.42,0,0,1,.25-1,.07.07,0,0,1,.13,0,6.86,6.86,0,0,1-.29,2.05c-.14.74-.29,1.49-.45,2.23-.33,1.5-.71,3-1.13,4.48,0,.08-.16.06-.16,0Z" style="fill:#263238"></path><path d="M364.76,300.43c2.09-.29,4.19-.59,6.28-.85.09,0,.13.13,0,.14-2.09.31-4.19.57-6.29.84C364.7,300.58,364.67,300.44,364.76,300.43Z" style="fill:#263238"></path><path d="M422.24,327.37c1.52.46,2.92,6.41,1.93,9.5s4.71,12.7,5.87,16.64.32,5.06,0,5.8,2.86,2.09,2.44,2.83-3.77,1.11-5.3.87-9.6,3.59-17.56,4.56c-13.19,1.6-27.42-2.4-30.12-3.4-.89-.33-4.06.69-5.28.19s.07-2.68.2-3.42-.86-3-1-7.8,8.35-15.16,8-16.77-2-5.72-1.87-6.55,13.7,4,22.71,3.35S419.82,326.63,422.24,327.37Z" style="fill:#455a64"></path><path d="M310.91,323.62c3.14-1.08,12.35-2.29,17.65-2s17.23,2.58,20.86,3.24,8.46-.1,8.17,1.46-17.4,6.75-24.81,5.67S310.91,323.62,310.91,323.62Z" style="fill:#37474f"></path><path d="M336.25,294.35c0-2.21.08-4.43.11-6.65.06-7.37.14-14.73.31-22.1q.21-8.78.53-17.54s0-.05.07-.07l0-4.79s.06-.06.13-.06.12,0,.12.06c0,1.6,0,3.2,0,4.8,0,0,.06,0,.06.07.39,10.4.73,20.81.81,31.22,0,2.12,0,4.24,0,6.35.09,6.79.14,13.58.1,20.36,0,1.08,0,2.16,0,3.24,0,6.21-.08,37.28-.08,43.49,0,.33-.49.5-1,.52s-1.22-.17-1.22-.55c0-6.85-.06-38.55-.06-45.4C336.23,303,336.21,298.67,336.25,294.35Z" style="fill:#263238"></path><path d="M347.22,254.3s12.63-9.36,24.63-3S385.72,282,385.72,282s-17.61,2.52-28.7-8C346.34,263.76,347.22,254.3,347.22,254.3Z" style="fill:#4A61C0"></path><path d="M343.78,254.88a15,15,0,0,1,7.32-1,11.31,11.31,0,0,1,1.54-.15l1.78-.13,3.69-.27c2.49-.18,5-.33,7.48-.58.09,0,.11.14,0,.15-2.47.32-4.92.67-7.39.92-1.27.13-2.54.26-3.81.35l-.92.09c.37.08.75.17,1.12.28a29.82,29.82,0,0,1,5.72,2.32c1,.18,2,.46,3,.69,1.57.37,3.12.77,4.68,1.18,3.07.8,6.1,1.71,9.15,2.59.1,0,.05.18-.05.16-3-.75-6.1-1.43-9.15-2.16l-4.44-1.06c-.38-.1-.77-.18-1.16-.27a36.93,36.93,0,0,1,9,7.81,49,49,0,0,1,6.24,9.84c0,.09-.09.18-.14.08a48.13,48.13,0,0,0-7.55-9.91c0,.17.11.34.16.51.24.74.47,1.48.71,2.23.46,1.49.94,3,1.38,4.47,0,.1-.12.13-.15,0-.54-1.45-1-2.9-1.55-4.35l-.75-2.13-.38-1.11-.12-.34a45,45,0,0,0-4.48-3.82,33.78,33.78,0,0,0-6.71-3.84c.05.22.09.44.13.64.12.58.25,1.16.37,1.73.25,1.2.48,2.4.71,3.6.48,2.44.77,4.92,1.23,7.36,0,.1-.13.14-.15,0-.57-2.46-1.3-4.88-1.85-7.34-.27-1.23-.55-2.46-.81-3.7-.11-.58-.23-1.16-.35-1.73-.06-.33-.14-.65-.17-1-.23-.09-.46-.2-.69-.28-3.31-1.23-7-2.12-10.51-1.44a10.31,10.31,0,0,0-7.61,6.09c-.11.27-.54.1-.48-.18C338.47,258.3,341,256,343.78,254.88Z" style="fill:#263238"></path><path d="M363.12,265.29c.36,1.6.71,3.2,1.06,4.8a35.59,35.59,0,0,1,.89,4.67c0,.06-.09.06-.1,0a35.58,35.58,0,0,1-1.08-4.7l-.93-4.74A.08.08,0,0,1,363.12,265.29Z" style="fill:#263238"></path><path d="M375.34,269.36c1.61.81,3.17,1.74,4.85,2.41a.08.08,0,1,1-.07.14,51,51,0,0,1-4.82-2.49A0,0,0,0,1,375.34,269.36Z" style="fill:#263238"></path><path d="M337.26,240.11s-14.54-5.3-17-17.52,4.85-24.87,4.85-24.87,14.06,8.33,17,17.61S337.26,240.11,337.26,240.11Z" style="fill:#4A61C0"></path><path d="M337.76,257c.18-1.73.23-3.49.31-5.23s.11-3.33.1-5a96.56,96.56,0,0,0-.58-10.2c-.24-2.15-.58-4.29-.95-6.42.08-.26.14-.53.22-.8.12-.46.25-.93.38-1.4.25-1,.48-1.91.73-2.87.53-2.1,1-4.21,1.53-6.31,0-.09-.12-.16-.15-.06-.56,2.06-1.22,4.08-1.8,6.13-.28,1-.58,2-.85,3l-.29,1.1a110.35,110.35,0,0,0-3-12.14c-.16-.54-.34-1.08-.52-1.61,0-.13,0-.25,0-.38,0-.32,0-.63.05-.95,0-.65.08-1.3.13-2,.09-1.28.22-2.56.42-3.83,0-.1-.14-.12-.16,0-.22,1.29-.43,2.58-.59,3.88-.08.62-.14,1.25-.19,1.88,0,.1,0,.21,0,.31-.94-2.76-2-5.49-3.07-8.2a.08.08,0,1,0-.14.06,110.69,110.69,0,0,1,4.62,16.67,10.52,10.52,0,0,0-.93-.72c-1-.69-2-1.33-3.06-1.95-2.18-1.31-4.35-2.6-6.48-4-.09-.06-.19.06-.1.12,2,1.4,4,2.84,5.91,4.3.92.69,1.87,1.34,2.81,2a19.74,19.74,0,0,1,2.17,1.8c.09.42.18.85.26,1.28.38,2,.69,3.94,1,5.92l-1.32-.91q-1.5-1-3-2c-2-1.3-4-2.62-5.91-4-.08-.06-.18.06-.1.12,1.94,1.46,3.82,3,5.72,4.51q1.36,1.09,2.79,2.13l1.42,1a3.74,3.74,0,0,0,.59.39c.59,4.26,1,8.54,1.28,12.82.12,1.89.19,3.77.24,5.66s0,3.86,0,5.8C337.15,257.29,337.72,257.38,337.76,257Z" style="fill:#263238"></path><path d="M337.57,218.13c.32-1.47.63-2.94.92-4.41,0-.1-.14-.12-.16,0q-.46,2.16-1,4.32a42.4,42.4,0,0,0-.93,4.31s0,0,0,0A30.35,30.35,0,0,0,337.57,218.13Z" style="fill:#263238"></path><path d="M329.5,214.11c-.52-.61-1.09-1.18-1.66-1.74l-.89-.9-.45-.45a3,3,0,0,1-.48-.53c-.07-.13-.22,0-.12.1a2.64,2.64,0,0,1,.49.51l.43.47.83.92a20.29,20.29,0,0,0,1.73,1.74C329.45,214.29,329.56,214.19,329.5,214.11Z" style="fill:#263238"></path><path d="M330.44,281.58s-2.5,17.31-15.52,23.37-28.9,0-28.9,0S292.27,267.48,330.44,281.58Z" style="fill:#4A61C0"></path><path d="M295,293.69c1.2-.14,2.39-.35,3.58-.56l1.75-.33.91-.19c.35-.32.7-.66,1.06-1a52.47,52.47,0,0,1,8-5.78,44.83,44.83,0,0,1,4.78-2.45h-.25l-4.29.19c-2.85.13-5.71.19-8.57.38-.1,0-.1-.15,0-.16,2.86-.2,5.72-.51,8.58-.76l4.16-.37,2.15-.18.55-.06c.74-.28,1.49-.54,2.24-.78a20.31,20.31,0,0,1,11-.6c3.28.83,6.55,3,7.4,6.43,0,.12-.16.21-.21.09-1.22-2.89-4.42-4.34-7.32-4.94a17.39,17.39,0,0,0-5.89-.12,14.16,14.16,0,0,1-.66,2.62l-1.08,3.65c-.74,2.44-1.56,4.84-2.28,7.28a.08.08,0,0,1-.15,0c.6-2.43,1.12-4.89,1.7-7.32.29-1.2.59-2.39.89-3.58a20.07,20.07,0,0,1,.65-2.47,31.94,31.94,0,0,0-3.38.8,50.89,50.89,0,0,0-5.9,2.16c-.19,1.24-.47,2.46-.75,3.68-.35,1.53-.75,3-1.24,4.53a.07.07,0,1,1-.14,0l.06-.28h0c.29-1.41.6-2.82.9-4.24.24-1.14.46-2.28.71-3.42a51.34,51.34,0,0,0-4.74,2.4c0,.35-.12.71-.17,1-.1.59-.2,1.18-.31,1.77-.25,1.34-.51,2.67-.83,4a63.79,63.79,0,0,1-2.24,7.53.09.09,0,0,1,0,.1l-.08.09a.08.08,0,0,1-.13-.08c.6-2.57,1.29-5.11,1.85-7.69.28-1.29.57-2.57.83-3.86.13-.65.24-1.29.37-1.94,0-.18.06-.38.09-.58a54.83,54.83,0,0,0-12.84,10.47c-.09.1-.27-.05-.19-.16a48.75,48.75,0,0,1,3.11-3.78c.65-.71,1.33-1.38,2-2.05l-.22,0-1.84.28c-1.2.16-2.41.27-3.61.41C294.93,293.85,294.89,293.7,295,293.69Z" style="fill:#263238"></path><path d="M304.15,299.56h0c0-.15,0-.3.07-.45s.13-.38.16-.57h0c.27-1.15.5-2.32.71-3.49,0-.08.14-.06.14,0a14.25,14.25,0,0,1-1,4.52c0,.05-.1.05-.09,0Z" style="fill:#263238"></path><path d="M315.05,299.28a.07.07,0,0,1,.07-.07c.37-1.54.72-3.07,1-4.62.16-.81.33-1.62.49-2.43l.24-1.32a3.84,3.84,0,0,1,.28-1.12.08.08,0,0,1,.15,0,7.36,7.36,0,0,1-.33,2.32c-.16.85-.32,1.69-.51,2.53-.38,1.71-.8,3.41-1.29,5.09,0,.1-.18.08-.17,0Z" style="fill:#263238"></path><path d="M296.18,288.7c2.38-.33,4.76-.67,7.14-1,.1,0,.14.14,0,.16-2.37.35-4.76.64-7.14,1C296.12,288.87,296.08,288.71,296.18,288.7Z" style="fill:#263238"></path><path d="M310.91,323.62c-1.66.5-3.19,7-2.11,10.37s-5.15,13.88-6.42,18.19-.35,5.52,0,6.33-3.12,2.29-2.66,3.1,4.12,1.21,5.79.94,10.49,3.93,19.18,5c14.42,1.76,30-2.61,32.91-3.71,1-.36,4.44.75,5.77.21s-.08-2.93-.22-3.74.94-3.26,1.11-8.52-9.12-16.57-8.72-18.32,2.18-6.25,2-7.15-15,4.32-24.81,3.65S313.55,322.8,310.91,323.62Z" style="fill:#455a64"></path></g><g id="freepik--character-1--inject-146"><path d="M219.51,341.13c-2.32.72-68.38-.75-70.86-2.41-1-.61,7-59.2,7-59.2l42.51,1-8.29,37.1s25,11.87,27.56,14S221.84,340.41,219.51,341.13Z" style="fill:#d3766a"></path><path d="M219.51,341.12c-2.33.74-68.37-.74-70.86-2.4-.46-.3,1.19-14.39,3-28.75l39.8.58-1.59,7.1s25,11.87,27.57,14S221.83,340.41,219.51,341.12Z" style="fill:#ebebeb"></path><path d="M220.48,341.42c-2.36.75-69.67-.25-72.2-1.92-1-.62,2.12-22.83,2.12-23l39.73.44,0,.74s25.59,11.91,28.19,14S222.84,340.67,220.48,341.42Z" style="fill:#4A61C0"></path><path d="M220.48,341.42c-2.36.75-69.67-.25-72.2-1.92-1-.62,2.12-22.83,2.12-23l39.73.44,0,.74s25.59,11.91,28.19,14S222.84,340.67,220.48,341.42Z" style="opacity:0.2"></path><path d="M219.76,338.8c-11.34-.45-57.13-1.19-68.37-.77-.1,0-.1.06,0,.07,11.23.69,57,1.06,68.36.88C220,339,220,338.8,219.76,338.8Z" style="fill:#263238"></path><path d="M195,317.18c-4.45-.9-9.92-.3-13.38,2.83-.13.13,0,.31.19.27a63.23,63.23,0,0,1,13.17-2.54A.28.28,0,0,0,195,317.18Z" style="fill:#263238"></path><path d="M198.16,319.17c-4.46-.9-9.93-.3-13.39,2.83-.13.13,0,.31.19.27a63.36,63.36,0,0,1,13.17-2.54A.28.28,0,0,0,198.16,319.17Z" style="fill:#263238"></path><path d="M201.35,321.16c-4.45-.9-9.92-.3-13.38,2.83-.14.13,0,.31.18.27a62.82,62.82,0,0,1,13.17-2.53A.29.29,0,0,0,201.35,321.16Z" style="fill:#263238"></path><path d="M192.65,314.06l-44.56-.89s14.46-70.91,13.37-74.72c-.42-1.49-55.79-16.7-72-27-22.78-14.53-12.77-49.1-12.77-49.1h55.52s-2.73,13.64.1,16.63c3.44,3.63,70,21.48,75.28,36C214.59,234.23,192.65,314.06,192.65,314.06Z" style="fill:#37474f"></path><path d="M192.2,305.22c-6.84-.54-4.87-.51-11.72-1-3.36-.22-25.4-1.64-28.57-1.16-.06,0-.07.15,0,.17,3.1.81,25.16,1.75,28.52,1.89,6.86.28,4.9.11,11.76.3C192.32,305.47,192.33,305.23,192.2,305.22Z" style="fill:#263238"></path><path d="M132.14,162.31l-14.52,61.23c-11.53-4.1-22.36-8.42-28.16-12.13-22.78-14.53-12.77-49.1-12.77-49.1Z" style="fill:#263238"></path><path d="M114.9,418.82c-2.31.76-68.38.37-70.89-1.25-1-.59-1.46-10.23-1.74-21.88v-.36c-.06-2.41,7.22-43.38,7.22-43.38l43.26,1.18-7.85,42,0,.72s25.22,11.46,27.79,13.53S117.21,418.07,114.9,418.82Z" style="fill:#d3766a"></path><path d="M114.89,418.82c-2.3.77-68.37.37-70.88-1.25-1-.6-1.46-10.23-1.73-21.88,0-.12,0-.25,0-.36,0-.63.87-3.93,1.18-8.46l42.82.46-1.37,7.78,0,.72s25.23,11.47,27.79,13.52S117.21,418.07,114.89,418.82Z" style="fill:#ebebeb"></path><path d="M115.55,419c-2.36.77-69.67.2-72.21-1.45-1-.61-1.47-10.42-1.72-22.29,0-.13,0-.25,0-.38L85,394.72l0,.73s25.67,11.74,28.28,13.85S117.91,418.19,115.55,419Z" style="fill:#4A61C0"></path><path d="M115.55,419c-2.36.77-69.67.2-72.21-1.45-1-.61-1.47-10.42-1.72-22.29,0-.13,0-.25,0-.38L85,394.72l0,.73s25.67,11.74,28.28,13.85S117.91,418.19,115.55,419Z" style="opacity:0.2"></path><path d="M114.81,416.33c-11.34-.37-57.13-.81-68.37-.32-.1,0-.1.07,0,.07,11.23.62,57,.69,68.37.44C115.05,416.51,115.05,416.34,114.81,416.33Z" style="fill:#263238"></path><path d="M89.87,394.88c-4.45-.87-9.92-.23-13.36,2.92-.13.12,0,.31.19.27a62.69,62.69,0,0,1,13.15-2.63A.28.28,0,0,0,89.87,394.88Z" style="fill:#263238"></path><path d="M93.08,396.85c-4.46-.87-9.92-.23-13.36,2.92-.14.12,0,.31.19.27a62.43,62.43,0,0,1,13.15-2.63A.28.28,0,0,0,93.08,396.85Z" style="fill:#263238"></path><path d="M96.29,398.82c-4.46-.87-9.93-.23-13.37,2.92-.13.12,0,.31.19.26a63.31,63.31,0,0,1,13.15-2.62A.28.28,0,0,0,96.29,398.82Z" style="fill:#263238"></path><path d="M132.21,162.31S124.79,195.74,124,197c-1.26,2-4.7,2.1-5.73,3.2,0,0-5.07,73.13-9.4,93.56-5.73,27-21.89,98-21.89,98l-48.33-1.62S62.79,289,63,287.22c1.43-10,6.47-81.39,5.91-83.13-5.65-17.73,3.29-41.78,3.29-41.78Z" style="fill:#37474f"></path><path d="M85.9,381.61c-7.13-.53-5.07-.5-12.21-.93-3.49-.22-26.43-1.6-29.72-1.12-.07,0-.08.16,0,.17,3.23.81,26.2,1.71,29.69,1.85,7.14.27,5.09.1,12.24.28C86,381.86,86,381.62,85.9,381.61Z" style="fill:#263238"></path><path d="M124.74,196.73a90.11,90.11,0,0,0-14.46,6.49.16.16,0,0,0,.13.29c4.87-2,9.83-3.92,14.58-6.19A.32.32,0,0,0,124.74,196.73Z" style="fill:#263238"></path><path d="M126.76,163.55c0-.17-.31-.21-.31,0a160.74,160.74,0,0,1-1,16.16c-.26,2.49-2.47,16.24-6.78,15.17-.72-.18-1.08-.9-1.17-2a17.52,17.52,0,0,1,.63-4.22c.52-2.87,1-5.76,1.24-8.67a79.29,79.29,0,0,0,.06-16.3.14.14,0,0,0-.28,0,149.61,149.61,0,0,1-1.64,22.48c-.59,3.57-2.48,8.94,1.26,9.55s6.41-8.38,6.91-10.85A82.7,82.7,0,0,0,126.76,163.55Z" style="fill:#263238"></path><path d="M118.74,195.22a24,24,0,0,0-1,2.84,6.56,6.56,0,0,0-.44,2.34.17.17,0,0,0,.3.07,8.22,8.22,0,0,0,1-2.27c.34-.88.7-1.75,1-2.64A.49.49,0,0,0,118.74,195.22Z" style="fill:#263238"></path><path d="M74.92,180.67c1-.16,2.59.23,7.14,0a25.12,25.12,0,0,0,3.75-.55,8.26,8.26,0,0,0,3.49-1.36,18.43,18.43,0,0,0,4-5.39,28,28,0,0,0,2.87-6.69c0-.14.24-.07.21.07-.25,1.32-.41,2.65-.78,4a24,24,0,0,1-1.38,3.59c-1,2.17-2.17,4.5-4.15,5.94s-4.94,1.77-7.43,1.91c-1.44.08-7.08-.16-7.83-1C74.71,181,74.72,180.7,74.92,180.67Z" style="fill:#263238"></path><path d="M134.06,185.35c.56-4-1.22-27.71-.43-35.64.51-5-5.51-30.46-5.4-42.94.07-9.62,4.14-10.46,9.6-2.87,5.86,8.14,16.75,33.24,18.69,41.24s5.5,33.33,5.81,39.05C162.55,188.49,133.51,189.27,134.06,185.35Z" style="fill:#d3766a"></path><path d="M130,136.53l20.56-14s-8.09-14.43-13.19-21.22c-4.89-6.51-11.41-6.58-10.57,8.08C127.84,127.44,130,136.53,130,136.53Z" style="fill:#4A61C0"></path><path d="M131,130a37.25,37.25,0,0,1,3.66-2.87c1.25-.92,2.51-1.81,3.77-2.7s2.55-1.79,3.84-2.66,2.69-1.7,4-2.55c.08-.05.17.08.09.14-1.22.95-2.42,1.94-3.67,2.86s-2.5,1.81-3.76,2.7-2.55,1.79-3.84,2.66a39.75,39.75,0,0,1-4,2.54A.07.07,0,0,1,131,130Z" style="fill:#263238"></path><path d="M142.2,128.23,130,136.53s-2.18-9.08-3.21-27.15c-.42-7.38,1-11,3.2-12Z" style="opacity:0.1"></path><path d="M131.43,167.41l-59.19-5.1c0-.26,26.31-55.95,41.78-67.58,9.29-7,18-.52,19.58,2.39C139.41,108.05,131.43,167.41,131.43,167.41Z" style="fill:#4A61C0"></path><path d="M117.6,103c-8.42,9.08-46.23,39-47.3,41.1,0,0-28.71-2-24.36-16.67s45.89-25.79,64.12-32.71C117.5,91.84,124.47,95.53,117.6,103Z" style="fill:#d3766a"></path><path d="M82.72,102.66l17.64,17.54s12.64-10.67,18.34-17c5.46-6,4.3-12.45-9.93-8.85C91.23,98.81,82.72,102.66,82.72,102.66Z" style="fill:#4A61C0"></path><path d="M89.29,101.85a37.78,37.78,0,0,1,3.51,3.05c1.14,1,2.25,2.12,3.37,3.19s2.24,2.16,3.33,3.26,2.18,2.33,3.27,3.49c.06.07,0,.18-.11.11-1.17-1-2.37-2-3.51-3s-2.25-2.12-3.36-3.19-2.24-2.17-3.34-3.27A38.27,38.27,0,0,1,89.19,102,.07.07,0,0,1,89.29,101.85Z" style="fill:#263238"></path><path d="M98.93,119.25c.53.24,1,.52,1.54.79h-.24a72.85,72.85,0,0,1,11.6-10,61.85,61.85,0,0,1-5.41,5.45,72.11,72.11,0,0,1-6.07,5c-.47-.4-1-.78-1.42-1.2Z" style="fill:#263238"></path><path d="M106.94,114.37a8.71,8.71,0,0,1,4.57-2.35,8.68,8.68,0,0,1-4.57,2.35Z" style="fill:#263238"></path><path d="M72.24,162.31l33.56,8,25.63-2.89s5-24.12,5-45.77c0-17.51-1.21-23-1.21-23l-1.31-1.55s-.07,16.13-.24,19.93c0,0-9.69-.09-13.94-2.25,0,0,.4-10.15.1-12.85S118.13,92,118.13,92l-3.65.93s1.09,6.9.83,10.29-2.33,15.9-4.74,20-8,10.35-13.37,9.84A18.66,18.66,0,0,1,88,129.35S75.08,152.14,72.24,162.31Z" style="fill:#37474f"></path><path d="M140.56,206.89c-.95-1.63-1.81-1.14-2.27,2.18s.56,16.88-4.19,16.83-5-19.06-4.74-24.66a38.37,38.37,0,0,1,5-16.7C135.39,188.22,138.56,199.69,140.56,206.89Z" style="fill:#d3766a"></path><path d="M194.62,340.5a2.51,2.51,0,0,1-2.31-1.51L80.38,82.87a2.52,2.52,0,0,1,4.61-2L196.92,337a2.5,2.5,0,0,1-1.3,3.31A2.4,2.4,0,0,1,194.62,340.5Z" style="fill:#4A61C0"></path><path d="M194.62,340.5a2.51,2.51,0,0,1-2.31-1.51L80.38,82.87a2.52,2.52,0,0,1,4.61-2L196.92,337a2.5,2.5,0,0,1-1.3,3.31A2.4,2.4,0,0,1,194.62,340.5Z" style="opacity:0.6000000000000001"></path><path d="M169.09,341.15c-.37-.61,48.42,0,50.23,0s13.58,37.34,14.94,41.64-9.67,16.07-15.16,16.07c-11.15,0-28.51-6.34-33.94-11.77S169.77,342.29,169.09,341.15Z" style="fill:#c7c7c7"></path><path d="M203.88,362.93a17.32,17.32,0,0,1-5.15-5.14c-3.52-5.47-6.07-13-7.38-15.38-.14-.25-.6-.08-.48.21,1.81,4.5,2.84,8.63,4.68,13.12a14.18,14.18,0,0,0,7.9,7.91C203.94,363.86,204.35,363.21,203.88,362.93Z" style="fill:#a6a6a6"></path><path d="M205.72,353.05A100.55,100.55,0,0,0,201,342.52a.14.14,0,0,0-.25.11c1.72,6.49,6,12.92,6.22,19.71,0,.25.4.33.45.06C208,359,207,356.19,205.72,353.05Z" style="fill:#a6a6a6"></path><path d="M188.26,340.9c.9,0-6.79-15.7-7-16.72s12-1.58,13.24-.56S201.6,341,202.06,341Z" style="fill:#c7c7c7"></path><path d="M162.09,183.16c2.36,10.47,5.94,23.35,2.25,34.87a6,6,0,0,1-2.28,3.2c-1.56,5.2-4.48,6-4.48,6-2.94,4.39-6.05,4.82-6.05,4.82s-1.9,6.08-5.76,5.54c-4.34-.59-.82-9-1.72-14.83-2.05-13.32-9-33.65-10-37.43Z" style="fill:#d3766a"></path><path d="M151.69,207.33a85.91,85.91,0,0,1,1.14,11.76,86.88,86.88,0,0,1-1.4,12.88.11.11,0,0,0,.21.05,45.91,45.91,0,0,0,.23-24.72C151.82,207.12,151.67,207.13,151.69,207.33Z" style="fill:#263238"></path><path d="M159.56,204.92c.3,3.85.78,10.63-2.13,22.32,0,0,0,.07.07,0a41.09,41.09,0,0,0,2.24-22.36C159.7,204.67,159.54,204.66,159.56,204.92Z" style="fill:#263238"></path><path d="M163.8,203.7c.27,6.58-.4,10.76-1.78,17.52,0,0,.06.06.07,0,2.37-7.52,2.38-10.52,1.94-17.58C164,203.42,163.79,203.45,163.8,203.7Z" style="fill:#263238"></path><path d="M96.4,136.15c3,1.93-7.94,29.94-12.78,27.73-17.71-8.07-32.84-23.44-36-27.23-4.17-5-1.45-12.58,2.14-14.83C55,118.57,93.38,134.23,96.4,136.15Z" style="fill:#d3766a"></path><path d="M129.18,151.86a4.51,4.51,0,0,1-3.22,4,6.71,6.71,0,0,1,.83,4.5c-.58,2.7-5.08,3-5.08,3a8.26,8.26,0,0,1,.12,4.88c-.82,2.53-5.32,3.46-5.32,3.46a7.27,7.27,0,0,1-2.6,4.36c-3.75,2.77-10.38.16-14.61-1.46S84.58,164.44,82.42,163l10.15-27.26s21,1.86,25.75,4.47C122.28,142.43,129.28,148.32,129.18,151.86Z" style="fill:#d3766a"></path><path d="M125.94,155.39c-3.66-3.34-8.1-5.43-12.42-7.76-.1-.06-.18.09-.08.15,4.32,2.27,8.14,5.37,12.36,7.81C125.91,155.65,126,155.48,125.94,155.39Z" style="fill:#263238"></path><path d="M121.75,163a12.67,12.67,0,0,0-2.94-1.66c-1.08-.52-2.17-1-3.26-1.5-2.2-1-4.42-1.87-6.66-2.71-.1,0-.18.1-.08.15,2.19,1,4.36,1.95,6.5,3,1.08.52,2.15,1.06,3.21,1.6a15.26,15.26,0,0,0,3.08,1.4A.17.17,0,0,0,121.75,163Z" style="fill:#263238"></path><path d="M116.42,171.67a9.16,9.16,0,0,0-2.73-1.35l-3-1.27c-2-.86-4-1.71-6-2.64a.09.09,0,0,0-.08.15c2,.95,4,1.93,6,2.86,1,.46,2,.92,3,1.36a8.47,8.47,0,0,0,2.8,1A.06.06,0,0,0,116.42,171.67Z" style="fill:#263238"></path><path d="M66.19,124.55A101.8,101.8,0,0,1,85,131.3a181.36,181.36,0,0,1-18.8-6.75Z" style="fill:#263238"></path><path d="M70,124.22a9.12,9.12,0,0,1,4.81,3.23c-.43-.24-.83-.52-1.24-.78-1.12-.74-2.46-1.7-3.57-2.45Z" style="fill:#263238"></path><path d="M129.25,106c-3.4-.06-9.12-5.57-10.23-10.75-.08-.36,1.35-3.44,2.91-7.26.94-2.32,1.92-4.93,2.65-7.38.15-.5,14.23,8.31,14.23,8.31a40.27,40.27,0,0,0-4.28,9,5.83,5.83,0,0,0-.2,1,1.11,1.11,0,0,1,0,.17C134.05,101.09,132.9,106.09,129.25,106Z" style="fill:#d3766a"></path><path d="M134.34,98.92a1.36,1.36,0,0,1,0,.17,10.07,10.07,0,0,1-1.59-.38c-9-2.9-8-14.91-7.59-17.91,2.61,1.2,13.69,8.14,13.69,8.14a40.84,40.84,0,0,0-4.29,9A5.72,5.72,0,0,0,134.34,98.92Z" style="fill:#263238"></path><path d="M150.73,56.69s-8-8.14-13.27-9.22c-2.81-.57-5.12,2.06-6.42,2.34s-4.74-.41-7.36,1.19-4.58,12.93-2.94,18.38Z" style="fill:#4A61C0"></path><path d="M150.73,56.69s-8-8.14-13.27-9.22c-2.81-.57-5.12,2.06-6.42,2.34s-4.74-.41-7.36,1.19-4.58,12.93-2.94,18.38Z" style="fill:#fff;opacity:0.4"></path><path d="M138.8,76c9.16-2.86,22.66-12.24,20.66-17.35-2.06-5.28-16.09-6.22-27.52-1.37-11.74,5-18.54,12.74-17,16.77C117,79.65,129,79,138.8,76Z" style="fill:#4A61C0"></path><path d="M138.8,76c9.16-2.86,22.66-12.24,20.66-17.35-2.06-5.28-16.09-6.22-27.52-1.37-11.74,5-18.54,12.74-17,16.77C117,79.65,129,79,138.8,76Z" style="fill:#fff;opacity:0.6000000000000001"></path><path d="M117.61,73.15a14,14,0,0,1,.22-2c.43-.4.87-.79,1.32-1.16a15.61,15.61,0,0,0-.4,1.53c0,.1.14.15.17,0,.2-.63.39-1.27.61-1.89a11.9,11.9,0,0,1,1.7-1.17s0-.07,0-.05q-.8.42-1.56.9a9.84,9.84,0,0,1,1-2,11.9,11.9,0,0,1,2-.6s0-.07,0-.06a13,13,0,0,0-1.84.46,6.63,6.63,0,0,1,.62-.78s0-.07,0,0a6.86,6.86,0,0,0-.8.91,11.46,11.46,0,0,0-1.58.66,9.87,9.87,0,0,1,.75-1.23,0,0,0,1,0-.06,0,9.65,9.65,0,0,0-1,1.45,9.61,9.61,0,0,0-2.29,1.72c-.06.06,0,.16.09.11a21.43,21.43,0,0,1,2-1.42,8.85,8.85,0,0,0-.83,2.43,8.27,8.27,0,0,0-1.07,1.21c0,.06,0,.17.1.11l.88-.79a7.67,7.67,0,0,0,0,1.66C117.44,73.29,117.6,73.27,117.61,73.15Zm.32-2.52a10.72,10.72,0,0,1,.79-2.27,12,12,0,0,1,1.59-.82,8.77,8.77,0,0,0-1,2.08A13.17,13.17,0,0,0,117.93,70.63Z" style="fill:#4A61C0"></path><path d="M154.57,58.43a7.9,7.9,0,0,1,1.32.78,4.3,4.3,0,0,0-1.18.63c-.06.06,0,.17.07.14.46-.17.89-.4,1.34-.58a6.32,6.32,0,0,1,.85.79s.09,0,.06,0a8.42,8.42,0,0,0-.74-.83l.06,0a7,7,0,0,1,1.11-.31,7.37,7.37,0,0,1,.67,1s.08,0,.07,0a7.54,7.54,0,0,0-.58-1,5.67,5.67,0,0,1,.57-.1.05.05,0,0,0,0-.1l-.65.07a6.82,6.82,0,0,0-.73-.88,7.11,7.11,0,0,1,1.43.11s.05,0,0-.06a6.45,6.45,0,0,0-1.61-.23,6,6,0,0,0-2.2-1.34.08.08,0,0,0-.07.15,11.22,11.22,0,0,1,1.89,1.19,5.74,5.74,0,0,0-1.7.31,5.68,5.68,0,0,0-1.5-.45c-.13,0-.15.14,0,.18a11.61,11.61,0,0,1,1.17.42,4.1,4.1,0,0,0-.94.58c-.07,0,0,.18.07.14C153.74,58.76,154.15,58.58,154.57,58.43Zm1.53.71A6.28,6.28,0,0,0,155,58.3,7.49,7.49,0,0,1,156.5,58a8,8,0,0,1,.86.88A7.89,7.89,0,0,0,156.1,59.14Z" style="fill:#4A61C0"></path><path d="M127.9,62.08c-3.14,5-4.48,21.65-1.53,26.23,4.28,6.63,13.41,9.6,19.58,4,6-5.46,7.35-27.15,3.85-31.52C144.65,54.31,132.54,54.64,127.9,62.08Z" style="fill:#d3766a"></path><path d="M151.7,71.17c-.44-2.1-.87-5.87-2-7.32s-1.32,2.16-3.92,2.6-4-4.25-6.22-5.49-6.56,1.73-7.26,5.18S131,74.38,130,76.75s-5.69,3.16-5.69,3.16-1-15.12,5.63-20.88,17.77-3,20.17,1.24S151.7,71.17,151.7,71.17Z" style="fill:#263238"></path><path d="M140.82,75.7s-.1,0-.1.09c-.06,1.12-.32,2.4-1.36,2.68,0,0,0,.07,0,.07C140.61,78.47,140.94,76.77,140.82,75.7Z" style="fill:#263238"></path><path d="M139.92,74.45c-1.79-.3-2.24,3.3-.58,3.57S141.42,74.69,139.92,74.45Z" style="fill:#263238"></path><path d="M147.24,76.69s.08.06.08.11c-.18,1.11-.19,2.41.77,2.91,0,0,0,.07,0,.06C146.86,79.44,146.9,77.71,147.24,76.69Z" style="fill:#263238"></path><path d="M148.38,75.65c1.81.09,1.5,3.7-.17,3.62S146.87,75.58,148.38,75.65Z" style="fill:#263238"></path><path d="M138.7,72.62a14,14,0,0,0,1.46-.31,2.38,2.38,0,0,0,1.42-.61.75.75,0,0,0,0-.93,1.9,1.9,0,0,0-1.87-.44,2.79,2.79,0,0,0-1.75,1A.82.82,0,0,0,138.7,72.62Z" style="fill:#263238"></path><path d="M150,74c-.49-.15-.91-.36-1.38-.55a2.43,2.43,0,0,1-1.3-.83.76.76,0,0,1,.16-.93,1.91,1.91,0,0,1,1.92-.12A2.86,2.86,0,0,1,151,72.87.82.82,0,0,1,150,74Z" style="fill:#263238"></path><path d="M138.49,85.91c.23.3.45.69.86.77a2.88,2.88,0,0,0,1.23-.13s.07,0,0,.07a1.5,1.5,0,0,1-1.49.42,1.19,1.19,0,0,1-.75-1.09C138.37,85.88,138.46,85.87,138.49,85.91Z" style="fill:#263238"></path><path d="M140.08,82.72a3.81,3.81,0,0,0,2.32,2,4.73,4.73,0,0,0,1.36.23,1.13,1.13,0,0,0,.26,0h.25a.28.28,0,0,0,.25-.22h0a.49.49,0,0,0,0-.12h0v-.09c.13-.86.21-2.17.21-2.17.29.19,1.8,1.11,1.83.66a56.8,56.8,0,0,0,0-11.66.11.11,0,0,0-.21,0c-.37,3.58-.12,7.21-.44,10.81a6.62,6.62,0,0,0-1.72-.77c-.12,0-.11,2.55-.2,2.93v0a5.31,5.31,0,0,1-3.77-1.71C140.12,82.56,140,82.63,140.08,82.72Z" style="fill:#263238"></path><path d="M143.3,84.46a4.48,4.48,0,0,1-2,1.17,2,2,0,0,1-1.24-.07c-.86-.35-.78-1.17-.53-1.85a5,5,0,0,1,.53-1A5.89,5.89,0,0,0,143.3,84.46Z" style="fill:#263238"></path><path d="M141.33,85.63a2,2,0,0,1-1.24-.07c-.86-.35-.78-1.17-.53-1.85A2.12,2.12,0,0,1,141.33,85.63Z" style="fill:#ff98b9"></path><path d="M138,81.63a4.72,4.72,0,1,1,5.75-4.75h0a4.73,4.73,0,0,1-4.58,4.86A5,5,0,0,1,138,81.63ZM139.9,73a3.73,3.73,0,0,0-1-.1,4.11,4.11,0,1,0,1,.1Z" style="fill:#4A61C0"></path><path d="M148.77,82.69c-1.77-.4-3-2.56-2.71-5a5.63,5.63,0,0,1,1.33-3.18,2.94,2.94,0,0,1,5,.51,5.63,5.63,0,0,1,.65,3.39c-.26,2.59-2.05,4.54-4,4.34ZM150.21,74,150,74a2.51,2.51,0,0,0-2.12,1,5,5,0,0,0-1.17,2.82c-.24,2.25.86,4.21,2.45,4.37s3.05-1.53,3.29-3.77a5,5,0,0,0-.58-3A2.59,2.59,0,0,0,150.21,74Z" style="fill:#4A61C0"></path><path d="M143.52,77.41l-.36-.52c.78-.53,2.51-1.16,3.53.18l-.51.38C145.27,76.25,143.59,77.36,143.52,77.41Z" style="fill:#4A61C0"></path><path d="M122.46,76.46l-.53-.35c.16-.25,1.62-2.41,3-2.49s9.67,1.58,10,1.65l-.13.62c-2.39-.47-8.83-1.7-9.86-1.64S122.85,75.86,122.46,76.46Z" style="fill:#4A61C0"></path><path d="M128.41,76.24s-2.34-6-5-5.33-1.78,8.84.71,10.54a2.86,2.86,0,0,0,4.1-.58Z" style="fill:#d3766a"></path><path d="M123.73,73.24s-.07,0,0,.07c1.73,1.25,2.3,3.28,2.55,5.31a1.58,1.58,0,0,0-2.2-1c-.06,0,0,.11,0,.11a1.78,1.78,0,0,1,1.74,1.07,8.22,8.22,0,0,1,.53,1.75c.05.19.38.18.36,0v0C127.36,78,126.3,74.13,123.73,73.24Z" style="fill:#263238"></path><path d="M121.78,73c3.76-3.84,15.54-14,29.07-12.18a.13.13,0,0,0,.09,0,.17.17,0,0,0,.14-.27c-2.12-2.41-4.72-4.79-8-5.35s-7.24.73-10.1,1.87c-4,1.58-6,2.84-8.1,5.47C122.4,65.57,121.47,73.33,121.78,73Z" style="fill:#4A61C0"></path><g style="opacity:0.6000000000000001"><path d="M121.78,73c3.76-3.84,15.54-14,29.07-12.18a.13.13,0,0,0,.09,0,.17.17,0,0,0,.14-.27c-2.12-2.41-4.72-4.79-8-5.35s-7.24.73-10.1,1.87c-4,1.58-6,2.84-8.1,5.47C122.4,65.57,121.47,73.33,121.78,73Z" style="fill:#fff"></path></g><path d="M120.77,74.14a42.56,42.56,0,0,1,16-11.65,34.85,34.85,0,0,1,17.17-1.82c.06,0,.06.1,0,.1-5.71.07-11.32.13-16.75,2.17-6.23,2.34-11.45,6.86-16.14,11.44C120.88,74.55,120.6,74.32,120.77,74.14Z" style="fill:#4A61C0"></path><path d="M155.49,401.88c17.36.49,34.75.55,52.12.55s34.81.56,52.12-.68a.24.24,0,0,0,0-.47c-1.58-.12-3.17-.19-4.74-.28-4.17-3.54-10.1-6.5-14.71-2.9-1.54-5.06-6.94-6.18-12-5.88,3-6.64-2.17-13.86-9.32-15-7.33-1.14-15.63,3.08-17.11,10.52-3.05-.93-5.64.57-8,2.78-3.53-3.76-8.46.56-10.62,4.75a8,8,0,0,0-5.48-1.22,5.28,5.28,0,0,0-2.46,1.12c-.6.5-1.22,2.13-1.8,2.28s-2.62-.9-3.36-1a7.66,7.66,0,0,0-4.09.63,6.27,6.27,0,0,0-3.35,3.85l-7.2.16A.37.37,0,0,0,155.49,401.88Z" style="fill:#4A61C0"></path><path d="M155.49,401.88c17.36.49,34.75.55,52.12.55s34.81.56,52.12-.68a.24.24,0,0,0,0-.47c-1.58-.12-3.17-.19-4.74-.28-4.17-3.54-10.1-6.5-14.71-2.9-1.54-5.06-6.94-6.18-12-5.88,3-6.64-2.17-13.86-9.32-15-7.33-1.14-15.63,3.08-17.11,10.52-3.05-.93-5.64.57-8,2.78-3.53-3.76-8.46.56-10.62,4.75a8,8,0,0,0-5.48-1.22,5.28,5.28,0,0,0-2.46,1.12c-.6.5-1.22,2.13-1.8,2.28s-2.62-.9-3.36-1a7.66,7.66,0,0,0-4.09.63,6.27,6.27,0,0,0-3.35,3.85l-7.2.16A.37.37,0,0,0,155.49,401.88Z" style="opacity:0.6000000000000001"></path><path d="M258.58,403.4a1.15,1.15,0,0,1-.39-1.95c.32-.14,1.94.8,1.85,1.36A1.07,1.07,0,0,1,258.58,403.4Z" style="fill:#4A61C0"></path><path d="M207.34,402.26c.41-.9,2.22-.29,2.5,0s-.48,1.41-1.27,1.25S207.16,402.65,207.34,402.26Z" style="fill:#4A61C0"></path><path d="M184.37,406a1.53,1.53,0,0,1-1.64-.23c-.34-.4.23-1.27.92-1.31S185.43,405.38,184.37,406Z" style="fill:#4A61C0"></path><path d="M211.14,403.63a1.76,1.76,0,0,1,1.26,1.18c.09.55-.81.93-1.41.55S209.93,403.52,211.14,403.63Z" style="fill:#4A61C0"></path><path d="M158.88,402.56c-.4.21-.26,1.09.42.87S159.41,402.3,158.88,402.56Z" style="fill:#4A61C0"></path><path d="M161.13,402.29c-.16-.28-.67-.1-.49.38S161.33,402.66,161.13,402.29Z" style="fill:#4A61C0"></path><path d="M223,405.45c-.16-.28-.67-.1-.48.38S223.18,405.82,223,405.45Z" style="fill:#4A61C0"></path><path d="M159.77,404.1c-.12-.25-.43-.13-.34.17S159.92,404.42,159.77,404.1Z" style="fill:#4A61C0"></path><path d="M227.9,407.72c-.12-.26-.43-.13-.34.17S228.05,408,227.9,407.72Z" style="fill:#4A61C0"></path><path d="M209.32,404.47c-.12-.25-.42-.13-.33.17S209.47,404.79,209.32,404.47Z" style="fill:#4A61C0"></path><path d="M243.46,404.72c-.16-.22-.44,0-.3.24S243.67,405,243.46,404.72Z" style="fill:#4A61C0"></path><path d="M241.31,406.18c-.47.44.33,2,1.45.87S242.13,405.39,241.31,406.18Z" style="fill:#4A61C0"></path><g style="opacity:0.6000000000000001"><path d="M258.58,403.4a1.15,1.15,0,0,1-.39-1.95c.32-.14,1.94.8,1.85,1.36A1.07,1.07,0,0,1,258.58,403.4Z"></path><path d="M207.34,402.26c.41-.9,2.22-.29,2.5,0s-.48,1.41-1.27,1.25S207.16,402.65,207.34,402.26Z"></path><path d="M184.37,406a1.53,1.53,0,0,1-1.64-.23c-.34-.4.23-1.27.92-1.31S185.43,405.38,184.37,406Z"></path><path d="M211.14,403.63a1.76,1.76,0,0,1,1.26,1.18c.09.55-.81.93-1.41.55S209.93,403.52,211.14,403.63Z"></path><path d="M158.88,402.56c-.4.21-.26,1.09.42.87S159.41,402.3,158.88,402.56Z"></path><path d="M161.13,402.29c-.16-.28-.67-.1-.49.38S161.33,402.66,161.13,402.29Z"></path><path d="M223,405.45c-.16-.28-.67-.1-.48.38S223.18,405.82,223,405.45Z"></path><path d="M159.77,404.1c-.12-.25-.43-.13-.34.17S159.92,404.42,159.77,404.1Z"></path><path d="M227.9,407.72c-.12-.26-.43-.13-.34.17S228.05,408,227.9,407.72Z"></path><path d="M209.32,404.47c-.12-.25-.42-.13-.33.17S209.47,404.79,209.32,404.47Z"></path><path d="M243.46,404.72c-.16-.22-.44,0-.3.24S243.67,405,243.46,404.72Z"></path><path d="M241.31,406.18c-.47.44.33,2,1.45.87S242.13,405.39,241.31,406.18Z"></path></g><path d="M198.75,406.28c10.89.54,21.9.21,32.81.27s21.87.18,32.81-.22a.16.16,0,0,0,0-.32l-1.6-.05a5.53,5.53,0,0,0-3.53-2c-.45-.06-1.55.22-1.85,0s-.21-.37-.43-.81c-1.41-2.74-4.18-2.61-6.81-2,1.43-3.57-1.52-7-5.07-7.84a8.32,8.32,0,0,0-9.48,5.15,6,6,0,0,0-5.92-.54c-1.05.49-1.25,1.08-2.4.83a8.47,8.47,0,0,0-3.17-.27,6.87,6.87,0,0,0-3,1.2c-.64.46-1.2,1.45-1.86,1.67s-1.49-.22-2.33.44a2.59,2.59,0,0,0-1,2.09c-2.38-.75-4.32-.27-6.59.73-1.11.49-2-.1-3.22.12a4.35,4.35,0,0,0-2.12,1.06l0,0c-1.75.05-3.51.1-5.27.19A.11.11,0,1,0,198.75,406.28Z" style="fill:#4A61C0"></path><path d="M198.75,406.28c10.89.54,21.9.21,32.81.27s21.87.18,32.81-.22a.16.16,0,0,0,0-.32l-1.6-.05a5.53,5.53,0,0,0-3.53-2c-.45-.06-1.55.22-1.85,0s-.21-.37-.43-.81c-1.41-2.74-4.18-2.61-6.81-2,1.43-3.57-1.52-7-5.07-7.84a8.32,8.32,0,0,0-9.48,5.15,6,6,0,0,0-5.92-.54c-1.05.49-1.25,1.08-2.4.83a8.47,8.47,0,0,0-3.17-.27,6.87,6.87,0,0,0-3,1.2c-.64.46-1.2,1.45-1.86,1.67s-1.49-.22-2.33.44a2.59,2.59,0,0,0-1,2.09c-2.38-.75-4.32-.27-6.59.73-1.11.49-2-.1-3.22.12a4.35,4.35,0,0,0-2.12,1.06l0,0c-1.75.05-3.51.1-5.27.19A.11.11,0,1,0,198.75,406.28Z" style="opacity:0.30000000000000004"></path></g><g id="freepik--character-2--inject-146"><path d="M432.64,429.08c.2,2.58-7.17,3.31-10.24,1.65a70.76,70.76,0,0,1-7.08-5.82c-7.38-6.53-17.59-16.08-17.59-16.08l-44.48,15.69-15.58-40.29s40.05-16.38,42.55-17.35l.47-.19c11.4-4.38,20.84-7.7,21.81-7C405.11,361.49,432.45,426.49,432.64,429.08Z" style="fill:#ad6359"></path><path d="M432.64,429.08c.2,2.58-7.16,3.31-10.24,1.65a69.91,69.91,0,0,1-7.08-5.83c-7.39-6.52-17.59-16.07-17.59-16.07l-17.27,6.23-17-42.51c.18-.09,36.88-14.41,39-12.88C405.09,361.52,432.45,426.49,432.64,429.08Z" style="fill:#4A61C0"></path><path d="M430,429.49c-5-11-24.12-56-28.23-67.25,0-.09,0-.12.07,0,5.2,10.82,24,55.92,28.35,67.2C430.26,429.65,430.09,429.72,430,429.49Z" style="fill:#263238"></path><path d="M414.89,424.36a11.28,11.28,0,0,1,.09-9.06,10.93,10.93,0,0,1,5.81-5.67c.07,0,.13.12.06.16a13,13,0,0,0-5.8,14.51A.09.09,0,1,1,414.89,424.36Z" style="fill:#263238"></path><path d="M432.64,429.07c.2,2.59-7.16,3.32-10.24,1.67a72.09,72.09,0,0,1-7.08-5.84c-7.38-6.51-17.59-16.07-17.59-16.07l-17.27,6.24-10.74-26.92,37.89-18.65C416.28,388.19,432.49,427.09,432.64,429.07Z" style="opacity:0.1"></path><path d="M383.46,419.68s-80.28,18.43-109.81,13.11c-14.13-2.55-24.33-20.73-17.54-34.66,6.34-13,45.09-26.19,56-33.84,3.45-2.39,3.16-12.24,3.16-12.24L344,352s10.25,16.29,5.91,24.22a3.6,3.6,0,0,1-.25.39l13-4.93Z" style="fill:#455a64"></path><path d="M365.68,398c-3.19-7-6.71-13.75-10-20.67-.06-.13-.28-.06-.22.08,3.07,7,5.91,14.05,9.11,21s6.66,13.76,10,20.64c.09.17.37.08.29-.11C371.82,411.93,368.87,404.9,365.68,398Z" style="fill:#263238"></path><path d="M349.83,377c-2,1.16-3.87,2.5-5.8,3.74s-3.8,2.44-5.75,3.6c-3.92,2.33-7.94,4.51-12,6.59a206.89,206.89,0,0,1-25.34,10.91c-4.84,1.7-9.74,3.36-14.72,4.6-.11,0-.06.19,0,.16,3.63-.86,7.26-1.72,10.84-2.73-1.9,1.2-3.77,2.45-5.66,3.66-.09.06,0,.21.09.15,2.07-1.25,4.17-2.45,6.22-3.73a.21.21,0,0,0,.06-.29c.61-.17,1.22-.34,1.83-.53q6.66-2.06,13.13-4.66A160,160,0,0,0,337.32,386q3.3-2,6.53-4.21a60.42,60.42,0,0,0,6.19-4.59C350.19,377.08,350,376.86,349.83,377Z" style="fill:#263238"></path><path d="M461.36,438.94c.19,2.58-7.17,3.32-10.24,1.65a71.64,71.64,0,0,1-7.09-5.82c-7.37-6.53-17.58-16.08-17.58-16.08l-43.39,15.65-16.67-40.25s17.87-7.56,34.86-14.33c2.61-1,5.18-2,7.69-3l.47-.18c11.4-4.39,20.84-7.71,21.81-7C433.83,371.35,461.16,436.35,461.36,438.94Z" style="fill:#ad6359"></path><path d="M461.36,438.94c.19,2.58-7.17,3.32-10.24,1.65a72,72,0,0,1-7.09-5.82c-7.37-6.53-17.58-16.08-17.58-16.08L401.8,428.75l-17.62-42.3c.33-.12,22.25-8.74,24.76-9.71l.46-.19c11.41-4.38,20.85-7.7,21.82-7C433.83,371.35,461.16,436.34,461.36,438.94Z" style="fill:#4A61C0"></path><path d="M459.15,439.86c-5-11-24-56-28.11-67.3,0-.1,0-.12.07,0,5.17,10.83,23.85,56,28.22,67.25C459.42,440,459.26,440.09,459.15,439.86Z" style="fill:#263238"></path><path d="M443,433.26a11.24,11.24,0,0,1,.1-9.06,10.88,10.88,0,0,1,5.8-5.67c.08,0,.14.11.06.15a13,13,0,0,0-5.79,14.51A.09.09,0,0,1,443,433.26Z" style="fill:#263238"></path><path d="M323,352.21l49.45-.74s10.49,26.69,6.14,34.62-49.89,19.29-49.89,19.29l62.62-23.82,20.83,48S336.05,446.13,295.67,442c-15.15-1.54-24.66-21.34-15.79-36.55,9.34-16,43.22-37.89,43.22-37.89Z" style="fill:#455a64"></path><path d="M389.71,381.43c-19.17,8.76-38.5,17.13-58.27,24.43q-4.12,1.53-8.25,3c-2.86,1-5.7,2.2-8.62,3-.15,0-.07.28.07.22,2.52-.94,5.14-1.62,7.69-2.45s5-1.66,7.49-2.52L333,406l-.65.44c-1,.66-2,1.32-2.94,2-2,1.4-3.87,3.07-6,4.33-.12.07,0,.27.13.19,2-1.42,4.24-2.48,6.29-3.81,1-.65,2-1.33,2.94-2a19.71,19.71,0,0,0,2.58-2c3.15-1.13,6.29-2.27,9.42-3.46q14.76-5.64,29.18-12.14c5.36-2.43,10.67-4.95,15.92-7.62C390.22,381.79,390,381.3,389.71,381.43Z" style="fill:#263238"></path><path d="M395.51,407.41c-3.2-7-6.71-13.75-10-20.67-.06-.13-.28-.06-.22.08,3.08,7,5.91,14.05,9.11,21s6.67,13.76,10,20.64c.09.18.38.08.3-.1C401.65,421.37,398.69,414.34,395.51,407.41Z" style="fill:#263238"></path><path d="M322.21,368.09a135.14,135.14,0,0,0-15.62,10.37c-5,3.67-9.76,7.56-14.34,11.7q-3.47,3.13-6.7,6.52a50.43,50.43,0,0,0-5.68,6.87,24.07,24.07,0,0,0-4.1,15.09,25.52,25.52,0,0,0,2,8.24,30.18,30.18,0,0,0,4.58,7.07c.07.09.2,0,.12-.12a19.51,19.51,0,0,1-3.87-6.77,25.71,25.71,0,0,1-1.53-7.2,25.32,25.32,0,0,1,3.47-14.56c3-5,7.49-9.22,11.74-13.23A176.61,176.61,0,0,1,306,380.36c2.68-2.06,5.41-4.07,8.16-6s5.56-3.86,8.25-5.92A.18.18,0,0,0,322.21,368.09Z" style="fill:#263238"></path><path d="M336.58,370.08A57.54,57.54,0,0,0,324,367.67c-4.22-.47-8.44-.7-12.67-.76-.12,0-.11.17,0,.18,4.29.37,8.58.92,12.85,1.56s8.25,1.51,12.41,1.84C336.79,370.51,336.79,370.15,336.58,370.08Z" style="fill:#263238"></path><path d="M370.21,370.67a61.2,61.2,0,0,1-7.88-.71c-2.16-.31-4.38-.63-6.17-2-3.51-2.63-4.94-7.26-5.68-11.39,0-.09-.19-.07-.17,0,.6,4.49.8,9.65,4.74,12.67a12,12,0,0,0,6.72,2.1,41.11,41.11,0,0,0,8.44-.53A.1.1,0,0,0,370.21,370.67Z" style="fill:#263238"></path><path d="M375.65,377.79a53.26,53.26,0,0,0-1.39-7.71c-.62-2.61-1.36-5.19-2.18-7.74-.94-2.89-2-5.74-3.17-8.56,0-.1-.2-.06-.17.05,1.63,4.78,3.12,9.61,4.37,14.5q.92,3.63,1.65,7.32a15,15,0,0,1,0,7.18,12.5,12.5,0,0,1-4,6.16,0,0,0,1,0,0,0A12.91,12.91,0,0,0,375.65,377.79Z" style="fill:#263238"></path><path d="M384.11,392.46c-3.34.87-6.61,2-9.89,3.08s-6.56,2.13-9.84,3.22c-6.55,2.19-13.08,4.45-19.61,6.7-3.7,1.28-7.39,2.65-11.07,4-.1,0-.06.2.05.17q19.78-6.15,39.33-13c3.69-1.3,7.45-2.5,11.06-4A.06.06,0,1,0,384.11,392.46Z" style="fill:#263238"></path><path d="M318.4,269.35s-4.24-1.87-7.13.24-2.12,4.31-3.79,5.74-6,3.25-6.81,6.29,2.14,6.39,1.91,8.06-3.12,3.65-2.11,6.88c1.17,3.76,4.37,4.48,5.3,6.23,1.53,2.9,1,6.35,4.48,8.7,3.8,2.53,6.83.58,9.54.51s5.26,3.42,9.76,1,4-5.83,5.92-8.37,6.64-3.05,8.25-6.54-.85-5.62-.93-7.47,2.07-3.23,1.44-6.19-4.13-3.85-4.88-4.71c-1.28-1.47-.7-3-2.5-5.14s-5.64-2-6.64-2.39c-2.38-.89-3.21-5.29-6.34-5.53A5.56,5.56,0,0,0,318.4,269.35Z" style="fill:#263238"></path><path d="M300.73,284.3c.86,1.82,2.09,3.91,1,5.92-1.74,2.66-3,6.09-.59,8.74,1.2,1.6,3.46,2.14,4.62,3.92.72,1.87.79,4,1.82,5.78a6.89,6.89,0,0,0,2.68,2.83c-2.65-1-4-3.81-4.67-6.37-.1-.33-.32-1.12-.42-1.43a3.19,3.19,0,0,0-1.51-1.55c-4.19-2.15-6.33-6.23-3.59-10.54.67-1.13,1.63-2.09,1.61-3.46a16,16,0,0,0-.94-3.84Z" style="fill:#263238"></path><path d="M341.92,300.36c2.66-2.49,3.7-4.27,2-7.64a4.47,4.47,0,0,1-.61-2.45c.3-1.26,1.05-2.4,1.22-3.59a4.23,4.23,0,0,0-.38-2.7c-.67-1.83-2.64-2.77-4.33-3.86a23.3,23.3,0,0,1,2.81,1.24,5.53,5.53,0,0,1,2.84,5.47c-.17,1.44-1,2.56-1.22,3.86,1.62,4.68,2.42,6.58-2.32,9.67Z" style="fill:#263238"></path><path d="M328.74,303.79c-.69,14.66-6,45.75-12.28,56.1-2.72,4.46-18.48,15.43-29.56,20.48-4.14,1.89-17-21.51-12.75-24.05,2.9-1.74,21.06-12.9,22.83-14.88,3.26-3.65,16.28-31.65,23.32-43.14C324.23,291.89,329.17,294.68,328.74,303.79Z" style="fill:#ad6359"></path><path d="M291.22,377.58a82.35,82.35,0,0,1-8.88,7.42c-2.55,1.65-10,6.21-12.08,3.59-1.44-1.78,2.62-5,5.45-7.3,1.48-1.22,3-3.64,2.21-4.58-1.46-1.65-5.26,1.6-7.63,4.15-4.59,4.92-10.42,15.46-14.67,13.67-1.61-.68-.53-5.55,1.07-8.12-2.87,3.3-4.61,7-7.54,6.66-1.11-.12-1.72-2.34-1.56-3.49a2.58,2.58,0,0,1-2.86.4c-1.52-.85-1.5-2.8-.79-5a1.45,1.45,0,0,1-1.25-.37c-3.57-3,5.41-17.36,9.33-19.64a111.42,111.42,0,0,1,24.79-10.13C282.87,357.25,291.23,377.57,291.22,377.58Z" style="fill:#ad6359"></path><path d="M269.49,371.67a22.15,22.15,0,0,0-7.33,5.7c-2.52,3-3.87,6.1-5.77,9.35-.05.09.08.17.13.08.91-1.54,4.8-7.5,5.85-8.91a21.09,21.09,0,0,1,7.14-6.17A0,0,0,0,0,269.49,371.67Z" style="fill:#263238"></path><path d="M265.57,367.1a53,53,0,0,0-8.63,6.26c-2.8,2.7-4.56,6.24-6.31,9.67q-1.57,3.08-3,6.23c0,.09.09.17.14.08q2.64-5.28,5.59-10.4a27.76,27.76,0,0,1,7.12-8.21c1.65-1.28,3.4-2.43,5.14-3.57A0,0,0,0,0,265.57,367.1Z" style="fill:#263238"></path><path d="M260.69,363.55c-3,1.61-5.58,3-7.87,5.56a47.38,47.38,0,0,0-6.33,10c-.94,1.91-1.82,3.84-2.67,5.79,0,.08.1.15.14.07a108,108,0,0,1,6.78-12.52,21.93,21.93,0,0,1,4.34-5.16,39.5,39.5,0,0,1,5.62-3.7S260.7,363.54,260.69,363.55Z" style="fill:#263238"></path><path d="M296.94,340.39l22.48,15.85s10-32.45,9.72-50.41c-.21-14-4.89-15.09-11-4.94S296.94,340.39,296.94,340.39Z" style="fill:#4A61C0"></path><path d="M329.13,305.83c.27,18-9.71,50.41-9.71,50.41l-19-13.41,23.29-48.3C326.89,292.92,329,296.53,329.13,305.83Z" style="opacity:0.1"></path><polygon points="294.01 341.05 318.92 359.4 318.92 358.14 320.96 357.92 320.96 356.96 322.47 354.81 296.94 337.33 296.94 338.66 295.21 339.18 295.36 340.39 294.01 341.05" style="fill:#4A61C0"></polygon><polygon points="294.01 341.05 318.92 359.4 318.92 358.14 320.96 357.92 320.96 356.96 322.47 354.81 296.94 337.33 296.94 338.66 295.21 339.18 295.36 340.39 294.01 341.05" style="opacity:0.1"></polygon><path d="M257,392.85c0-1.79.06-3.57.08-5.35.05-5.93.11-11.85.25-17.78q.17-7.05.43-14.11s0,0,.06-.06c0-1.28,0-2.57,0-3.85,0,0,.05-.05.1-.05s.1,0,.1.05l0,3.86s0,0,0,.06c.31,8.37.59,16.74.66,25.11,0,1.7,0,3.41,0,5.11.07,5.46.11,10.92.08,16.38,0,.86,0,1.73,0,2.6,0,5-.06,30-.07,35,0,.27-.39.4-.8.42s-1-.13-1-.44c0-5.51-.05-31-.05-36.52C257,399.79,257,396.32,257,392.85Z" style="fill:#263238"></path><path d="M265.85,366.17s10.16-7.53,19.81-2.45,11.15,24.7,11.15,24.7-14.16,2-23.08-6.46C265.14,373.78,265.85,366.17,265.85,366.17Z" style="fill:#4A61C0"></path><path d="M263.08,366.63a12.27,12.27,0,0,1,5.89-.77,8.54,8.54,0,0,1,1.24-.12l1.43-.11,3-.21c2-.15,4-.27,6-.47.08,0,.09.12,0,.13-2,.25-3.95.53-5.94.73-1,.1-2,.21-3.07.28l-.74.08c.3.06.61.14.9.22a24.21,24.21,0,0,1,4.61,1.87c.8.14,1.59.37,2.38.55,1.26.3,2.51.62,3.76.95,2.46.65,4.91,1.37,7.36,2.09.08,0,0,.14,0,.12-2.45-.6-4.91-1.15-7.36-1.73l-3.57-.86-.94-.21a29.38,29.38,0,0,1,7.22,6.28,38.21,38.21,0,0,1,5,7.91c0,.08-.06.15-.1.07a38.41,38.41,0,0,0-6.08-8c.05.13.09.27.13.4l.57,1.8c.37,1.2.76,2.39,1.11,3.59,0,.09-.09.11-.12,0-.43-1.16-.84-2.33-1.25-3.5l-.6-1.71-.3-.9c0-.09-.07-.18-.1-.27a35.07,35.07,0,0,0-3.61-3.07,26.89,26.89,0,0,0-5.39-3.09c0,.17.07.35.1.52.1.46.21.92.3,1.39.2,1,.39,1.92.57,2.89.39,2,.62,4,1,5.92,0,.08-.1.12-.12,0-.46-2-1.05-3.93-1.49-5.91-.22-1-.44-2-.65-3-.09-.46-.18-.93-.28-1.39-.05-.26-.11-.52-.14-.78l-.55-.23a16.18,16.18,0,0,0-8.46-1.16,8.3,8.3,0,0,0-6.11,4.91c-.1.22-.45.08-.4-.15A7.89,7.89,0,0,1,263.08,366.63Z" style="fill:#263238"></path><path d="M278.64,375c.28,1.29.57,2.58.85,3.87a26.92,26.92,0,0,1,.71,3.75c0,.05-.06.05-.08,0a30.41,30.41,0,0,1-.86-3.78l-.75-3.82C278.5,375,278.62,374.92,278.64,375Z" style="fill:#263238"></path><path d="M288.47,378.28c1.29.65,2.54,1.4,3.9,1.94a.06.06,0,1,1-.06.11,43.05,43.05,0,0,1-3.88-2S288.43,378.26,288.47,378.28Z" style="fill:#263238"></path><path d="M257.83,349.22s-11.68-4.27-13.68-14.09,3.9-20,3.9-20,11.3,6.7,13.68,14.17S257.83,349.22,257.83,349.22Z" style="fill:#4A61C0"></path><path d="M258.24,362.78c.14-1.39.18-2.8.25-4.2s.09-2.68.08-4a77.22,77.22,0,0,0-.46-8.19c-.2-1.74-.47-3.46-.77-5.17.07-.21.11-.43.17-.64.1-.38.21-.75.31-1.13.2-.77.39-1.54.59-2.31.42-1.69.79-3.39,1.23-5.07,0-.08-.1-.13-.12-.05-.45,1.65-1,3.28-1.45,4.93-.23.81-.46,1.62-.68,2.43l-.24.88a89.84,89.84,0,0,0-2.41-9.77c-.14-.43-.28-.86-.43-1.29,0-.1,0-.2,0-.31s0-.5,0-.76c0-.52.07-1,.1-1.57.08-1,.19-2,.35-3.07a.07.07,0,0,0-.13,0c-.18,1-.35,2.07-.48,3.11-.07.51-.11,1-.15,1.52,0,.08,0,.17,0,.25-.76-2.22-1.61-4.41-2.47-6.6,0-.07-.15,0-.12,0a90.34,90.34,0,0,1,3.72,13.41c-.24-.21-.5-.4-.75-.58-.8-.55-1.63-1.07-2.46-1.57-1.75-1-3.5-2.09-5.22-3.19-.06,0-.14.05-.07.1,1.6,1.12,3.18,2.28,4.75,3.45.74.56,1.5,1.08,2.26,1.61a18.69,18.69,0,0,1,1.75,1.45c.06.34.14.68.21,1,.3,1.58.55,3.17.79,4.76l-1.06-.73c-.81-.56-1.62-1.1-2.44-1.64-1.61-1.05-3.21-2.11-4.75-3.25-.07-.05-.15.05-.08.1,1.56,1.17,3.07,2.41,4.6,3.62.73.59,1.48,1.16,2.24,1.72l1.15.83a3.17,3.17,0,0,0,.47.31c.48,3.42.82,6.87,1,10.31.09,1.52.15,3,.19,4.55s0,3.11,0,4.67C257.75,363,258.21,363.11,258.24,362.78Z" style="fill:#263238"></path><path d="M258.09,331.54c.26-1.18.5-2.37.74-3.55a.07.07,0,0,0-.13,0c-.25,1.16-.52,2.32-.79,3.48a34,34,0,0,0-.76,3.47,0,0,0,0,0,0,0A24.9,24.9,0,0,0,258.09,331.54Z" style="fill:#263238"></path><path d="M251.59,328.31a17.73,17.73,0,0,0-1.33-1.41l-.71-.72-.37-.37a2.53,2.53,0,0,1-.38-.42c-.06-.1-.18,0-.1.08a2.6,2.6,0,0,1,.4.41l.34.38.67.74a16.69,16.69,0,0,0,1.39,1.4C251.55,328.45,251.64,328.36,251.59,328.31Z" style="fill:#263238"></path><path d="M252.35,382.57s-2,13.93-12.48,18.8-23.24,0-23.24,0S221.65,371.23,252.35,382.57Z" style="fill:#4A61C0"></path><path d="M223.84,392.31c1-.11,1.93-.28,2.89-.45l1.4-.27.74-.14.85-.79a42.25,42.25,0,0,1,6.4-4.64,34.74,34.74,0,0,1,3.84-2h-.2l-3.44.15c-2.3.11-4.6.16-6.9.31-.08,0-.08-.12,0-.13,2.3-.16,4.6-.41,6.9-.61l3.35-.29c.57-.06,1.15-.11,1.72-.15l.44-.05c.6-.22,1.2-.44,1.81-.62a16.24,16.24,0,0,1,8.87-.49c2.64.67,5.27,2.4,6,5.18,0,.09-.13.16-.17.06-1-2.32-3.55-3.49-5.88-4a13.72,13.72,0,0,0-4.74-.09,12.18,12.18,0,0,1-.53,2.1l-.87,2.94c-.6,2-1.25,3.89-1.83,5.85,0,.08-.15.05-.13,0,.49-2,.9-3.93,1.37-5.89.23-1,.48-1.92.71-2.88a19.43,19.43,0,0,1,.53-2,25,25,0,0,0-2.72.64,39.06,39.06,0,0,0-4.74,1.74c-.16,1-.38,2-.61,3-.28,1.23-.6,2.44-1,3.65a.06.06,0,0,1-.12,0c0-.08,0-.15.05-.23h0c.24-1.14.49-2.28.73-3.41.19-.92.37-1.84.57-2.76-1.3.59-2.58,1.23-3.82,1.94a7.18,7.18,0,0,1-.14.83c-.07.48-.16,1-.24,1.43-.2,1.07-.42,2.14-.67,3.21a53.17,53.17,0,0,1-1.8,6.05s0,.06,0,.08l-.06.07c0,.06-.11,0-.1-.06.48-2.07,1-4.11,1.49-6.19.23-1,.45-2.06.66-3.1.11-.52.2-1,.3-1.56,0-.15,0-.31.07-.47a43.92,43.92,0,0,0-10.32,8.42c-.07.09-.22,0-.15-.12.8-1.05,1.59-2.08,2.49-3.05.53-.56,1.08-1.11,1.63-1.64l-.17,0-1.47.22c-1,.13-1.94.22-2.92.33C223.79,392.44,223.76,392.32,223.84,392.31Z" style="fill:#263238"></path><path d="M231.2,397h0l.06-.36c0-.15.11-.3.13-.45h0c.22-.93.4-1.87.57-2.81,0-.07.12,0,.11,0a11.3,11.3,0,0,1-.79,3.63s-.08,0-.08,0Z" style="fill:#263238"></path><path d="M240,396.81a.06.06,0,0,1,.06-.06c.3-1.23.58-2.47.83-3.71.14-.65.27-1.3.4-2,.07-.35.13-.7.19-1.06a3.06,3.06,0,0,1,.23-.9.07.07,0,0,1,.12,0,6.25,6.25,0,0,1-.27,1.86c-.12.68-.26,1.36-.41,2-.3,1.37-.64,2.74-1,4.09,0,.08-.15.06-.14,0S240,396.91,240,396.81Z" style="fill:#263238"></path><path d="M224.8,388.3c1.91-.26,3.82-.54,5.74-.77.08,0,.11.11,0,.12-1.91.28-3.83.52-5.74.77C224.75,388.43,224.72,388.31,224.8,388.3Z" style="fill:#263238"></path><path d="M209.59,444.78c15.06.42,30.14.48,45.2.48s30.2.48,45.21-.59a.21.21,0,0,0,0-.41c-1.37-.11-2.75-.17-4.11-.25-3.62-3.07-8.76-5.63-12.76-2.51-1.34-4.39-6-5.36-10.44-5.1,2.57-5.76-1.89-12-8.08-13-6.36-1-13.57,2.68-14.85,9.13-2.64-.81-4.88.49-6.9,2.41-3.06-3.26-7.34.48-9.21,4.12a6.93,6.93,0,0,0-4.76-1.06,4.48,4.48,0,0,0-2.13,1c-.52.43-1,1.84-1.56,2s-2.27-.78-2.92-.85a6.64,6.64,0,0,0-3.54.55,5.4,5.4,0,0,0-2.9,3.34c-2.09,0-4.17.08-6.25.14A.32.32,0,0,0,209.59,444.78Z" style="fill:#4A61C0"></path><path d="M209.59,444.78c15.06.42,30.14.48,45.2.48s30.2.48,45.21-.59a.21.21,0,0,0,0-.41c-1.37-.11-2.75-.17-4.11-.25-3.62-3.07-8.76-5.63-12.76-2.51-1.34-4.39-6-5.36-10.44-5.1,2.57-5.76-1.89-12-8.08-13-6.36-1-13.57,2.68-14.85,9.13-2.64-.81-4.88.49-6.9,2.41-3.06-3.26-7.34.48-9.21,4.12a6.93,6.93,0,0,0-4.76-1.06,4.48,4.48,0,0,0-2.13,1c-.52.43-1,1.84-1.56,2s-2.27-.78-2.92-.85a6.64,6.64,0,0,0-3.54.55,5.4,5.4,0,0,0-2.9,3.34c-2.09,0-4.17.08-6.25.14A.32.32,0,0,0,209.59,444.78Z" style="opacity:0.6000000000000001"></path><path d="M299,446.09a1,1,0,0,1-.34-1.69c.27-.11,1.68.7,1.6,1.18A.92.92,0,0,1,299,446.09Z" style="fill:#4A61C0"></path><path d="M254.56,445.11c.36-.79,1.93-.25,2.17,0s-.42,1.22-1.1,1.09S254.41,445.45,254.56,445.11Z" style="fill:#4A61C0"></path><path d="M234.63,448.37a1.35,1.35,0,0,1-1.42-.2c-.29-.35.2-1.1.8-1.14S235.56,447.81,234.63,448.37Z" style="fill:#4A61C0"></path><path d="M257.86,446.29a1.52,1.52,0,0,1,1.09,1c.08.48-.7.81-1.22.48S256.81,446.2,257.86,446.29Z" style="fill:#4A61C0"></path><path d="M212.53,445.37c-.35.18-.23.94.36.75S213,445.14,212.53,445.37Z" style="fill:#4A61C0"></path><path d="M214.48,445.13c-.14-.24-.58-.09-.42.33S214.65,445.45,214.48,445.13Z" style="fill:#4A61C0"></path><path d="M268.13,447.88c-.14-.25-.59-.1-.42.32S268.3,448.2,268.13,447.88Z" style="fill:#4A61C0"></path><path d="M213.3,446.7c-.1-.22-.37-.11-.29.15S213.43,447,213.3,446.7Z" style="fill:#4A61C0"></path><path d="M272.39,449.84c-.1-.22-.37-.11-.29.15S272.52,450.12,272.39,449.84Z" style="fill:#4A61C0"></path><path d="M256.28,447c-.1-.23-.37-.12-.29.14S256.41,447.3,256.28,447Z" style="fill:#4A61C0"></path><path d="M285.89,447.24c-.14-.19-.38,0-.26.21S286.07,447.49,285.89,447.24Z" style="fill:#4A61C0"></path><path d="M284,448.5c-.4.39.29,1.73,1.27.76S284.74,447.82,284,448.5Z" style="fill:#4A61C0"></path><g style="opacity:0.6000000000000001"><path d="M299,446.09a1,1,0,0,1-.34-1.69c.27-.11,1.68.7,1.6,1.18A.92.92,0,0,1,299,446.09Z"></path><path d="M254.56,445.11c.36-.79,1.93-.25,2.17,0s-.42,1.22-1.1,1.09S254.41,445.45,254.56,445.11Z"></path><path d="M234.63,448.37a1.35,1.35,0,0,1-1.42-.2c-.29-.35.2-1.1.8-1.14S235.56,447.81,234.63,448.37Z"></path><path d="M257.86,446.29a1.52,1.52,0,0,1,1.09,1c.08.48-.7.81-1.22.48S256.81,446.2,257.86,446.29Z"></path><path d="M212.53,445.37c-.35.18-.23.94.36.75S213,445.14,212.53,445.37Z"></path><path d="M214.48,445.13c-.14-.24-.58-.09-.42.33S214.65,445.45,214.48,445.13Z"></path><path d="M268.13,447.88c-.14-.25-.59-.1-.42.32S268.3,448.2,268.13,447.88Z"></path><path d="M213.3,446.7c-.1-.22-.37-.11-.29.15S213.43,447,213.3,446.7Z"></path><path d="M272.39,449.84c-.1-.22-.37-.11-.29.15S272.52,450.12,272.39,449.84Z"></path><path d="M256.28,447c-.1-.23-.37-.12-.29.14S256.41,447.3,256.28,447Z"></path><path d="M285.89,447.24c-.14-.19-.38,0-.26.21S286.07,447.49,285.89,447.24Z"></path><path d="M284,448.5c-.4.39.29,1.73,1.27.76S284.74,447.82,284,448.5Z"></path></g><path d="M255.26,448.59c9.45.47,19,.19,28.46.24s19,.16,28.46-.19a.14.14,0,0,0,0-.28l-1.39-.05a4.79,4.79,0,0,0-3.06-1.7c-.39-.05-1.34.2-1.61,0s-.18-.32-.37-.7c-1.22-2.38-3.63-2.27-5.91-1.74,1.25-3.1-1.31-6.12-4.39-6.81a7.23,7.23,0,0,0-8.23,4.47,5.13,5.13,0,0,0-5.13-.46c-.91.42-1.08.93-2.08.72a7.08,7.08,0,0,0-2.75-.24,6.06,6.06,0,0,0-2.59,1c-.55.4-1.05,1.26-1.62,1.45s-1.29-.19-2,.38a2.24,2.24,0,0,0-.84,1.82,7.47,7.47,0,0,0-5.71.63c-1,.42-1.78-.09-2.8.1a3.78,3.78,0,0,0-1.84.92v0c-1.53,0-3,.09-4.58.16A.1.1,0,0,0,255.26,448.59Z" style="fill:#4A61C0"></path><path d="M255.26,448.59c9.45.47,19,.19,28.46.24s19,.16,28.46-.19a.14.14,0,0,0,0-.28l-1.39-.05a4.79,4.79,0,0,0-3.06-1.7c-.39-.05-1.34.2-1.61,0s-.18-.32-.37-.7c-1.22-2.38-3.63-2.27-5.91-1.74,1.25-3.1-1.31-6.12-4.39-6.81a7.23,7.23,0,0,0-8.23,4.47,5.13,5.13,0,0,0-5.13-.46c-.91.42-1.08.93-2.08.72a7.08,7.08,0,0,0-2.75-.24,6.06,6.06,0,0,0-2.59,1c-.55.4-1.05,1.26-1.62,1.45s-1.29-.19-2,.38a2.24,2.24,0,0,0-.84,1.82,7.47,7.47,0,0,0-5.71.63c-1,.42-1.78-.09-2.8.1a3.78,3.78,0,0,0-1.84.92v0c-1.53,0-3,.09-4.58.16A.1.1,0,0,0,255.26,448.59Z" style="opacity:0.30000000000000004"></path><path d="M372.78,352l-57.33,1.82,1.8-20.46s-4.92-4.06-4.56-9.87c.3-4.94,9.39-27.17,10.33-28.33,3.78-4.64,10.81-5.87,14.66-3.4C358.26,304.9,372.78,352,372.78,352Z" style="fill:#4A61C0"></path><g style="opacity:0.1"><path d="M338.28,292.11H326.65a12,12,0,0,1,1.67-.77H337a5.44,5.44,0,0,1,.67.37Z"></path><path d="M344.06,297h-22c.13-.29.25-.55.36-.77h20.86Z"></path><path d="M348.35,301.9H320c.11-.26.21-.52.32-.77h27.43C347.94,301.38,348.15,301.64,348.35,301.9Z"></path><path d="M351.92,306.8H318l.3-.78h33.05Q351.67,306.41,351.92,306.8Z"></path><path d="M355,311.69H316.18c.09-.25.19-.51.28-.77h38.11Z"></path><path d="M357.84,316.59H314.46c.09-.25.18-.51.26-.78h42.69C357.56,316.07,357.7,316.33,357.84,316.59Z"></path><path d="M360.4,321.48H313c.05-.24.12-.5.19-.77H360Z"></path><path d="M362.76,326.38H313c-.06-.25-.11-.51-.16-.77H362.4Z"></path><path d="M365,331.28h-49.6q-.28-.36-.57-.78h49.83C364.74,330.76,364.85,331,365,331.28Z"></path><path d="M367,336.17H317l.07-.77h49.64C366.81,335.66,366.92,335.92,367,336.17Z"></path><path d="M369,341.07H316.57l.07-.78h52Z"></path><path d="M370.75,346H316.14l.06-.77h54.28C370.57,345.45,370.67,345.71,370.75,346Z"></path><path d="M372.43,350.86H315.71l.06-.77h56.41C372.27,350.38,372.36,350.64,372.43,350.86Z"></path></g><path d="M328.17,329.3a21.84,21.84,0,0,0-5.28,1.48c-.86.38-1.71.83-2.56,1.31-.42.24-.85.46-1.27.67a3.56,3.56,0,0,1-1.36.44c-.05,0-.05.11,0,.11a5.65,5.65,0,0,0,1.3,0,5.9,5.9,0,0,0,1.25-.41c.88-.37,1.75-.81,2.62-1.2a49.4,49.4,0,0,1,5.32-2.11C328.27,329.54,328.25,329.29,328.17,329.3Z" style="fill:#263238"></path><path d="M332.46,332.17a22.19,22.19,0,0,0-4.37-.44,14.75,14.75,0,0,0-2.19.21c-.35.05-.7.12-1,.19s-.76.26-1.14.33c0,0,0,.12,0,.12a9.91,9.91,0,0,1,1.09,0l1.09,0,2.19-.06c1.46-.07,2.91-.11,4.37-.09C332.53,332.39,332.53,332.19,332.46,332.17Z" style="fill:#263238"></path><path d="M331.41,292.33c.08,1.09-2.68,9.22-7.39,10.47-1.54.41-4.12-7.88-4.12-7.88l-.33-.56-4.62-8,8-9.62,1.19-1.32s1.12,2.26,2.48,5.09l.2.4c.08.16.16.31.23.46.21.42.42.85.62,1.28s.31.65.46,1,.31.69.47,1A60,60,0,0,1,331.41,292.33Z" style="fill:#ad6359"></path><path d="M326.63,280.55a18.47,18.47,0,0,1-7.06,13.81l-4.62-8,8-9.62,1.19-1.32S325.27,277.72,326.63,280.55Z" style="fill:#263238"></path><path d="M298.42,278.6c4.39,15.53,14.19,14.65,17.54,13.7,3-.86,13.28-4.19,10.51-20.09S315.09,253.44,308,255.05,294,263.07,298.42,278.6Z" style="fill:#ad6359"></path><path d="M300.34,274.33a10.71,10.71,0,0,0,1-.56c.37-.22.69-.35.88-.76a.57.57,0,0,0-.21-.67,1.45,1.45,0,0,0-1.46.11,2.13,2.13,0,0,0-1,1.12A.62.62,0,0,0,300.34,274.33Z" style="fill:#263238"></path><path d="M311.28,272.19c-.37.09-.73.11-1.11.17a1.94,1.94,0,0,1-1.17-.05.59.59,0,0,1-.25-.67,1.49,1.49,0,0,1,1.22-.81,2.12,2.12,0,0,1,1.5.25A.61.61,0,0,1,311.28,272.19Z" style="fill:#263238"></path><path d="M310.17,275.49s.1,0,.11.08c.25,1.08.72,2.28,1.78,2.38,0,0,.05.06,0,.06C310.84,278.16,310.24,276.56,310.17,275.49Z" style="fill:#263238"></path><path d="M310.84,274.12c1.69-.59,2.74,2.84,1.17,3.38S309.42,274.61,310.84,274.12Z" style="fill:#263238"></path><path d="M311.57,274.09c.36.11.75.36,1.13.28s.63-.54.8-1c0,0,.06,0,.07,0a1.3,1.3,0,0,1-.51,1.71c-.62.29-1.25-.15-1.62-.76C311.37,274.27,311.42,274.05,311.57,274.09Z" style="fill:#263238"></path><path d="M303.72,277.41s-.07.08-.05.12c.4,1,.68,2.29-.15,3,0,0,0,.07,0,.06C304.65,280,304.26,278.33,303.72,277.41Z" style="fill:#263238"></path><path d="M302.4,276.64c-1.73.46-.68,3.89.92,3.46S303.85,276.25,302.4,276.64Z" style="fill:#263238"></path><path d="M301.75,277.08c-.21.27-.38.68-.7.8s-.76-.15-1.1-.43c0,0-.06,0-.05.05.19.67.61,1.28,1.28,1.22s.86-.76.82-1.46C302,277.13,301.84,277,301.75,277.08Z" style="fill:#263238"></path><path d="M313.2,283.93c-.13.34-.22.78-.57,1a2.9,2.9,0,0,1-1.2.25,0,0,0,0,0,0,.07,1.5,1.5,0,0,0,1.53,0,1.19,1.19,0,0,0,.38-1.26C313.31,283.86,313.22,283.88,313.2,283.93Z" style="fill:#263238"></path><path d="M307.46,282.07s.4,1.63.69,2.36c0,.06.22,0,.47-.06,0,0,0,0,0,0a3.72,3.72,0,0,0,2.85-2.62.08.08,0,0,0-.15-.06,5.59,5.59,0,0,1-2.8,2.16c-.13-.18-.59-2.81-.71-2.77a6.65,6.65,0,0,0-1.5,1c-.93-3.36-1.31-6.85-2.28-10.18a.11.11,0,0,0-.21,0,56.31,56.31,0,0,0,2,11.08C305.94,283.45,307.22,282.31,307.46,282.07Z" style="fill:#263238"></path><path d="M309,283.77a3.94,3.94,0,0,0,1.87.7,1.76,1.76,0,0,0,1.05-.25c.68-.42.49-1.11.18-1.65a4.37,4.37,0,0,0-.61-.8A5.11,5.11,0,0,1,309,283.77Z" style="fill:#263238"></path><path d="M310.83,284.47a1.76,1.76,0,0,0,1.05-.25c.68-.42.49-1.11.18-1.65A1.82,1.82,0,0,0,310.83,284.47Z" style="fill:#ff99ba"></path><path d="M326.32,274.29c-2.53.92-4.62-4.34-4.62-4.34s-5.25,1.47-9.07-5.6a12.12,12.12,0,0,0,4.05,5.6s-9.52,1.58-15.56-5.09c0,0,2.64,3.52,4.49,4.52a11.27,11.27,0,0,1-6.95-2.64s-.46,5.08-1.37,6.66c0,0-6.64-17.27,11.47-18.89,0,0,9.56-2,15,4.53S326.32,274.29,326.32,274.29Z" style="fill:#263238"></path><path d="M296.55,260.87c1.87-.46,12.31-.2,17,1.8s13.05,8.7,13.48,9.05,2.5-16.86-11.46-19.93C300.36,248.44,296.55,260.87,296.55,260.87Z" style="fill:#4A61C0"></path><path d="M326.23,271S317,258.9,311.82,256.15s-16.62-4.27-23.7-1.12c-5.52,2.47,8,9.52,8,9.52a3.82,3.82,0,0,1,2.14-2.68c3.45-1.39,10-.37,13.76.87C316.75,264.3,326.23,271,326.23,271Z" style="fill:#4A61C0"></path><path d="M326.23,271S317,258.9,311.82,256.15s-16.62-4.27-23.7-1.12c-5.52,2.47,8,9.52,8,9.52a3.82,3.82,0,0,1,2.14-2.68c3.45-1.39,10-.37,13.76.87C316.75,264.3,326.23,271,326.23,271Z" style="opacity:0.2"></path><path d="M323.05,273.44s1.51-6,4.09-5.6,2.7,8.13.54,10a2.73,2.73,0,0,1-3.94-.08Z" style="fill:#ad6359"></path><path d="M327.12,270.07a0,0,0,0,1,0,.06c-1.49,1.38-1.8,3.36-1.81,5.3a1.5,1.5,0,0,1,2-1.18c.06,0,.05.1,0,.11a1.68,1.68,0,0,0-1.52,1.2,7.65,7.65,0,0,0-.29,1.71c0,.19-.34.21-.35,0v0C324.24,275,324.8,271.21,327.12,270.07Z" style="fill:#263238"></path><path d="M341.35,299.65c5.65,10.43,7.11,53.23,5.82,57.25-4.72,14.84-38.6,27.56-50.66,30.22-3.39.74-4.55-27.21-1-28.1,7.06-1.74,27.59-8.66,29-11.09s5.79-32.24,7.44-44.64C333.38,292.83,338.48,294.38,341.35,299.65Z" style="fill:#ad6359"></path><path d="M298.67,358.48s-5.62.23-10.9.66c-6.34.52-21.72,4.84-27.65,21.74-2.28,6.47,1.27,10.89,4.83,4.58,2.5-4.44,3.85-7.73,5.08-8.95,0,0,1.23,7.71,5.29,9.71a83.16,83.16,0,0,0,11,4.47,16.88,16.88,0,0,0,1-2,9.52,9.52,0,0,0,9.95-1.93Z" style="fill:#ad6359"></path><path d="M281.73,360.33c-2.43,2.28-7.51,7.2-10.27,12.68-3.06,6.08-7.32,18.62-2.8,20.83,3.31,1.63,5.35-3,5.35-3s-.66,5.56,2.64,6.37c3,.74,4.39-2.95,4.39-2.95s.17,3.44,3.22,3.59c3.65.19,2.69-7.05,6.56-10.07C291.68,387.08,281.73,360.33,281.73,360.33Z" style="fill:#ad6359"></path><path d="M278.43,375.17a27.08,27.08,0,0,0-4.5,15.54c0,.13.12.2.14.07a66.72,66.72,0,0,1,4.41-15.58S278.45,375.14,278.43,375.17Z" style="fill:#263238"></path><path d="M284.48,378.44c-1.45,2.35-4.16,9.55-3.56,15.77,0,.14.12.2.14.07a72,72,0,0,1,3.47-15.82S284.49,378.41,284.48,378.44Z" style="fill:#263238"></path><path d="M323.2,349c-8.56,4.2-17.41,8.13-26.69,10.42-5.61.05-11.32.3-16.63,2.17-9.29,3.48-17.12,11.2-19.94,20.82a7.67,7.67,0,0,0,0,4.92,7.44,7.44,0,0,1-.37-5c2.22-10.13,10.22-18.47,19.81-22.11,5.47-2,11.36-2.22,17.09-2.17,9.16-2.15,18-5.63,26.74-9Z" style="fill:#263238"></path><path d="M323.22,346.29l26.21,8.36s-.25-33.95-5.9-51c-4.41-13.31-9.2-12.92-12-1.4S323.22,346.29,323.22,346.29Z" style="fill:#4A61C0"></path><path d="M331.57,302.25c2.76-11.52,7.55-11.91,12,1.4,5.65,17.05,5.9,51,5.9,51l-26.21-8.36S328.82,313.76,331.57,302.25Z" style="fill:#4A61C0"></path><path d="M349.33,351.58c-1.79-13.46-2.26-27.74-4-41.22,1.79,6.69,2.26,13.65,2.95,20.52s1,13.79,1.06,20.7Z" style="fill:#263238"></path><path d="M346.72,312.71a5.94,5.94,0,0,1-.37,4.51,40.12,40.12,0,0,1,.37-4.51Z" style="fill:#263238"></path><path d="M323.22,346.29c.68-6.65,1.68-13.26,2.82-19.85s2.33-13.2,4.5-19.53c-2.61,12.88-4.41,26.56-7.32,39.38Z" style="fill:#263238"></path><path d="M329,308a30.45,30.45,0,0,1,0,4.48,6.08,6.08,0,0,1,0-4.48Z" style="fill:#263238"></path><polygon points="320.62 347.8 349.9 357.81 349.52 356.61 351.4 355.79 351.11 354.88 351.91 352.36 322.3 343.38 322.7 344.64 321.21 345.67 321.72 346.77 320.62 347.8" style="fill:#4A61C0"></polygon><polygon points="320.62 347.8 349.9 357.81 349.52 356.61 351.4 355.79 351.11 354.88 351.91 352.36 322.3 343.38 322.7 344.64 321.21 345.67 321.72 346.77 320.62 347.8" style="opacity:0.1"></polygon></g><g id="freepik--garden-trowel--inject-146"><path d="M348,475.45c.29.1-1.36-22.31-1.41-23.15,0,0-18.81-3.14-23.08-2.1-1.95.48-14.56,6.11-14.72,8.64-.2,3.2,7.69,9.24,14.78,12.67C329.69,474.48,347.45,475.26,348,475.45Z" style="fill:#a6a6a6"></path><path d="M356.12,466.21c.06,0-.19-4.77-.21-4.94,0,0-21.41-2.46-22.32-2.22-.42.11-3.11,1.37-3.13,1.91,0,.69,1.68,2,3.22,2.67C335,464.25,356,466.17,356.12,466.21Z" style="fill:#dbdbdb"></path><path d="M378.76,462c-8.25-1-22.85-.69-22.85-.69l.21,4.94s15.06,2.79,21.82,3.7S387,463,378.76,462Zm.35,5.75a1.74,1.74,0,1,1,2-1.39A1.73,1.73,0,0,1,379.11,467.71Z" style="fill:#4A61C0"></path></g></svg>
